/* XPM */
static char *result[] = {
/* columns rows colors chars-per-pixel */
"41 90 229 2 ",
"   c #050405",
".  c #0A0603",
"X  c #0C0906",
"o  c #07040A",
"O  c #0A050C",
"+  c #0B0B0B",
"@  c #130C04",
"#  c #120D0B",
"$  c #1B0E02",
"%  c #0F110E",
"&  c #1C1405",
"*  c #14110D",
"=  c #1B140B",
"-  c #1E190B",
";  c #191404",
":  c #0E0612",
">  c #0E0C12",
",  c #0F0A18",
"<  c #130B14",
"1  c #150B1C",
"2  c #190E1E",
"3  c #150B16",
"4  c #0E1212",
"5  c #121314",
"6  c #1B1512",
"7  c #1C1916",
"8  c #14151A",
"9  c #1C121B",
"0  c #141A1C",
"q  c #1C1B1B",
"w  c #231C0C",
"e  c #271A0A",
"r  c #231B13",
"t  c #21141D",
"y  c #231B1B",
"u  c #271C16",
"i  c #1D211A",
"p  c #2A2205",
"a  c #2B240C",
"s  c #31260D",
"d  c #2C231C",
"f  c #272316",
"g  c #32291C",
"h  c #352714",
"j  c #3C3418",
"k  c #170C22",
"l  c #1A0D24",
"z  c #1D0E28",
"x  c #1D1422",
"c  c #161E21",
"v  c #1D1F21",
"b  c #1E1129",
"n  c #191824",
"m  c #221523",
"M  c #251A24",
"N  c #23142C",
"B  c #241C2C",
"V  c #2A1B2C",
"C  c #2A1E26",
"Z  c #251333",
"A  c #281635",
"S  c #2C1A35",
"D  c #2A153A",
"F  c #2D1A3B",
"G  c #241B32",
"H  c #301E35",
"J  c #311D3D",
"K  c #301E2F",
"L  c #1A2224",
"P  c #1C2629",
"I  c #1E2A2D",
"U  c #172125",
"Y  c #1F2B31",
"T  c #232325",
"R  c #24252A",
"E  c #25292B",
"W  c #2B2B2D",
"Q  c #292528",
"!  c #342B23",
"~  c #32242C",
"^  c #392C28",
"/  c #3E322D",
"(  c #393228",
")  c #222E33",
"_  c #2D2E31",
"`  c #2A2535",
"'  c #3C2B34",
"]  c #34223C",
"[  c #372538",
"{  c #233235",
"}  c #263439",
"|  c #2A353B",
" . c #2B3A3D",
".. c #313235",
"X. c #343639",
"o. c #353A3D",
"O. c #3A3A3D",
"+. c #432D16",
"@. c #433919",
"#. c #443929",
"$. c #463734",
"%. c #554927",
"&. c #554A30",
"*. c #6A5422",
"=. c #6C5628",
"-. c #715131",
";. c #73622A",
":. c #7B6A36",
">. c #6E6338",
",. c #5E521B",
"<. c #321E41",
"1. c #361744",
"2. c #352143",
"3. c #392445",
"4. c #3B2549",
"5. c #3D2A4B",
"6. c #392943",
"7. c #2D3C42",
"8. c #323E45",
"9. c #363847",
"0. c #4A1E59",
"q. c #412B44",
"w. c #422C4E",
"e. c #473745",
"r. c #442D52",
"t. c #4C2D5C",
"y. c #442755",
"u. c #453254",
"i. c #493457",
"p. c #4B365A",
"a. c #4E395D",
"s. c #4E3A55",
"d. c #523A5C",
"f. c #52295F",
"g. c #552B67",
"h. c #533463",
"j. c #533D63",
"k. c #59356C",
"l. c #59396A",
"z. c #5E3570",
"x. c #5D2274",
"c. c #682F7F",
"v. c #653879",
"b. c #632859",
"n. c #36444B",
"m. c #3E4C53",
"M. c #4E4F46",
"N. c #414A4E",
"B. c #4A494C",
"V. c #56584F",
"C. c #53564E",
"Z. c #414956",
"A. c #45545C",
"S. c #49555B",
"D. c #545254",
"F. c #5B5958",
"G. c #52494C",
"H. c #726A5C",
"J. c #6D6653",
"K. c #554065",
"L. c #5B446B",
"P. c #5B476A",
"I. c #4D5863",
"U. c #515B65",
"Y. c #5E4471",
"T. c #5D5C72",
"R. c #634474",
"E. c #644C75",
"W. c #66447A",
"Q. c #6A4A7E",
"!. c #71537C",
"~. c #685371",
"^. c #54636D",
"/. c #5D6D77",
"(. c #5F7178",
"). c #4D606A",
"_. c #686669",
"`. c #6C6E72",
"'. c #64747D",
"]. c #7C7A7E",
"[. c #76726F",
"{. c #81743C",
"}. c #807631",
"|. c #89782F",
" X c #847A47",
".X c #837A5B",
"XX c #827F7D",
"oX c #864A53",
"OX c #8F8976",
"+X c #A19555",
"@X c #72368C",
"#X c #724A89",
"$X c #75468B",
"%X c #795989",
"&X c #7B4A94",
"*X c #7D5494",
"=X c #6F4584",
"-X c #667980",
";X c #6B7D85",
":X c #667885",
">X c #7E7C80",
",X c #8A3799",
"<X c #81579A",
"1X c #824C9B",
"2X c #8A649D",
"3X c #836496",
"4X c #9656B5",
"5X c #8B4DA9",
"6X c #9769B3",
"7X c #9D73B6",
"8X c #8F63AB",
"9X c #A376B9",
"0X c #A765CA",
"qX c #AA7CC2",
"wX c #A876C7",
"eX c #B67BD9",
"rX c #AF6ED3",
"tX c #758B95",
"yX c #7A919A",
"uX c #888789",
"iX c #8299A3",
"pX c #B186C8",
"aX c #B888D6",
"sX c #AC82C4",
"dX c #C08EDE",
"fX c #C691E7",
"gX c #CB96ED",
"hX c #D8A8F8",
"jX c None",
/* pixels */
"jXjXjXjXjXjXjXjXjXjXjXjXjXjXjXjXjXe e h s e jXjXjXjXjXjXjXjXjXjXjXjXjXjXjXjXjXjXjX",
"jXjXjXjXjXjXjXjXjXjXjXjXjXjXjX@ $ s h +.+.h +.e jXjXjXjXjXjXjXjXjXjXjXjXjXjXjXjXjX",
"jXjXjXjXjXjXjXjXjXjXjXjXjXjX. $ e s h +.+.h h h jXjXjXjXjXjXjXjXjXjXjXjXjXjXjXjXjX",
"jXjXjXjXjXjXjXjXjXjXjXjXjXjX$ & u ~ 9.`.[.|.XXJ.r jXjXjXjXjXjXjXjXjXjXjXjXjXjXjXjX",
"jXjXjXjXjXjXjXjXjXjXjXjXjXjX7 / g %.>.+XOX+XOXOXjXjXjXjXjXjXjXjXjXjXjXjXjXjXjXjXjX",
"jXjXjXjXjXjXjXjXjXjXjXjXjXjXr B.F.%.&.J.OXOXuXH.Q jXjXjXjXjXjXjXjXjXjXjXjXjXjXjXjX",
"jXjXjXjXjXjXjXjXjXjXjXjXjXjX# X.D.F.D.~ #.D.#.Q jXjXjXjXjXjXjXjXjXjXjXjXjXjXjXjXjX",
"jXjXjXjXjXjXjXjXjXjXjXjXjX. X q B.D.F.~.G.D.s._.jXjXjXjXjXjXjXjXjXjXjXjXjXjXjXjXjX",
"jXjXjXjXjXjXjXjXjXjXjXjXjX  jX# E _ D.uX`._.`.3XjXjXjXjXjXjXjXjXjXjXjXjXjXjXjXjXjX",
"jXjXjXjXjXjXjXjXjXjXjXjXjXjXjX& 7 E D.uXXXD._._.jXjXjXjXjXjXjXjXjXjXjXjXjXjXjXjXjX",
"jXjXjXjXjXjXjXjXjXjXjXjXjXjXjXe e y B._.`.`.`.F.jXjXjXjXjXjXjXjXjXjXjXjXjXjXjXjXjX",
"jXjXjXjXjXjXjXjXjXjXjXjXjXjX. @ a y W F._.H.].D.jXjXjXjXjXjXjXjXjXjXjXjXjXjXjXjXjX",
"jXjXjXjXjXjXjXjXjXjXjXjXjXjXjX@ = W X.X.V.H.J.jXjXjXjXjXjXjXjXjXjXjXjXjXjXjXjXjXjX",
"jXjXjXjXjXjXjXjXjXjXjXjXjXjXjXX 4 W B.X.Q v 8 jXjXjXjXjXjXjXjXjXjXjXjXjXjXjXjXjXjX",
"jXjXjXjXjXjXjXjXjXjXjX@ e t m   % 0 P P E { P n Z @.* jXjXjXjXjXjXjXjXjXjXjXjXjXjX",
"jXjXjXjXjXjXjXjXjXjX; < m [ $.<.  % 5 c P i 5 < g w.[ g jXjXjXjXjXjXjXjXjXjXjXjXjX",
"jXjXjXjXjXjXjXjXo : k ! u M w.#.1 + + + 4 4 U L m t ' q.2 : jXjXjXjXjXjXjXjXjXjXjX",
"jXjXjXjXjXjXjXo O O 2 S [ $.[ 6.g + % 5 4 0 U 0 > r V 2 g @.*.jXjXjXjXjXjXjXjXjXjX",
"jXjXjXjXjXjX: 3 r r g ! ' H ~ m Z t.H < % 4 4 0 E.2.9 f m J J jXjXjXjXjXjXjXjXjXjX",
"jXjXjXjXjXo w w O : 2 l t %.2 Z N F t.=X*X6X9XpXW.6.S a r x H V jXjXjXjXjXjXjXjXjX",
"jXjXjXjXjX; X : 3 m d g #.' L Z 6.F 2.4.p.1XrX#Xu.5.] > i r t B jXjXjXjXjXjXjXjXjX",
"jXjXjXjXjXjXO 1 N ! V Z g.] P n 5.2.w.2.2.4.5Xp.5.i.] 4 I q u M jXjXjXjXjXjXjXjXjX",
"jXjXjXjXjXjX, x h Z D <.v.O { ) <.5.J K.a.5.g.w.i.u.F 4 P 7.jXs 3 jXjXjXjXjXjXjXjX",
"jXjXjXjXjXjX1 e x F A 5.=X8 L } Z 5.5.2.i.j.a.p.i.r.2.9 U | 0 jXs jXjXjXjXjXjXjXjX",
"jXjXjXjXjXjX= & N F 2.k.l.L c I n 2.i.4.F 5.5.u.i.5.5.x 0 Y } jXjXjXjXjXjXjXjXjXjX",
"jXjXjXjXjXjXe jXZ F w.v.5.0 } ) ) A 4.a.5.2.F 4.5.a.u.x + 0 U P jXjXjXjXjXjXjXjXjX",
"jXjXjXjXjXjXjXjXZ <.u.4Xx 0 P { } G <.5.a.K.j.j.K.K.i.b 4 0 { { jXjXjXjXjXjXjXjXjX",
"jXjXjXjXjXjXjXjXZ 2.a.wX8 % 0 U I n <.2.5.i.K.Y.K.p.i.b + U P | { jXjXjXjXjXjXjXjX",
"jXjXjXjXjXjXjXjXZ 4.h.eX5 + 0 I I n Z J 2.4.i.i.i.i.5.x + 4 9 ` I P jXjXjXjXjXjXjX",
"jXjXjXjXjXjXjXjXZ 4.j.fX< 5 { } I c x D J 2.5.5.5.5.6.k + 5 9 C W T jXjXjXjXjXjXjX",
"jXjXjXjXjXjXjXjXZ 5.l.9X5 I I L 8 b S k A J 2.2.2.2.<.1 + 7 s g &.( y 7 jXjXjXjXjX",
"jXjXjXjXjXjXjXjXA 5.Y.7X0 L 0 > , 2 ! G.H m / q.S ! ~ 2 j B T g ! Q 7 7 7 6 jXjXjX",
"jXjXjXjXjXjXjXjXS w.l.9X4 0 5 + - w 9 N t d [ S y ' ~ ! e.C d f d q 7 7 7 * jXjXjX",
"jXjXjXjXjXjXjXjXA w.Y.2X+ 8 4 - 7 & w w w : < = 6 l 7 9 r w 6 6 % + % 7 7 + jXjXjX",
"jXjXjXjXjXjXjXjXA r.*Xi.  4 % q W E T T f s d f w a f - + . 1.8 + 5 y 7 + + jXjXjX",
"jXjXjXjXjXjXjXjXA u.2Xs.  % + 5 L T E W R R T L 9 8 < 2 : o c.S + 6 7 7 jXjXjXjXjX",
"jXjXjXjXjXjXjX1 <.u.<X6.      X X # > > , , , 1 1 l b 9.8 . @Xy.+ 7 7 5 jXjXjX).jX",
"jXjXjXjXjXjXjXk F i.%XB         : 6 g Z k k z z Z S G I.( 1 f.w.jX* + * jXjXjX^.m.",
"jXjXjXjXjXjXjX1 <.p.*XB       O 3 N [ $.6.b F Z Z D G ).O.! g.y.jXo   jXjXjXjX/.m.",
"jXjXjXjXjXjXjX2 <.i.wXM     o : 2 H r.$.e.a.D 4.p.p.9.A.;Xd 3.W.  + + jXjXjX'.'.8.",
"jXjXjXjXjXjXjXk 2.w.aXm     : , N J $.K <.j.j.q.2.5.7.7.I.-XI.P.8.9.n.S.A.^.U.9.) ",
"jXjXjXjXjXjXjXl 2.w.sX+     : , Z $.#.#.H r.P.Y.i.a.u.7.7.| o.7.n.H.V.8.| 8.| } P ",
"jXjXjXjXjXjXjXb 2.u.qX+   : : 3 N [ ! #.A 4.p.L.Y.Y.a.` G s 7 a +.,XoXjXjXjXc jXjX",
"jXjXjXjXjXjXjXz 4.j.qX<   : : 3 N ^ #.~ D J u.i.a.a.i.<.j.y x _ #.b.-.^.jXjXjXjXjX",
"jXjXjXjXjXjXjXN 5.R.sX+ + O O 3 s m $.A ] D w.i.i.i.5.6.5.) n.} D.*.B.(.tXS.P jXjX",
"jXjXjXjXjXjXjXZ 5.R.9X+ O e # r N J #.t.3.J 2.r.i.i.5.5.5.m.Y A./.-.M./.'.iXjXjXjX",
"jXjXjXjXjXjXjXA w.R.pX: : # r N 4.e.#.t.4.] 2.4.5.a.2.i.u.Y.} I.'.=.M.'.tX;XjXjXjX",
"jXjXjXjXjXjXjXA w.Q.!.  : : 2 V g @.s t.2.5.F 2.4.5.<.j.5.L.I n.-X:.M.'.tXjXjXjXjX",
"jXjXjXjXjXjXjXF u.*X!.  : : < r V $.u t.2.u.A 2.2.2.F j.5.Y.d n.;X:.M.;XyXjXjXjXjX",
"jXjXjXjXjXjXk F u.2X!.+ : + r m 6.! # f.4.i.2.J 2.2.2.j.5.W.s n.-X:.M.tX(.jXjXjXjX",
"jXjXjXjXjXjXz 2.i.2X6.: < # 9 H h = 5 r.r.i.5.<.2.2.u.j.5.E.X { (.:.M.tXA.jXjXjXjX",
"jXjXjXjXjXjXb 2.a.7Xx : # 3 t u d r 0 y.y.u.a.5.2.] p.p.5.!.4 { (. XM.tXjXjXjXjXjX",
"jXjXjXjXjXjXN 2.j.9Xt 3 o 1 y C W f U h.t.5.j.u.2.] j.a.5.%X0 I /.{.M.;XjXjXjXjXjX",
"jXjXjXjXjXjXZ 4.a.7X: < O 6 y [ h 5 P a.y.5.P.K.5.4.K.i.E.!.U I /.{.M.'.jXjXjXjXjX",
"jXjXjXjXjXjXF r.w.qXo # # u C ^ 4 U I r.y.2.a.P.a.K.P.i.E.!.I I ^.}.M.;XjXjXjXjXjX",
"jXjXjXjXjXjX<.r.u.pXO O e r g = 5 P { u.l.2.u.L.E.E.K.i.E.%XP I A. XM.tXjXjXjXjXjX",
"jXjXjXjXjXk 2.u.=X%XO O r t - 4 c I { u.W.J 5.i.P.K.i.i.R.R P I Z. XM.yXjXjXjXjXjX",
"jXjXjXjXjXb 2.u.6X%X  o 2 a % 0 L I { w.W.J 2.u.K.a.i.i.%X` P I A. XM.tXjXjXjXjXjX",
"jXjXjXjXjXZ 2.i.wXP.. ; 6 & 4 0 L I { u.#XF 2.5.u.i.i.5.2XQ P { N.{.M.yXjXjXjXjXjX",
"jXjXjXjXjXA 5.l.aXs.  ; p + 0 0 L I Y u.1XZ 2.2.5.i.u.2.2X` I { n.OXM.tXjXjXjXjXjX",
"jXjXjXjXjXF 5.P.dX[ X   p % 0 U U { { ] &XZ 2.2.2.5.5.2.2X` I I 8..XM.).jXjXjXjXjX",
"jXjXjXjXk 2.r.R.gX5   X % 4 0 c P Y { R =XZ 2.2.2.<.2.2.7XQ I ) 8. XM.m.jXjXjXjXjX",
"jXjXjXjXb 2.i.Q.hX9   + % 4 0 L P Y | R *X2.2.2.2.F 2.<.2XP { I 8.:.M.N.jXjXjXjXjX",
"jXjXjXjXA 2.a.*XpXO +   % 5 0 U I { | G *Xp.2.2.F a.2.<.2XL I { n.{.M.N.jXjXjXjXjX",
"jXjXjX1 F 2.u.7X9X  + @ + 0 0 U I { | R *Xt.F <.A P.<.D qXP Y ) 7.}.M.N.jXjXjXjXjX",
"jXjXjXz <.2.j.wXd.+ % & : 4 0 v I { 7.R &X#XD <.A E.<.<.#XP } Y n.:.M.N.jXjXjXjXjX",
"jXjXjXZ <.5.Y.aXd.+ 5 p < < 0 L P } 7.I h.0Xy.J Y.*X] $Xa.I } { n.;.M.S.jXjXjXjXjX",
"jXjXjXF <.5.Y.wX[ 4 7 p 1 x 4 c P } 7.{ R v.aXr.*X%X4.*XL {  .I n.;.M.S.jXjXjXjXjX",
"jXjXjX<.2.r.<XdX` 5 T 7 - g f 4 L {  .} I 8 0X8XrX6X<X] L } | P  .;.V.o.jXjXjXjXjX",
"jXjXk <.2.r.*XaXM 5 T T s T R + 4 L {  .I + v.0XeXeX&X< L { I % ) ;.V.jXjXjXjXjXjX",
"jXjXb <.4.5.6XqX> 7 E ..L X.W     + 0 { P + < @X0X4X2.q 0 P + + ) ;.V.jXjXjXjXjXjX",
"jXjXZ 2.2.u.6XsX< 7 E X.R X.q   + X   4 4   + H @Xg.T W % 4     { ;.V.jXjXjXjXjXjX",
"jXk D 2.2.r.9X%X+ 5 E O.R X.5   O     o o + * < 0.7 R ..T _ +   ) ;.D.o jXjXjXjXjX",
"jXZ D 2.2.J fX<X+ 5 E O.E X.4 + + + . + + + 4 + > 7 T X.X.W +   ) ;.V.+ jXjXjXjXjX",
"jXZ <.A <.2.gX%Xo + f X.E _ + + % o 3       + + : q E X.8.q +   ) ;.V.B jXjXjXjXjX",
"k A <.F <.k.gXs.  + v _ R _   + % S 4.jXjXjXjXjXjX8 T X.O.v 2   ) *.V.B jXjXjXjXjX",
"z D F t.2.l.gXi.O > 5 T E T jXX + + < jXjXjXjXjXjX% v ..O.R jX  } *.V.V jXjXjXjXjX",
"Z A D @Xy.k.eXu.3 jX5 L E M jXjXjXjXjXjXjXjXjXjXjX% q W ..w jXjX} *.V.V jXjXjXjXjX",
"1.D A $Xh.k.rXv.jXjX+ q E L jXjXjXjXjXjXjXjXjXjXjXjX0 E j *.jXjXn.=.V.I.jXjXjXjXjX",
"jX1.Z x.&Xz.0Xz.jXjX+ f g jXjXjXjXjXjXjXjXjXjXjXjXjX5 E s M jXjX8.=.M.T.jXjXjXjXjX",
"jX1.<.0.5X1X0Xk.jXjXX j %.jXjXjXjXjXjXjXjXjXjXjXjXjX* v w b jXjXn.*.M.'.jXjXjXjXjX",
"jXjX0.D @X0X0Xv.jXjX; m $.jXjXjXjXjXjXjXjXjXjXjXjXjX4 8 & %.jXI A.=.M.'.jXjXjXjXjX",
"jXjXjXx.@X5X0Xv.jXjX# ^ &.jXjXjXjXjXjXjXjXjXjXjXjXjX= a p y M L m.*.M.tXjXjXjXjXjX",
"jXjXjXjX@X5X4X@XjXjXw H %.jXjXjXjXjXjXjXjXjXjXjXjXjX= N h 9 ^ V } M./.o.jXjXjXjXjX",
"jXjXjXjXjXc.@X@XjXe = / $.jXjXjXjXjXjXjXjXjXjXjXjX  : S d e m q.P A.(.jXjXjXjXjXjX",
"jXjXjXjXjXjX0.0.jX* 6 ] %.@.jXjXjXjXjXjXjXjXjXjXjXo O 1 r s 9 d [ n.Z.jXjXjXjXjXjX",
"jXjXjXjXjXjXjXjXjXw w / #.@.jXjXjXjXjXjXjXjXjXjXjXjXo o O & a < b { 6.H jXjXjXjXjX",
"jXjXjXjXjXjXjXjXe 6 ] 3.%.@.jXjXjXjXjXjXjXjXjXjXjXjXjXjXjXjXjXjX  8 o : jXjXjXjXjX",
"jXjXjXjXjXjXjXjX@ : V H [ jXjXjXjXjXjXjXjXjXjXjXjXjXjXjXjXjXjXjXjXjXjXjXjXjXjXjXjX",
"jXjXjXjXjXjXjXjXjXo : 3 1 jXjXjXjXjXjXjXjXjXjXjXjXjXjXjXjXjXjXjXjXjXjXjXjXjXjXjXjX"
};
