/* XPM */
static char *result[] = {
/* columns rows colors chars-per-pixel */
"41 90 229 2 ",
"   c #050405",
".  c #0A0603",
"X  c #0C0906",
"o  c #07040A",
"O  c #0A050C",
"+  c #0B0B0B",
"@  c #130C04",
"#  c #120D0B",
"$  c #1B0E02",
"%  c #0F110E",
"&  c #1C1405",
"*  c #14110D",
"=  c #1B140B",
"-  c #1E190B",
";  c #191404",
":  c #0E0612",
">  c #0E0C12",
",  c #0F0A18",
"<  c #130B14",
"1  c #150B1C",
"2  c #190E1E",
"3  c #150B16",
"4  c #0E1212",
"5  c #121314",
"6  c #1B1512",
"7  c #1C1916",
"8  c #14151A",
"9  c #1C121B",
"0  c #141A1C",
"q  c #1C1B1B",
"w  c #231C0C",
"e  c #271A0A",
"r  c #231B13",
"t  c #21141D",
"y  c #231B1B",
"u  c #271C16",
"i  c #1D211A",
"p  c #2A2205",
"a  c #2B240C",
"s  c #31260D",
"d  c #2C231C",
"f  c #272316",
"g  c #32291C",
"h  c #352714",
"j  c #3C3418",
"k  c #170C22",
"l  c #1A0D24",
"z  c #1D0E28",
"x  c #1D1422",
"c  c #161E21",
"v  c #1D1F21",
"b  c #1E1129",
"n  c #191824",
"m  c #221523",
"M  c #251A24",
"N  c #23142C",
"B  c #241C2C",
"V  c #2A1B2C",
"C  c #2A1E26",
"Z  c #251333",
"A  c #281635",
"S  c #2C1A35",
"D  c #2A153A",
"F  c #2D1A3B",
"G  c #241B32",
"H  c #301E35",
"J  c #311D3D",
"K  c #301E2F",
"L  c #1A2224",
"P  c #1C2629",
"I  c #1E2A2D",
"U  c #172125",
"Y  c #1F2B31",
"T  c #232325",
"R  c #24252A",
"E  c #25292B",
"W  c #2B2B2D",
"Q  c #2A2528",
"!  c #342B23",
"~  c #32242B",
"^  c #392C28",
"/  c #3C322B",
"(  c #222E33",
")  c #2D2E31",
"_  c #2A2535",
"`  c #3C2B34",
"'  c #34223C",
"]  c #372538",
"[  c #233235",
"{  c #263439",
"}  c #2A353B",
"|  c #2B3A3D",
" . c #313235",
".. c #343639",
"X. c #353A3D",
"o. c #3A3A3D",
"O. c #432D16",
"+. c #433919",
"@. c #443929",
"#. c #463734",
"$. c #554927",
"%. c #554A30",
"&. c #6B5525",
"*. c #715131",
"=. c #73622A",
"-. c #7B6A36",
";. c #6E6338",
":. c #5E521B",
">. c #321E41",
",. c #361744",
"<. c #352143",
"1. c #392445",
"2. c #3B2549",
"3. c #3D2A4B",
"4. c #392943",
"5. c #2D3C42",
"6. c #323E45",
"7. c #363847",
"8. c #4A1E59",
"9. c #412B44",
"0. c #422C4E",
"q. c #473745",
"w. c #442D52",
"e. c #4C2D5C",
"r. c #442755",
"t. c #453254",
"y. c #493457",
"u. c #4B365A",
"i. c #4E395D",
"p. c #4E3A55",
"a. c #523A5C",
"s. c #52295F",
"d. c #552B67",
"f. c #533463",
"g. c #533D63",
"h. c #59356C",
"j. c #59396A",
"k. c #5E3570",
"l. c #5D2274",
"z. c #653879",
"x. c #682F7F",
"c. c #632859",
"v. c #36444B",
"b. c #3E4C53",
"n. c #4E4F46",
"m. c #414A4E",
"M. c #4A494C",
"N. c #56584F",
"B. c #53564E",
"V. c #414956",
"C. c #534853",
"Z. c #45545C",
"A. c #49555B",
"S. c #535254",
"D. c #5B5958",
"F. c #524B47",
"G. c #6F6758",
"H. c #554065",
"J. c #5B446B",
"K. c #5B476A",
"L. c #4D5863",
"P. c #515B65",
"I. c #5E4471",
"U. c #5D5C72",
"Y. c #655769",
"T. c #634474",
"R. c #644C75",
"E. c #66447A",
"W. c #6A4A7E",
"Q. c #71537C",
"!. c #695379",
"~. c #54636D",
"^. c #5D6D77",
"/. c #5F7178",
"(. c #4D606A",
"). c #69676A",
"_. c #676E71",
"`. c #716F73",
"'. c #64747D",
"]. c #7A797D",
"[. c #787266",
"{. c #81743C",
"}. c #807631",
"|. c #89782F",
" X c #857A47",
".X c #837A5B",
"XX c #864A53",
"oX c #93895B",
"OX c #8F8A77",
"+X c #AD9E4C",
"@X c #72368C",
"#X c #724A89",
"$X c #75468B",
"%X c #795989",
"&X c #7B4A94",
"*X c #7D5494",
"=X c #6F4584",
"-X c #667980",
";X c #6B7D85",
":X c #667885",
">X c #7F7D81",
",X c #8A3799",
"<X c #81579A",
"1X c #824C9B",
"2X c #8A649D",
"3X c #836496",
"4X c #9656B5",
"5X c #8B4DA9",
"6X c #9769B3",
"7X c #9D73B6",
"8X c #8F63AB",
"9X c #A376B9",
"0X c #A765CA",
"qX c #AA7CC2",
"wX c #A876C7",
"eX c #B67BD9",
"rX c #AF6ED3",
"tX c #758B95",
"yX c #7A919A",
"uX c #898789",
"iX c #8299A3",
"pX c #B186C8",
"aX c #B888D6",
"sX c #AC82C4",
"dX c #C08EDE",
"fX c #C691E7",
"gX c #CB96ED",
"hX c #D8A8F8",
"jX c None",
/* pixels */
"jXjXjXjXjXjXjXjXjXjXjXjXjXjXjXjXjXe e h e e jXjXjXjXjXjXjXjXjXjXjXjXjXjXjXjXjXjXjX",
"jXjXjXjXjXjXjXjXjXjXjXjXjXjXjX@ e e h O.O.h O.e jXjXjXjXjXjXjXjXjXjXjXjXjXjXjXjXjX",
"jXjXjXjXjXjXjXjXjXjXjXjXjXjX. $ e s h O.O.h h h jXjXjXjXjXjXjXjXjXjXjXjXjXjXjXjXjX",
"jXjXjXjXjXjXjXjXjXjXjXjXjXjX$ & u Q M.`..X|.3XG.r jXjXjXjXjXjXjXjXjXjXjXjXjXjXjXjX",
"jXjXjXjXjXjXjXjXjXjXjXjXjXjX7 / g $.;.oXOX+XuXoXjXjXjXjXjXjXjXjXjXjXjXjXjXjXjXjXjX",
"jXjXjXjXjXjXjXjXjXjXjXjXjXjXr M.D.$.%.[.uXOXuXG.Q jXjXjXjXjXjXjXjXjXjXjXjXjXjXjXjX",
"jXjXjXjXjXjXjXjXjXjXjXjXjXjX# ..S.N.C.~ #.D.#.Q jXjXjXjXjXjXjXjXjXjXjXjXjXjXjXjXjX",
"jXjXjXjXjXjXjXjXjXjXjXjXjX. X q M.S.D.Y.C.S.p.Y.jXjXjXjXjXjXjXjXjXjXjXjXjXjXjXjXjX",
"jXjXjXjXjXjXjXjXjXjXjXjXjX  jX# Q ) S.uX`.)._.>XjXjXjXjXjXjXjXjXjXjXjXjXjXjXjXjXjX",
"jXjXjXjXjXjXjXjXjXjXjXjXjXjXjX& 7 E S.uX>XS.Y.).jXjXjXjXjXjXjXjXjXjXjXjXjXjXjXjXjX",
"jXjXjXjXjXjXjXjXjXjXjXjXjXjXjXe e y n.`.].D.`.D.jXjXjXjXjXjXjXjXjXjXjXjXjXjXjXjXjX",
"jXjXjXjXjXjXjXjXjXjXjXjXjXjX. @ u f W Y.).D.OXA.jXjXjXjXjXjXjXjXjXjXjXjXjXjXjXjXjX",
"jXjXjXjXjXjXjXjXjXjXjXjXjXjXjX@ = W .. .D.oXG.jXjXjXjXjXjXjXjXjXjXjXjXjXjXjXjXjXjX",
"jXjXjXjXjXjXjXjXjXjXjXjXjXjXjX@ 4 W M...T v 8 jXjXjXjXjXjXjXjXjXjXjXjXjXjXjXjXjXjX",
"jXjXjXjXjXjXjXjXjXjXjX@ e t x   4 0 P E I [ P n Z +.* jXjXjXjXjXjXjXjXjXjXjXjXjXjX",
"jXjXjXjXjXjXjXjXjXjX& < m ] #.>.  4 4 0 L L 5 < g 0.] g jXjXjXjXjXjXjXjXjXjXjXjXjX",
"jXjXjXjXjXjXjXjXo : k g u N 9.#.3 + + % 4 4 U L x t ` 1.2 : jXjXjXjXjXjXjXjXjXjXjX",
"jXjXjXjXjXjXjXo O O 1 H 9.@.] 9.g + % 4 4 0 U 0 , w V 9 g +.&.jXjXjXjXjXjXjXjXjXjX",
"jXjXjXjXjXjX: 3 u r g ! ` H ~ b Z e.H < > 4 4 0 R.<.x f N J J jXjXjXjXjXjXjXjXjXjX",
"jXjXjXjXjXo w w O : 2 l 9 $.8 Z N F e.=X*X7X9XqXE.4.S p w m H V jXjXjXjXjXjXjXjXjX",
"jXjXjXjXjX; X : 3 m d g @.` L Z 4.F <.1.u.&XrX#Xt.0.' > i r t M jXjXjXjXjXjXjXjXjX",
"jXjXjXjXjXjXO 1 N ! C A d.' P n 3.<.w.<.>.0.5Xu.3.y.' 4 E x f M jXjXjXjXjXjXjXjXjX",
"jXjXjXjXjXjX, x h Z D >.k.> [ ( >.3.J H.i.0.d.w.t.t.J 5 P 5.jXa < jXjXjXjXjXjXjXjX",
"jXjXjXjXjXjX1 e l F D 3.=X8 L { Z 3.0.>.t.g.i.u.y.w.<.8 U { c jXa jXjXjXjXjXjXjXjX",
"jXjXjXjXjXjX= & N F <.h.j.L c I n <.y.1.F 3.w.t.y.3.3.x 8 Y { jXjXjXjXjXjXjXjXjXjX",
"jXjXjXjXjXjXe jXZ F 0.z.3.0 { ( ( A 1.i.3.<.A 2.3.i.t.x > 0 U P jXjXjXjXjXjXjXjXjX",
"jXjXjXjXjXjXjXjXZ >.t.4Xx 0 P [ { G >.3.i.H.g.g.H.g.y.n % 0 [ [ jXjXjXjXjXjXjXjXjX",
"jXjXjXjXjXjXjXjXZ <.i.wX8 % 0 U Y n >.1.3.y.H.I.H.i.y.m + U P } [ jXjXjXjXjXjXjXjX",
"jXjXjXjXjXjXjXjXZ 2.f.eX5 + 0 I P n Z >.>.2.t.y.u.y.3.x > 4 8 _ I I jXjXjXjXjXjXjX",
"jXjXjXjXjXjXjXjXZ 2.g.fX< 5 [ { Y c x D >.<.2.w.3.2.<.9 + 6 t C ! T jXjXjXjXjXjXjX",
"jXjXjXjXjXjXjXjXZ 3.j.9X5 I I L 8 b S k Z >.>.<.<.<.>.1 + q s g %.) y 7 jXjXjXjXjX",
"jXjXjXjXjXjXjXjXA 3.I.7X0 L 0 > , 2 ! F.J y / 9.A ^ ~ k j n Q d ! Q 7 7 7 6 jXjXjX",
"jXjXjXjXjXjXjXjXA 3.k.9X4 0 5 + w - 9 N t d ] S y ` ~ ! q.M d d d q 7 7 7 * jXjXjX",
"jXjXjXjXjXjXjXjXF 3.I.2X+ 8 4 - 6 - w - w : < 6 r k 7 9 7 a 6 6 % + 5 7 7 # jXjXjX",
"jXjXjXjXjXjXjXjXA t.%Xu.X 4 % q W E T d f a f f w a u w X o ,.9 X 6 q 5 + + jXjXjX",
"jXjXjXjXjXjXjXjXA t.2Xp.  + + 5 v R E W R E T v 9 8 8 1 + o x.H + 7 7 7 jXjXjXjXjX",
"jXjXjXjXjXjXjXk >.w.<X3.      X + X , > , 3 3 1 1 l b 7.7 o x.r.+ 7 q # jXjXjXP.jX",
"jXjXjXjXjXjXjX1 >.y.%XM         : 6 g G k b z z Z A G L.^ 1 s.w.jX* + 5 jXjXjX~.b.",
"jXjXjXjXjXjXjXk >.u.*XM       : 3 N ] #.' n F Z Z D G (.o.! d.t.jXo   jXjXjXjX^.b.",
"jXjXjXjXjXjXjX1 >.t.wXB     o : 2 H w.#.t.i.A 2.u.u.7.Z.;Xd <.E.  + + jXjXjX-X^.6.",
"jXjXjXjXjXjXjX1 >.0.aXx     : : N J #.~ 1.a.g.1.<.7.<.5.(.:XL.K.6.7.m.A.Z.P.P.7.( ",
"jXjXjXjXjXjXjXl >.t.sX#     : 3 Z #.^ @.] w.I.I.y.u.7.5.7.5.6.} v.G.N.6.} v.| { U ",
"jXjXjXjXjXjXjXb <.t.qXO   : : 3 Z ] ^ #.A 1.p.H.I.I.i.' G a 7 a O.,XXXjXjXjXc jXjX",
"jXjXjXjXjXjXjXb 3.H.9X<   : : , z O.@.~ A >.y.y.g.g.3.' g.y t ) @.c.*.P.jXjXjXjXjX",
"jXjXjXjXjXjXjXN 3.I.qX+ X O O 3 s N @.S <.F 3.y.y.y.3.4.3.( v.{ S.%.m.'.tXA.P jXjX",
"jXjXjXjXjXjXjXZ 3.I.qX+ O e # e N J @.e.1.F 1.t.y.y.3.3.t.b.( Z._.=.n./.'.iXjXjXjX",
"jXjXjXjXjXjXjXA 0.T.pX: : # r Z 1.q./ y.2.>.<.1.t.y.<.y.3.I.[ L.'.&.F._.tX'.jXjXjX",
"jXjXjXjXjXjXjXA t.W.Q.  : : 2 V g +.f e.4.2.>.<.2.3.>.i.3.I.L b.:X-.n.:XyXjXjXjXjX",
"jXjXjXjXjXjXjXA t.<XQ.  : O 9 r V ` f e.<.t.F >.<.<.J g.3.T.d v.;X-.n.:XyXjXjXjXjX",
"jXjXjXjXjXjXk F t.2XQ.+ : : = m 4.! * s.2.y.' J <.<.1.g.3.T.a v.-X-.n.tX/.jXjXjXjX",
"jXjXjXjXjXjXz >.y.2X4.: < = 9 H h * 5 w.w.y.0.>.<.<.3.g.3.R.+ [ '.-.n.tXZ.jXjXjXjX",
"jXjXjXjXjXjXb 1.i.7X9 : # < m u d f 0 0.r.t.i.2.<.J y.i.3.#X5 ( /. Xn.tXjXjXjXjXjX",
"jXjXjXjXjXjXN 1.g.9Xt : o , u C W f U f.r.3.g.y.<.<.i.i.3.%Xc P ^.{.n.;XjXjXjXjXjX",
"jXjXjXjXjXjXZ 2.i.7X< < O 9 y ] s 5 P f.r.3.J.H.3.3.H.u.R.Q.n P ^.{.n.'.jXjXjXjXjX",
"jXjXjXjXjXjXF w.0.qXo * # e V g 4 U I w.w.2.i.K.y.H.K.y.R.`.P I ~.{.n.;XjXjXjXjXjX",
"jXjXjXjXjXjX>.w.w.pXO : e y ! = 5 P [ t.k.<.w.J.!.R.H.t.R.%XP ( A.{.n.tXjXjXjXjXjX",
"jXjXjXjXjXk >.y.W.%X+ O 6 t - 4 0 I [ 0.E.' 3.i.K.H.u.y.I.Q P I b. Xn.yXjXjXjXjXjX",
"jXjXjXjXjXb <.w.6X3X  O 2 a % 0 L I ( t.E.>.<.w.g.i.y.t.%X_ P I b.oXn.tXjXjXjXjXjX",
"jXjXjXjXjXZ 2.y.9XK.. $ * - 4 0 L I [ t.#XD <.2.y.y.y.3.2X_ I [ b.oX%.tXjXjXjXjXjX",
"jXjXjXjXjXA 3.g.aXu.  $ a + 0 0 P I Y t.*XD <.<.3.y.t.1.2XQ I [ v..Xn.tXjXjXjXjXjX",
"jXjXjXjXjXF 3.J.fX_     p 4 0 c U ( [ ] &XA <.<.<.3.3.>.2X_ I I 6..Xn.(.jXjXjXjXjX",
"jXjXjXjXk <.w.T.gX5 X X X 5 0 L P Y { B =XA <.<.<.>.<.<.7XQ I I 5. Xn.m.jXjXjXjXjX",
"jXjXjXjXb <.p.=XhX<   + % 5 0 L P ( { I #X1.<.<.>.>.<.>.2XP I ( v.-.n.b.jXjXjXjXjX",
"jXjXjXjXZ <.i.*XpX+ + X % 5 0 c I [ { _ *Xu.>.<.F i.<.>.2XL [ I v.{.n.V.jXjXjXjXjX",
"jXjXjXk A <.t.7X9XX X X + 5 0 L I [ } R 1Xe.>.>.F J.<.D qXP E ( v.-.%.b.jXjXjXjXjX",
"jXjXjXz <.<.g.wXi.+ % - : 5 0 L I { 5.T &X$XZ >.F R.>.>.#XP { ( v.-.n.b.jXjXjXjXjX",
"jXjXjXZ >.3.I.aXa.+ 8 p 1 < 0 U I { 5.I f.6Xe.J J.*XF #Xa.P { [ v.=.F.A.jXjXjXjXjX",
"jXjXjXF >.3.I.wX] 4 7 p , x 4 0 P { 6.[ P E.eXw.*X%X2.1XU [ | I v.=.n.A.jXjXjXjXjX",
"jXjXjX>.<.w.<XdX~ 4 T 7 - g q 4 c [ | | P 0 0X8XrX8X<X' L [ } U | =.N.X.jXjXjXjXjX",
"jXjXz >.<.w.*XaXQ 5 R T a d E + % L [ | I + z.0XaXeX&X< P [ I % ( =.N.jXjXjXjXjXjX",
"jXjXb >.1.3.6XqX< 5 E  .T ..W     + 0 I P   < @X0X4X1.q 8 P 4 X ( =.N.jXjXjXjXjXjX",
"jXjXZ <.<.t.6XsX: 7 E ..T X.v   + +   4 4 + + H @Xd.T ( + 4 +   [ =.N.jXjXjXjXjXjX",
"jXk D <.<.w.9X%X+ 6 R o.R ..5   + +   o + + * < 8.9 T  .E W +   ( =.N.o jXjXjXjXjX",
"jXZ D <.<.J fX<X+ 5 E X.E ..% + + X   + + + > + < 9 T ....W +   ( =.N.o jXjXjXjXjX",
"jXZ >.A <.1.gXQ.+ + T ..R ) o + + o 3       + + + q Q ..7.v +   ) =.S.B jXjXjXjXjX",
"k Z >.F <.h.gXu.  X q ) E W + + * G 2.jXjXjXjXjXjX5 E ..o.v 8   [ &.N.B jXjXjXjXjX",
"z D D e.2.h.gXu.+ : 5 R E T jXX + + < jXjXjXjXjXjX% i  .o.T jX  { &.N.G jXjXjXjXjX",
"Z Z A @Xr.h.eXw., jX* L Q v jXjXjXjXjXjXjXjXjXjXjX% q W  .w jXjX[ &.N.M jXjXjXjXjX",
",.D D &Xf.h.rXz.jXjX+ q E L jXjXjXjXjXjXjXjXjXjXjXjX0 E j &.jXjXv.&.B.L.jXjXjXjXjX",
"jX,.Z d.&Xk.0Xk.jXjX+ f ! jXjXjXjXjXjXjXjXjXjXjXjXjX5 R s M jXjXv.&.F.U.jXjXjXjXjX",
"jX,.,.8.4X&X0Xk.jXjX. j $.jXjXjXjXjXjXjXjXjXjXjXjXjX# L e b jXjXv.&.n.'.jXjXjXjXjX",
"jXjX8.D @X0X0Xk.jXjX& m #.jXjXjXjXjXjXjXjXjXjXjXjXjX5 8 & $.jXI Z.&.n.'.jXjXjXjXjX",
"jXjXjXl.@X5X0Xz.jXjX# ^ %.jXjXjXjXjXjXjXjXjXjXjXjXjX= a p y M U b.&.n.tXjXjXjXjXjX",
"jXjXjXjX@X5X4X@XjXjXw H $.jXjXjXjXjXjXjXjXjXjXjXjXjX* N h 9 ^ V { n.^.X.jXjXjXjXjX",
"jXjXjXjXjXl.,X@XjXw & / #.jXjXjXjXjXjXjXjXjXjXjXjX  : H d w N 9.P L.^.jXjXjXjXjXjX",
"jXjXjXjXjXjXr.8.jX* 6 ' $.+.jXjXjXjXjXjXjXjXjXjXjXo O 1 e s 6 d ] v.V.jXjXjXjXjXjX",
"jXjXjXjXjXjXjXjXjXe r @.@.+.jXjXjXjXjXjXjXjXjXjXjXjXo o O & a , b (  .F jXjXjXjXjX",
"jXjXjXjXjXjXjXjXe 6 J 2.$.+.jXjXjXjXjXjXjXjXjXjXjXjXjXjXjXjXjXjXo 8 O : jXjXjXjXjX",
"jXjXjXjXjXjXjXjX@ : N H ] jXjXjXjXjXjXjXjXjXjXjXjXjXjXjXjXjXjXjXjXjXjXjXjXjXjXjXjX",
"jXjXjXjXjXjXjXjXjXo < 3 2 jXjXjXjXjXjXjXjXjXjXjXjXjXjXjXjXjXjXjXjXjXjXjXjXjXjXjXjX"
};
