/* XPM */
static char *result[] = {
/* columns rows colors chars-per-pixel */
"41 90 229 2 ",
"   c #050405",
".  c #0A0603",
"X  c #0C0906",
"o  c #07040A",
"O  c #0A050C",
"+  c #0B0B0B",
"@  c #130C04",
"#  c #120D0B",
"$  c #1B0E02",
"%  c #0F110E",
"&  c #1C1405",
"*  c #14110D",
"=  c #1B140B",
"-  c #1E190B",
";  c #191404",
":  c #0E0612",
">  c #0E0C12",
",  c #0F0A18",
"<  c #130B14",
"1  c #150B1C",
"2  c #190E1E",
"3  c #150B16",
"4  c #0E1212",
"5  c #121314",
"6  c #1B1512",
"7  c #1C1916",
"8  c #14151A",
"9  c #1C121B",
"0  c #141A1C",
"q  c #1C1B1B",
"w  c #231C0C",
"e  c #271A0A",
"r  c #231B13",
"t  c #21141D",
"y  c #231B1B",
"u  c #271C16",
"i  c #1D211A",
"p  c #2A2205",
"a  c #2B240C",
"s  c #31260D",
"d  c #2C231C",
"f  c #272316",
"g  c #32291C",
"h  c #352714",
"j  c #3C3418",
"k  c #170C22",
"l  c #1A0D24",
"z  c #1D0E28",
"x  c #1D1422",
"c  c #161E21",
"v  c #1D1F21",
"b  c #1E1129",
"n  c #191824",
"m  c #221523",
"M  c #251A24",
"N  c #23142C",
"B  c #241C2C",
"V  c #2A1B2C",
"C  c #2A1E26",
"Z  c #251333",
"A  c #281635",
"S  c #2C1A35",
"D  c #2A153A",
"F  c #2D1A3B",
"G  c #241B32",
"H  c #301E35",
"J  c #311D3D",
"K  c #301E2F",
"L  c #1A2224",
"P  c #1C2629",
"I  c #1E2A2D",
"U  c #172125",
"Y  c #1F2B31",
"T  c #232325",
"R  c #24252A",
"E  c #25292B",
"W  c #2B2B2D",
"Q  c #292528",
"!  c #342B23",
"~  c #32242C",
"^  c #392C28",
"/  c #3C322B",
"(  c #222E33",
")  c #2D2E31",
"_  c #2A2535",
"`  c #3C2B34",
"'  c #34223C",
"]  c #372538",
"[  c #233235",
"{  c #263439",
"}  c #2A353B",
"|  c #2B3A3D",
" . c #313235",
".. c #343639",
"X. c #353A3D",
"o. c #3A3A3D",
"O. c #432D16",
"+. c #433919",
"@. c #443929",
"#. c #463734",
"$. c #554927",
"%. c #554A30",
"&. c #6A5422",
"*. c #6C5628",
"=. c #715131",
"-. c #73622A",
";. c #7B6A36",
":. c #6E6338",
">. c #5E521B",
",. c #321E41",
"<. c #361744",
"1. c #352143",
"2. c #392445",
"3. c #3B2549",
"4. c #3D2A4B",
"5. c #392943",
"6. c #2D3C42",
"7. c #323E45",
"8. c #363847",
"9. c #4A1E59",
"0. c #412B44",
"q. c #422C4E",
"w. c #473745",
"e. c #442D52",
"r. c #4C2D5C",
"t. c #442755",
"y. c #453254",
"u. c #493457",
"i. c #4B365A",
"p. c #4E395D",
"a. c #4E3A55",
"s. c #523A5C",
"d. c #52295F",
"f. c #552B67",
"g. c #533463",
"h. c #533D63",
"j. c #59356C",
"k. c #59396A",
"l. c #5E3570",
"z. c #5D2274",
"x. c #682F7F",
"c. c #653879",
"v. c #632859",
"b. c #36444B",
"n. c #3E4C53",
"m. c #4E4F46",
"M. c #414A4E",
"N. c #4A494C",
"B. c #56584F",
"V. c #53564E",
"C. c #414956",
"Z. c #45545C",
"A. c #49555B",
"S. c #535154",
"D. c #5B5958",
"F. c #53494C",
"G. c #6C6654",
"H. c #74695C",
"J. c #554065",
"K. c #5B446B",
"L. c #5B476A",
"P. c #4D5863",
"I. c #535C64",
"U. c #5E4471",
"Y. c #5D5C72",
"T. c #655967",
"R. c #634474",
"E. c #644C75",
"W. c #66447A",
"Q. c #6A4A7E",
"!. c #71537C",
"~. c #695379",
"^. c #54636D",
"/. c #5D6D77",
"(. c #5F7178",
"). c #4D606A",
"_. c #6A6769",
"`. c #716F73",
"'. c #64747D",
"]. c #79777B",
"[. c #6E726E",
"{. c #81743C",
"}. c #807631",
"|. c #89782F",
" X c #857A47",
".X c #837A5B",
"XX c #864A53",
"oX c #93895B",
"OX c #8D8878",
"+X c #AD9E4C",
"@X c #72368C",
"#X c #724A89",
"$X c #75468B",
"%X c #795989",
"&X c #7B4A94",
"*X c #7D5494",
"=X c #6F4584",
"-X c #667980",
";X c #6B7D85",
":X c #667885",
">X c #7E7C80",
",X c #8A3799",
"<X c #81579A",
"1X c #824C9B",
"2X c #8A649D",
"3X c #836496",
"4X c #9656B5",
"5X c #8B4DA9",
"6X c #9769B3",
"7X c #9D73B6",
"8X c #8F63AB",
"9X c #A376B9",
"0X c #A765CA",
"qX c #AA7CC2",
"wX c #A876C7",
"eX c #B67BD9",
"rX c #AF6ED3",
"tX c #758B95",
"yX c #7A919A",
"uX c #888689",
"iX c #8299A3",
"pX c #B186C8",
"aX c #B888D6",
"sX c #AC82C4",
"dX c #C08EDE",
"fX c #C691E7",
"gX c #CB96ED",
"hX c #D8A8F8",
"jX c None",
/* pixels */
"jXjXjXjXjXjXjXjXjXjXjXjXjXjXjXjXjXe e h s e jXjXjXjXjXjXjXjXjXjXjXjXjXjXjXjXjXjXjX",
"jXjXjXjXjXjXjXjXjXjXjXjXjXjXjX@ $ a h O.O.h O.u jXjXjXjXjXjXjXjXjXjXjXjXjXjXjXjXjX",
"jXjXjXjXjXjXjXjXjXjXjXjXjXjX. $ e s h O.O.h h h jXjXjXjXjXjXjXjXjXjXjXjXjXjXjXjXjX",
"jXjXjXjXjXjXjXjXjXjXjXjXjXjX$ & e ~ M.`.`.|..X_.u jXjXjXjXjXjXjXjXjXjXjXjXjXjXjXjX",
"jXjXjXjXjXjXjXjXjXjXjXjXjXjX7 / g $.:.oXOX+XuXoXjXjXjXjXjXjXjXjXjXjXjXjXjXjXjXjXjX",
"jXjXjXjXjXjXjXjXjXjXjXjXjXjXr N.D.$.%.G.uXOXuXH.! jXjXjXjXjXjXjXjXjXjXjXjXjXjXjXjX",
"jXjXjXjXjXjXjXjXjXjXjXjXjXjX# ..V.D.F.~ #._.#.Q jXjXjXjXjXjXjXjXjXjXjXjXjXjXjXjXjX",
"jXjXjXjXjXjXjXjXjXjXjXjXjX. X q N.S.D.~.F.S.a.T.jXjXjXjXjXjXjXjXjXjXjXjXjXjXjXjXjX",
"jXjXjXjXjXjXjXjXjXjXjXjXjX  jX# Q ) S.uX`._._.>XjXjXjXjXjXjXjXjXjXjXjXjXjXjXjXjXjX",
"jXjXjXjXjXjXjXjXjXjXjXjXjXjXjX& 7 Q S.uX>XS._._.jXjXjXjXjXjXjXjXjXjXjXjXjXjXjXjXjX",
"jXjXjXjXjXjXjXjXjXjXjXjXjXjXjXe u u N.[.].I.`.D.jXjXjXjXjXjXjXjXjXjXjXjXjXjXjXjXjX",
"jXjXjXjXjXjXjXjXjXjXjXjXjXjX. @ e f ) T.`.G.uXD.jXjXjXjXjXjXjXjXjXjXjXjXjXjXjXjXjX",
"jXjXjXjXjXjXjXjXjXjXjXjXjXjXjX@ 6 W .. .D.oXG.jXjXjXjXjXjXjXjXjXjXjXjXjXjXjXjXjXjX",
"jXjXjXjXjXjXjXjXjXjXjXjXjXjXjX@ 4 E N...T v 0 jXjXjXjXjXjXjXjXjXjXjXjXjXjXjXjXjXjX",
"jXjXjXjXjXjXjXjXjXjXjX@ e t x   % 0 P E R [ P n Z +.* jXjXjXjXjXjXjXjXjXjXjXjXjXjX",
"jXjXjXjXjXjXjXjXjXjX& < m ] #.,.o % 4 c U U 5 < g q.] g jXjXjXjXjXjXjXjXjXjXjXjXjX",
"jXjXjXjXjXjXjXjXo : k ! u M q.@.1 + + + 4 4 U L x t ^ 2.2 O jXjXjXjXjXjXjXjXjXjXjX",
"jXjXjXjXjXjXjXo O O 2 S ] #.] 5.g + % 5 4 0 U 0 < r H l g +.&.jXjXjXjXjXjXjXjXjXjX",
"jXjXjXjXjXjX: 3 r r g ! ` H ~ m Z r.H < % 4 4 0 E.' 9 f M J H jXjXjXjXjXjXjXjXjXjX",
"jXjXjXjXjXo w w O : 2 l t $.2 Z N F r.=X*X6X9XpXW.3._ w r z H V jXjXjXjXjXjXjXjXjX",
"jXjXjXjXjX; X : 3 m d g @.` L Z 5.F 1.3.i.1XrX#Xy.4.' > i r t N jXjXjXjXjXjXjXjXjX",
"jXjXjXjXjXjXO 1 N ! V Z f.' P n 4.1.q.1.1.3.5Xi.4.u.' 5 I n a M jXjXjXjXjXjXjXjXjX",
"jXjXjXjXjXjX, x h Z D ,.c.O [ ( ,.4.J J.p.4.f.q.u.y.F 5 P 6.jXs < jXjXjXjXjXjXjXjX",
"jXjXjXjXjXjX1 e x F A 4.=X8 L { Z 4.4.1.u.h.p.i.u.e.1.9 L { 0 jXa jXjXjXjXjXjXjXjX",
"jXjXjXjXjXjX= & N F 1.j.k.L c I n 1.u.3.F 3.e.y.u.4.4.x 4 Y { jXjXjXjXjXjXjXjXjXjX",
"jXjXjXjXjXjXe jXZ F q.c.4.0 { ( ( A 3.p.4.1.A 4.4.p.y.x 4 0 P P jXjXjXjXjXjXjXjXjX",
"jXjXjXjXjXjXjXjXZ ,.y.4Xx 0 P [ { G ,.4.p.J.h.h.J.J.u.b 4 0 [ [ jXjXjXjXjXjXjXjXjX",
"jXjXjXjXjXjXjXjXZ 1.p.wX8 % 0 U I n ,.1.4.u.J.U.J.i.u.b + U P { [ jXjXjXjXjXjXjXjX",
"jXjXjXjXjXjXjXjXZ 3.g.eX5 + 0 I I n Z J ,.3.u.u.u.u.4.x > 4 9 _ I P jXjXjXjXjXjXjX",
"jXjXjXjXjXjXjXjXZ 3.h.fX< 5 [ { I c n D ,.,.3.e.4.4.1.2 + 6 t Q W T jXjXjXjXjXjXjX",
"jXjXjXjXjXjXjXjXZ 4.k.9X5 I I L 8 N S k D ,.,.1.1.1.,.1 + 7 s d %.^ y 7 jXjXjXjXjX",
"jXjXjXjXjXjXjXjXA 4.U.7X0 L 0 > , 2 g F.H y / 0.S ! ~ 2 j n Q g ! W 7 7 7 6 jXjXjX",
"jXjXjXjXjXjXjXjXS 4.k.9X4 0 5 + w - t N t d ] S y ` _ g #.C g f f q 7 7 7 * jXjXjX",
"jXjXjXjXjXjXjXjXD q.R.2X+ 8 % - 7 & w w w < < = r 2 w 9 t w 5 6 * + 5 7 7 + jXjXjX",
"jXjXjXjXjXjXjXjXA y.%Xi.  4 + L Q E T T f a f f w e i w # o J 2 + 6 q 5 + + jXjXjX",
"jXjXjXjXjXjXjXjXS y.2Xi.  % + 6 v R E W R R T v 0 9 1 2 : X x.S + 6 7 7 jXjXjXjXjX",
"jXjXjXjXjXjXjX1 F e.<X5.      X + + < > , , , 1 k z b 8.9 . @Xt.+ 7 q # jXjXjX).jX",
"jXjXjXjXjXjXjXk ,.u.#XB         : 6 g B k z z z N A G P./ < r.t.jX* + 5 jXjXjX^.n.",
"jXjXjXjXjXjXjX1 ,.i.*XC       : 3 N ] #.' n ,.G Z Z G ).o.^ f.y.jXo . jXjXjXjX/.n.",
"jXjXjXjXjXjXjXk ,.y.qXB     o : 2 H t.#.y.p.Z 4.i.i.5.P.;Xd ,.W.  + + jXjXjX-X/.7.",
"jXjXjXjXjXjXjXk 1.q.aXm     : : N ' #.~ 0.g.h.2.1.8.1.6.P.:XP.L.7.8.b.A.Z.I.I.8.[ ",
"jXjXjXjXjXjXjXl 1.q.sX+     : 3 Z #.^ @.J q.L.L.u.u.8.6.6.8.7.} b.H.B.7.} b.6.[ U ",
"jXjXjXjXjXjXjXb 1.y.qXO   : : 3 N ` ^ @.A 3.p.K.U.U.p.,.Y s 7 a O.,XXXjXjXjXc jXjX",
"jXjXjXjXjXjXjXz 3.h.qX<   : : < z ^ @.~ D J u.u.J.p.y._ g.y m ) @.v.=.^.jXjXjXjXjX",
"jXjXjXjXjXjXjXN 4.R.9X+ X O O 3 s m @.A ' D q.u.i.4.i.1.4._ 6.{ S.&.N.'.tXP.P jXjX",
"jXjXjXjXjXjXjXZ 4.R.sX+ O e = r N J #.r.3.F 1.y.i.i.4.4.u.n.[ Z./.*.m./.'.iXjXjXjX",
"jXjXjXjXjXjXjXA q.E.pX: : : r N 2.w.@.r.4.' 1.3.4.p.4.4.4.E.[ P.'.*.m./.tX'.jXjXjX",
"jXjXjXjXjXjXjXA q.Q.!.o O : 2 V g +.a r.1.3.F 1.3.4.,.p.4.K.I n.:X;.m.-XtXjXjXjXjX",
"jXjXjXjXjXjXjXA y.<X!.  : O 9 r V ` a r.1.y.A 1.1.1.F J.4.R.d b.;X;.m.;XyXjXjXjXjX",
"jXjXjXjXjXjXk F y.2X!.+ : : = m 5.! * f.3.y.1.F 1.1.2.h.q.R.s 6.-X;.m.tX(.jXjXjXjX",
"jXjXjXjXjXjXz ,.u.2X5.: < = 9 H h = 5 t.e.y.e.1.1.1.4.h.5.E.+ [ (.;.m.tXZ.jXjXjXjX",
"jXjXjXjXjXjXb 2.p.7X9 : # < m u d f 0 q.t.y.i.4.1.' i.p.4.#X5 ( (. Xm.tXjXjXjXjXjX",
"jXjXjXjXjXjXN 2.h.9Xt < o 1 u C W i L g.r.4.h.u.1.' p.i.4.%Xc P /.{.m.;XjXjXjXjXjX",
"jXjXjXjXjXjXZ 3.p.7X: 3 O 3 y ] h 5 L h.t.4.K.J.3.3.L.u.L.%Xn P /.{.m.'.jXjXjXjXjX",
"jXjXjXjXjXjXF e.q.qXo * # r K g 4 U I e.t.2.p.L.p.J.L.u.E.`.P Y ^.;.m.;XjXjXjXjXjX",
"jXjXjXjXjXjX,.e.y.pXO O w r ! = 5 P ( y.k.1.e.L.~.E.J.y.E.%XP Y A. Xm.tXjXjXjXjXjX",
"jXjXjXjXjXk ,.u.=X%XO O 7 t w 4 0 I [ y.R.,.4.i.L.L.i.u.K._ P I C.oXm.tXjXjXjXjXjX",
"jXjXjXjXjXb 1.y.6X3X  O 2 a % 0 L I ( y.W.J 1.y.h.i.u.y.%X_ P Y n.{.m.yXjXjXjXjXjX",
"jXjXjXjXjXZ 4.y.9XL.  $ 6 & % 0 L I ( y.#XF 1.3.y.u.u.4.2XQ P [ n. Xm.tXjXjXjXjXjX",
"jXjXjXjXjXA 3.h.aXa.  $ p + 0 0 L I [ e.1XZ 1.1.4.u.y.3.3X_ I [ b.oXm.yXjXjXjXjXjX",
"jXjXjXjXjXF 4.K.fX_     p 4 0 c U ( [ ' &XZ 1.1.1.3.4.1.2XQ E I 7..Xm.).jXjXjXjXjX",
"jXjXjXjXk 1.e.R.gX5 + X + 5 0 c P Y { R =XZ 1.1.1.1.1.1.7X_ Y Y 6. Xm.M.jXjXjXjXjX",
"jXjXjXjXb 1.u.=XhX5 X X % 4 c c P ( { R *X1.1.1.1.F 1.1.2XP I [ b.;.m.n.jXjXjXjXjX",
"jXjXjXjXA 1.p.*XpXX + X + 0 0 c I Y 6.R *Xr.1.2.F p.1.F 3XL [ I b.{.m.C.jXjXjXjXjX",
"jXjXjX1 F 1.y.7X9X. + @ X 0 0 L I [ } R &Xr.,.,.D K.1.A qXP E [ 7.}.m.M.jXjXjXjXjX",
"jXjXjXz ,.1.h.wXp.+ + w : 4 0 L I [ 6.R &X$XD ,.F E.,.,.#XP { Y b.;.m.M.jXjXjXjXjX",
"jXjXjXZ ,.4.U.aXs.+ 6 p 1 < 0 U P { 6.I g.7Xr.J K.%XF #Xs.P { [ b.-.m.Z.jXjXjXjXjX",
"jXjXjXF ,.4.U.wX] 4 0 p , x 4 0 P [ 7.[ P c.eXt.*X*X3.1XU [ | I b.-.m.A.jXjXjXjXjX",
"jXjXjX,.1.e.<XdX_ 4 T 7 - g i 5 L [ | | U 0 wX8XwX6X<X' L [ | L | -.B.X.jXjXjXjXjX",
"jXjXl ,.1.e.*XaXM 6 T T a Q E O % P ( | I + c.0XeXeX&X< P [ I % ( -.B.jXjXjXjXjXjX",
"jXjXb ,.3.4.6XqX* 0 E  .T  .W     + 0 ( P   < @X0X4X2.q 0 P >   { -.B.jXjXjXjXjXjX",
"jXjXZ 1.1.y.6XsX< 5 Q X.T ..q   X +   4 4 + + J @Xf.T W + 4   + ( -.B.jXjXjXjXjXjX",
"jXk D 1.1.e.wX%X+ 6 E 8.T X.5 + + +   o o + # < 9.x T  .E ) +   ( -.B.o jXjXjXjXjX",
"jXZ D 1.1.' fX%XO 5 E o.E ..+ + + X   + + + 5 + < 9 T ..o.Q +   ( -.B.O jXjXjXjXjX",
"jXZ ,.A ,.1.gX%X+ + f ..E ) + + + o 3       + + + q E ..8.q +   ( -.B.B jXjXjXjXjX",
"k Z ,.F ,.j.gXa.  + q ) R W + + % S 3.jXjXjXjXjXjX6 T } o.L 2   [ &.B.B jXjXjXjXjX",
"z D F f.1.j.gXu.O , 5 T W L jX  + + < jXjXjXjXjXjX4 i  .o.v jX  { &.B.V jXjXjXjXjX",
"Z D F c.t.j.eXe., jX* L Q T jXjXjXjXjXjXjXjXjXjXjX% i W  .f jXjX{ &.B.N jXjXjXjXjX",
"D D D &Xg.j.rXc.jXjX+ q R L jXjXjXjXjXjXjXjXjXjXjXjX7 E j &.jXjXb.*.B.P.jXjXjXjXjX",
"jX<.Z z.&Xl.0Xl.jXjX+ f ! jXjXjXjXjXjXjXjXjXjXjXjXjX5 P h M jXjX7.*.m.Y.jXjXjXjXjX",
"jX<.<.9.4X1X0Xl.jXjXX j $.jXjXjXjXjXjXjXjXjXjXjXjXjX5 q w b jXjX7.&.m.'.jXjXjXjXjX",
"jXjX9.A @X0X0Xl.jXjX& m #.jXjXjXjXjXjXjXjXjXjXjXjXjX* 8 & $.jXI Z.*.m.-XjXjXjXjXjX",
"jXjXjXz.@X5X0Xc.jXjX# ^ %.jXjXjXjXjXjXjXjXjXjXjXjXjX= a e d M U n.*.V.;XjXjXjXjXjX",
"jXjXjXjX@X5X4X@XjXjXw H $.jXjXjXjXjXjXjXjXjXjXjXjXjX* N h 9 ^ V [ m.'.X.jXjXjXjXjX",
"jXjXjXjXjXz.,X@XjX& - @.#.jXjXjXjXjXjXjXjXjXjXjXjX. : S f e M 0.I Z.'.jXjXjXjXjXjX",
"jXjXjXjXjXjXt.9.jX* 3 ' $.+.jXjXjXjXjXjXjXjXjXjXjXo : 1 e a 9 d ] b.C.jXjXjXjXjXjX",
"jXjXjXjXjXjXjXjXjXw r @.@.+.jXjXjXjXjXjXjXjXjXjXjXjXo o O & a , z (  .J jXjXjXjXjX",
"jXjXjXjXjXjXjXjXe 6 ' 3.$.+.jXjXjXjXjXjXjXjXjXjXjXjXjXjXjXjXjXjXo 8 o : jXjXjXjXjX",
"jXjXjXjXjXjXjXjX@ : N J ] jXjXjXjXjXjXjXjXjXjXjXjXjXjXjXjXjXjXjXjXjXjXjXjXjXjXjXjX",
"jXjXjXjXjXjXjXjXjXo : 3 < jXjXjXjXjXjXjXjXjXjXjXjXjXjXjXjXjXjXjXjXjXjXjXjXjXjXjXjX"
};
