/* XPM */
static char *result[] = {
/* columns rows colors chars-per-pixel */
"41 90 229 2 ",
"   c #050405",
".  c #0A0603",
"X  c #0C0906",
"o  c #07040A",
"O  c #0A050C",
"+  c #0B0B0B",
"@  c #130C04",
"#  c #120D0B",
"$  c #1B0E02",
"%  c #0F110E",
"&  c #1C1405",
"*  c #14110D",
"=  c #1B140B",
"-  c #1E190B",
";  c #191404",
":  c #0E0612",
">  c #0E0C12",
",  c #0F0A18",
"<  c #130B14",
"1  c #150B1C",
"2  c #190E1E",
"3  c #150B16",
"4  c #0E1212",
"5  c #121314",
"6  c #1B1512",
"7  c #1C1916",
"8  c #14151A",
"9  c #1C121B",
"0  c #141A1C",
"q  c #1C1B1B",
"w  c #231C0C",
"e  c #271A0A",
"r  c #231B13",
"t  c #21141D",
"y  c #231B1B",
"u  c #271C16",
"i  c #1D211A",
"p  c #2A2205",
"a  c #2B240C",
"s  c #31260D",
"d  c #2C231C",
"f  c #272316",
"g  c #32291C",
"h  c #352714",
"j  c #3C3418",
"k  c #170C22",
"l  c #1A0D24",
"z  c #1D0E28",
"x  c #1D1422",
"c  c #161E21",
"v  c #1D1F21",
"b  c #1E1129",
"n  c #191824",
"m  c #221523",
"M  c #251A24",
"N  c #23142C",
"B  c #241C2C",
"V  c #2A1B2C",
"C  c #2A1E26",
"Z  c #251333",
"A  c #281635",
"S  c #2C1A35",
"D  c #2A153A",
"F  c #2D1A3B",
"G  c #241B32",
"H  c #301E35",
"J  c #311D3D",
"K  c #301E2F",
"L  c #1A2224",
"P  c #1C2629",
"I  c #1E2A2D",
"U  c #172125",
"Y  c #1F2B31",
"T  c #232325",
"R  c #24252A",
"E  c #2B232D",
"W  c #25292B",
"Q  c #2B2B2D",
"!  c #292924",
"~  c #342B23",
"^  c #32242B",
"/  c #3A2D2D",
"(  c #382B23",
")  c #3C322B",
"_  c #222E33",
"`  c #2D2E31",
"'  c #2A2535",
"]  c #3C2B34",
"[  c #34223C",
"{  c #372538",
"}  c #233235",
"|  c #263439",
" . c #2A353B",
".. c #2B3A3D",
"X. c #313235",
"o. c #343639",
"O. c #353A3D",
"+. c #3A3A3D",
"@. c #432D16",
"#. c #433919",
"$. c #443929",
"%. c #473835",
"&. c #554927",
"*. c #53472D",
"=. c #6A5422",
"-. c #6C5628",
";. c #6B5234",
":. c #73622A",
">. c #7B6A36",
",. c #6E6338",
"<. c #5E521B",
"1. c #321E41",
"2. c #361744",
"3. c #352143",
"4. c #392445",
"5. c #3B2549",
"6. c #3D2A4B",
"7. c #392943",
"8. c #2D3C42",
"9. c #323E45",
"0. c #363847",
"q. c #4A1E59",
"w. c #412B44",
"e. c #422C4E",
"r. c #483847",
"t. c #442D52",
"y. c #4C2D5C",
"u. c #442755",
"i. c #453254",
"p. c #493457",
"a. c #4B365A",
"s. c #4E395D",
"d. c #4E3A55",
"f. c #523A5C",
"g. c #52295F",
"h. c #552B67",
"j. c #533463",
"k. c #533D63",
"l. c #59356C",
"z. c #59396A",
"x. c #5E3570",
"c. c #5D2274",
"v. c #653879",
"b. c #682F7F",
"n. c #632859",
"m. c #36444B",
"M. c #3E4C53",
"N. c #4E4F46",
"B. c #414A4E",
"V. c #4B4A4C",
"C. c #56584F",
"Z. c #53564E",
"A. c #454A55",
"S. c #45545C",
"D. c #49555B",
"F. c #535154",
"G. c #5A5855",
"H. c #524C4B",
"J. c #70685A",
"K. c #554065",
"L. c #5B446B",
"P. c #5B476A",
"I. c #4D5863",
"U. c #535C65",
"Y. c #5E4471",
"T. c #5D5C72",
"R. c #634474",
"E. c #644C75",
"W. c #66447A",
"Q. c #6A4A7E",
"!. c #71537C",
"~. c #685471",
"^. c #54636D",
"/. c #5D6D77",
"(. c #5F7178",
"). c #4D606A",
"_. c #676568",
"`. c #7B7668",
"'. c #64747D",
"]. c #77787B",
"[. c #696F73",
"{. c #81743C",
"}. c #807631",
"|. c #89782F",
" X c #857A47",
".X c #847A58",
"XX c #817F7F",
"oX c #864A53",
"OX c #8D8875",
"+X c #A19555",
"@X c #72368C",
"#X c #724A89",
"$X c #75468B",
"%X c #795989",
"&X c #7B4A94",
"*X c #7D5494",
"=X c #6F4584",
"-X c #667980",
";X c #6B7D85",
":X c #667885",
">X c #7E7C80",
",X c #8A3799",
"<X c #81579A",
"1X c #824C9B",
"2X c #8A649D",
"3X c #836496",
"4X c #9656B5",
"5X c #8B4DA9",
"6X c #9769B3",
"7X c #9D73B6",
"8X c #8F63AB",
"9X c #A376B9",
"0X c #A765CA",
"qX c #AA7CC2",
"wX c #A876C7",
"eX c #B67BD9",
"rX c #AF6ED3",
"tX c #758B95",
"yX c #7A919A",
"uX c #878689",
"iX c #8299A3",
"pX c #B186C8",
"aX c #B888D6",
"sX c #AC82C4",
"dX c #C08EDE",
"fX c #C691E7",
"gX c #CB96ED",
"hX c #D8A8F8",
"jX c None",
/* pixels */
"jXjXjXjXjXjXjXjXjXjXjXjXjXjXjXjXjXe u h e e jXjXjXjXjXjXjXjXjXjXjXjXjXjXjXjXjXjXjX",
"jXjXjXjXjXjXjXjXjXjXjXjXjXjXjX@ $ s h @.@.@.@.e jXjXjXjXjXjXjXjXjXjXjXjXjXjXjXjXjX",
"jXjXjXjXjXjXjXjXjXjXjXjXjXjX. $ & s s @.@.h s s jXjXjXjXjXjXjXjXjXjXjXjXjXjXjXjXjX",
"jXjXjXjXjXjXjXjXjXjXjXjXjXjX$ & u W *.[.`.|.3XJ.u jXjXjXjXjXjXjXjXjXjXjXjXjXjXjXjX",
"jXjXjXjXjXjXjXjXjXjXjXjXjXjX7 ) g *.,.OXOX+XOXOXjXjXjXjXjXjXjXjXjXjXjXjXjXjXjXjXjX",
"jXjXjXjXjXjXjXjXjXjXjXjXjXjXr V.G.&.;.`.OXOXuX`.! jXjXjXjXjXjXjXjXjXjXjXjXjXjXjXjX",
"jXjXjXjXjXjXjXjXjXjXjXjXjXjX# o.F.G.V.] %.H.%.Q jXjXjXjXjXjXjXjXjXjXjXjXjXjXjXjXjX",
"jXjXjXjXjXjXjXjXjXjXjXjXjX. X q V.F.G.~.H.F.r.T.jXjXjXjXjXjXjXjXjXjXjXjXjXjXjXjXjX",
"jXjXjXjXjXjXjXjXjXjXjXjXjX  jX# W ` F.uX[._._.>XjXjXjXjXjXjXjXjXjXjXjXjXjXjXjXjXjX",
"jXjXjXjXjXjXjXjXjXjXjXjXjXjXjX& r ! F.uX].F._._.jXjXjXjXjXjXjXjXjXjXjXjXjXjXjXjXjX",
"jXjXjXjXjXjXjXjXjXjXjXjXjXjXjXe e y V._.].3X_.F.jXjXjXjXjXjXjXjXjXjXjXjXjXjXjXjXjX",
"jXjXjXjXjXjXjXjXjXjXjXjXjXjX. @ u f Q F.U..X>XZ.jXjXjXjXjXjXjXjXjXjXjXjXjXjXjXjXjX",
"jXjXjXjXjXjXjXjXjXjXjXjXjXjXjX@ 6 Q o.X.G..XJ.jXjXjXjXjXjXjXjXjXjXjXjXjXjXjXjXjXjX",
"jXjXjXjXjXjXjXjXjXjXjXjXjXjXjXX 4 W V.o.T L 8 jXjXjXjXjXjXjXjXjXjXjXjXjXjXjXjXjXjX",
"jXjXjXjXjXjXjXjXjXjXjX@ e t m   % 0 P W W } I 8 Z #.* jXjXjXjXjXjXjXjXjXjXjXjXjXjX",
"jXjXjXjXjXjXjXjXjXjX; < m { %.1.o % 4 0 L L 4 3 g e.{ g jXjXjXjXjXjXjXjXjXjXjXjXjX",
"jXjXjXjXjXjXjXjXo : k ( u M w.%.< + + + 4 4 U L m t / 4.2 O jXjXjXjXjXjXjXjXjXjXjX",
"jXjXjXjXjXjXjXo O O 1 H w./ { 7.g + 4 4 4 c U 0 > r K l h $.=.jXjXjXjXjXjXjXjXjXjX",
"jXjXjXjXjXjX: 3 r r g g / H ^ N A y.K # + 4 4 0 E.3.x a M J J jXjXjXjXjXjXjXjXjXjX",
"jXjXjXjXjXo w w : : 2 k m &.8 Z N F y.$X<X7X9XqXW.7.S w r x K V jXjXjXjXjXjXjXjXjX",
"jXjXjXjXjX; X : 3 m d g %./ U N 3.J 3.4.a.1XrX#Xi.6.[ > i r t N jXjXjXjXjXjXjXjXjX",
"jXjXjXjXjXjXO 1 N ~ V A h.[ P b 6.3.t.3.1.5.5Xa.6.p.[ 4 W 9 f M jXjXjXjXjXjXjXjXjX",
"jXjXjXjXjXjX: m h Z F F x.+ } _ [ 6.J K.s.6.j.t.p.i.F 5 I 8.jXs < jXjXjXjXjXjXjXjX",
"jXjXjXjXjXjX3 u l F S u.=X8 U | A 6.6.3.i.k.j.p.p.i.3.8 U | 0 jXa jXjXjXjXjXjXjXjX",
"jXjXjXjXjXjX= & N F 3.l.z.L L I n 3.p.3.1.5.6.i.p.6.6.x 0 Y | jXjXjXjXjXjXjXjXjXjX",
"jXjXjXjXjXjXe jXZ F 6.v.w.c } } _ A 5.s.6.1.F 5.6.s.i.x + 0 U P jXjXjXjXjXjXjXjXjX",
"jXjXjXjXjXjXjXjXZ J i.6Xx 0 U } | G 3.6.s.K.s.k.K.k.a.x 4 0 } } jXjXjXjXjXjXjXjXjX",
"jXjXjXjXjXjXjXjXZ 3.a.rX8 4 0 L Y n 1.3.6.p.P.Y.K.s.p.x + L P | } jXjXjXjXjXjXjXjX",
"jXjXjXjXjXjXjXjXZ 5.k.eX3 + 0 I P n Z 1.1.5.i.p.p.p.6.x > 4 n ' I I jXjXjXjXjXjXjX",
"jXjXjXjXjXjXjXjXZ 5.z.dX5 4 } | I c x D 1.1.5.t.6.6.3.k + = 9 C ! T jXjXjXjXjXjXjX",
"jXjXjXjXjXjXjXjXZ 6.z.9X8 I I L 8 b F l A 1.1.3.3.3.1.1 + y s g *.) y 7 jXjXjXjXjX",
"jXjXjXjXjXjXjXjXA 6.Y.7X8 L 0 > , 9 g H.J y ) w.S / ^ 1 j n T g ~ Q 7 7 7 6 jXjXjX",
"jXjXjXjXjXjXjXjXS 6.z.9X4 0 5 + - w 9 N y y { V y ] E ~ %.C g d d q 7 7 7 5 jXjXjX",
"jXjXjXjXjXjXjXjXD e.R.2X+ 8 % - 6 - w w u < 3 6 r k r 9 y w 5 6 + + 4 7 7 + jXjXjX",
"jXjXjXjXjXjXjXjXS t.%Xa.  4 + L Q R T T f a f f w a f - + o 2.9 + 6 q 6 + # jXjXjX",
"jXjXjXjXjXjXjXjXS i.2Xa.  % + 6 f R ! Q R R T v 9 8 3 1 > o b.H + 7 7 7 jXjXjXjXjX",
"jXjXjXjXjXjXjX1 1.t.*X6.      X O + > > , , , 1 1 k b 0.8 o b.u.+ 7 q # jXjXjXU.jX",
"jXjXjXjXjXjXjXk F p.#XB         : 6 g A k l z z Z S G I.$.: g.u.jX* + 5 jXjXjX^.M.",
"jXjXjXjXjXjXjXk 1.s.*XC       : < N { %.3.n 1.G Z 1.G ).+.( h.t.jXo   jXjXjXjX/.M.",
"jXjXjXjXjXjXjX1 1.i.qXB     o : 2 H u.%.i.s.Z 6.a.6.7.I.;Xd 4.W.  + + jXjXjX-X/.9.",
"jXjXjXjXjXjXjX1 1.e.aXm     : : N [ %.( 1.f.K.4.3.6.8.8.I./.I.P.9.0.m.D.D.U.^.0._ ",
"jXjXjXjXjXjXjXz 1.i.sXO     : 3 S { / $.J t.P.Y.p.p.i.8.8.8.9. .m.J.G.9. .9. .| U ",
"jXjXjXjXjXjXjXb 3.p.qXO   : : 3 V ] ~ $.A 5.d.L.Y.Y.a.[ Y a r a @.,XoXjXjXjXc jXjX",
"jXjXjXjXjXjXjXb 7.k.qX:   , O < b / $.^ D J i.a.K.k.6.[ l.y x ` $.n.;.^.jXjXjXjXjX",
"jXjXjXjXjXjXjXN 6.R.qX+ X O O 3 s M $.F 3.F e.p.a.i.i.3.6._ m.| F.=.B.'.tXD.P jXjX",
"jXjXjXjXjXjXjXZ 6.Y.sX+ : w $ r Z J $.y.3.F 3.i.i.a.6.6.i.M._ S./.-.N.(.'.iXjXjXjX",
"jXjXjXjXjXjXjXA e.R.pXO : # r Z 3.r.$.y.4.3.3.4.i.p.5.p.6.Y.} I.'.-.H.[.tX'.jXjXjX",
"jXjXjXjXjXjXjXA t.Q.!.  : : 1 V g #.a y.3.6.F 3.3.6.1.s.6.L.I M.-X>.N.'.yXjXjXjXjX",
"jXjXjXjXjXjXjXF i.*X!.  > : 3 u V ] a y.1.i.S 1.3.3.1.k.6.R.d m.;X>.N.-XyXjXjXjXjX",
"jXjXjXjXjXjXk F i.2X!.o > O w m 4.~ * j.5.i.J 1.3.3.3.k.e.R.s 8.:X>.N.tX(.jXjXjXjX",
"jXjXjXjXjXjXz 3.p.2X7.: , $ 9 H h = 5 u.u.a.t.1.3.3.t.k.6.W.+ _ '.>.N.tXS.jXjXjXjX",
"jXjXjXjXjXjXb 3.s.7Xx : # < m u d f 0 e.t.t.a.6.3.F a.s.0.!.4 _ (. XN.tXjXjXjXjXjX",
"jXjXjXjXjXjXN 3.k.9Xt : O 1 y C Q f U j.u.6.K.i.3.[ k.a.6.%X0 I /.{.N.;XjXjXjXjXjX",
"jXjXjXjXjXjXZ 5.s.7X< < O 3 y { h 5 U k.t.6.L.K.6.6.K.p.~.!.U P /.{.N.'.jXjXjXjXjX",
"jXjXjXjXjXjXF t.e.qXo * # e ^ g % L Y t.u.5.s.Y.s.K.P.p.E.!.I Y ^.{.N.;XjXjXjXjXjX",
"jXjXjXjXjXjX1.t.t.pXo : w y ~ = 8 U } i.z.3.i.K.E.E.K.p.E.%XP Y D.{.N.tXjXjXjXjXjX",
"jXjXjXjXjXk 1.p.=X%XO O r t w 4 0 I } e.W.[ 6.s.L.K.a.p.L.E I I M. XN.tXjXjXjXjXjX",
"jXjXjXjXjXb 3.i.6X3X  o 1 a % 8 L I _ i.W.1.3.t.k.s.p.p.%XE P I m.+XN.yXjXjXjXjXjX",
"jXjXjXjXjXZ 5.i.9XP.  ; = - 4 0 L I } i.#XD 3.5.p.p.p.6.2X' I Y M. XV.yXjXjXjXjXjX",
"jXjXjXjXjXS 6.k.aXd.  ; a + 8 0 L I } i.*XD 3.3.6.p.i.7.3X' I } m..XN.yXjXjXjXjXjX",
"jXjXjXjXjXF 6.L.fX'   X p 4 0 L U _ } [ &XA 3.3.3.6.6.3.2X' I I o.OX*.).jXjXjXjXjX",
"jXjXjXjXk 3.t.R.gX6     X 4 0 L P Y } R =XA 3.3.3.1.3.3.7XW I _ ..J.Z.M.jXjXjXjXjX",
"jXjXjXjXb 3.p.=XhX8   + 4 4 0 L P _ | R #X5.3.3.3.F 3.3.2XR } I 9.}.N.M.jXjXjXjXjX",
"jXjXjXjXA 3.s.*XpXX + X % 4 8 L I } | ' *Xy.3.3.F s.3.F 3XL I } m.{.N.A.jXjXjXjXjX",
"jXjXjXk S 3.i.7X9XX + @ + 8 0 L I } | R *Xy.A 3.S L.3.D qXP Y } 8.>.*.M.jXjXjXjXjX",
"jXjXjXz 1.3.s.wXd.+ + - > 4 8 L I } 8.R &X#XA 1.F E.1.1.#XP | _ m.>.Z.M.jXjXjXjXjX",
"jXjXjXZ 1.6.Y.aXf.+ 6 p 1 > 8 L I | 8.I j.0Xy.J L.*X[ #Xf.I | } m.:.H.D.jXjXjXjXjX",
"jXjXjXF 1.6.W.wX{ 4 0 p 3 z 4 L P | ..| R v.eXu.*X#X5.*Xc } ..I m.:.N.D.jXjXjXjXjX",
"jXjXjX1.3.i.*XdXE 5 L 6 - g i 4 L _ ....P 8 wX8XrX6X<X[ U } ..U 8.:.C.O.jXjXjXjXjX",
"jXjXl 1.3.t.*XaXC 5 R ! a ! W + % L } ..I + x.0XeXeX&X< U } W 5 _ :.C.jXjXjXjXjXjX",
"jXjXb 3.3.i.6XqX< 8 ! X.T X.W o   + 0 _ U   5 @X0X4X{ y 0 P + o _ :.C.jXjXjXjXjXjX",
"jXjXA 3.3.6.6XsX< 0 Q o.T o.q   + +   4 5 X + J @Xh.T } + 4 o X } :.C.jXjXjXjXjXjX",
"jXl D 1.3.t.wX%X+ 8 ! 0.! o.5 o + +   + + + + < q.9 R X.! ` o   ` :.Z.o jXjXjXjXjX",
"jXZ 1.3.3.J fX%XO 5 ! +.W o.> + + o   o + + * > > q W X.o.Q +   _ :.Z.o jXjXjXjXjX",
"jXZ D F 1.3.gX%X  + T o.W ` o + + o <       + + + 7 W o.+.v +   | :.C.B jXjXjXjXjX",
"k A F F 1.l.gXd.  + i ` R Q + + * S 5.jXjXjXjXjXjX8 R X.0.L 9   } =.C.B jXjXjXjXjX",
"z D F j.3.l.gXa.O < 6 T W L jXX + + 3 jXjXjXjXjXjX% i X.+.L jX  | =.C.N jXjXjXjXjX",
"Z A F @X6.l.eXt.< jX5 L R T jXjXjXjXjXjXjXjXjXjXjX4 i ` X.w jXjX} =.C.B jXjXjXjXjX",
"2.D A @Xh.l.rXx.jXjX+ q R L jXjXjXjXjXjXjXjXjXjXjXjX0 ! j =.jXjXm.=.C.I.jXjXjXjXjX",
"jX2.D h.&Xx.rXx.jXjX+ f ~ jXjXjXjXjXjXjXjXjXjXjXjXjX5 T h M jXjXm.-.H.T.jXjXjXjXjX",
"jX2.2.q.4X&X0Xx.jXjXX j &.jXjXjXjXjXjXjXjXjXjXjXjXjX4 f r B jXjX9.=.N.'.jXjXjXjXjX",
"jXjXq.D @X0X0Xx.jXjX& m %.jXjXjXjXjXjXjXjXjXjXjXjXjX* 8 & $.jXI S.-.N.:XjXjXjXjXjX",
"jXjXjXc.@X5X0Xv.jXjX# ( *.jXjXjXjXjXjXjXjXjXjXjXjXjX= a e d M U M.=.Z.;XjXjXjXjXjX",
"jXjXjXjX@X5X4X=XjXjXw H &.jXjXjXjXjXjXjXjXjXjXjXjXjX* N s 9 / V  .N.(.O.jXjXjXjXjX",
"jXjXjXjXjXc.,X@XjXe = ) %.jXjXjXjXjXjXjXjXjXjXjXjXo : S d p M w.R S.'.jXjXjXjXjXjX",
"jXjXjXjXjXjXq.q.jX* 6 { &.#.jXjXjXjXjXjXjXjXjXjXjXo O 1 e a 9 M { m.A.jXjXjXjXjXjX",
"jXjXjXjXjXjXjXjXjXe r ) $.#.jXjXjXjXjXjXjXjXjXjXjXjXo o X - p < b _  .F jXjXjXjXjX",
"jXjXjXjXjXjXjXjXp 9 [ 4.*.#.jXjXjXjXjXjXjXjXjXjXjXjXjXjXjXjXjXjXo 8 O : jXjXjXjXjX",
"jXjXjXjXjXjXjXjX@ : N H { jXjXjXjXjXjXjXjXjXjXjXjXjXjXjXjXjXjXjXjXjXjXjXjXjXjXjXjX",
"jXjXjXjXjXjXjXjXjXo < 3 3 jXjXjXjXjXjXjXjXjXjXjXjXjXjXjXjXjXjXjXjXjXjXjXjXjXjXjXjX"
};
