/* XPM */
static char *twinsen_back1689731685[] = {
/* columns rows colors chars-per-pixel */
"40 90 45 1 ",
"  c None",
". c #000814",
"X c #000C1C",
"o c #280400",
"O c #340804",
"+ c #201404",
"@ c #241808",
"# c #2C1C0C",
"$ c #041828",
"% c #0C2030",
"& c #142C3C",
"* c #41140C",
"= c #4D1C10",
"- c #592818",
"; c #653424",
": c #71412C",
"> c #203849",
", c #304551",
"< c #41515D",
"1 c #556169",
"2 c #5D6971",
"3 c #65757D",
"4 c #825138",
"5 c #865D49",
"6 c #926145",
"7 c #8E6551",
"8 c #9A715D",
"9 c #A27555",
"0 c #B28665",
"q c #AE8A79",
"w c #C39A75",
"e c #C3A669",
"r c #6D7D8A",
"t c #758692",
"y c #7D929E",
"u c #BA9686",
"i c #BE9E8A",
"p c #869AAA",
"a c #C3A692",
"s c #C7AE9A",
"d c #CBB6A2",
"f c #CFBEA6",
"g c #D3C7AE",
"h c #D7CFB6",
"j c #DBD3BE",
/* pixels */
"                 q85555                 ",
"               5quuiiiii                ",
"               7quiaaaaas               ",
"               u@@@@@@ddda              ",
"               @@@@@@@@ggg              ",
"               @@@@@@@@@jjj             ",
"              8@@@@@@@@@jhh             ",
"              5@@@@@@@@@hhg             ",
"              7@@@@@@@@@hgg             ",
"               ########@fdd             ",
"               ########fdd              ",
"               ########ds               ",
"               ########aa               ",
"               ########                 ",
"               ########                 ",
"               ########                 ",
"                ######d                 ",
"                eedfghg                 ",
"             X%>,155555ee               ",
"           X$%&<1233rtypy321            ",
"          X%&>,1333333typtr211          ",
"         X%&>,<3rrrrrrrtptr322          ",
"        .$>,<12rrrrrrtttyytr33<>        ",
"      .$>,<122rttttttttttpyrrr31,       ",
"     .$,,<233rtttttyyyyyyyptttrr2,&     ",
"     >,<123rtyyyyyyyyyyypppyyyttt2<     ",
"     <1123rrtyyyyyyyppppppppppyyt31     ",
"    X<1223rttttyyyyyppppppppppppppp<    ",
"   .%,1233tttttyyyyypppppppppppppppy3   ",
"   .%,<33rrttttyyyyypppppppppppppppy2&  ",
"  .$&<133rrttttyyyypppppppppppppppyyt<  ",
"  .$&,12rrrttttyyyyyyppppppppppppppyt<  ",
"  $%><22rrrttttyyyyyyyypppppppppppyytt, ",
"  $%&123rrrrtttyyyyyyyyyppppppppppyytt< ",
" .X%&1233rrrrtttyyyyyyyyypppppppppyytt< ",
" X$&><233rrrrtttyyyyyyyyyyppppppppyttt1$",
" X$%><233rrrrttttyyyyyyyyyyypppppyyyttr2",
"X$%&,2333rrrrttttyyyyyyyyyyyyyppyyyttrr2",
".$%&,23333rrrrtttyyyyyyyyyyyyypyyyytttr<",
".$%>,23333rrrrtttyyyyyyyyyyyyyyyyyyttrrr",
".$%>,23333rrrrtttyyyyyyyyyyyyyyyyttrrr3<",
".$%>,11223rrrrttttyyyyyyyyyyyyyyttttr332",
".$%>,<<<113rrrttttyyyyyyyyyyyytttttr3221",
".$%><,,,,<2rrrrtttyyyyyyyyyyyytrrrr3221<",
".$%>,,>>>,223rrrtttyyyyytttttr33223211<,",
".$&&&&%%%%&1123rrtttttttttttt<<<<<<<<<,>",
".$%%%%%%$$$<122rrtttttttttttt,>,,,,,,,>&",
".$$$$$$ ..o<<123rrrttttttttt1&&&&>>>>>& ",
".XXX555 ..o&,<<233rttttttttt;1>&%%%&&&& ",
"  55555..Xo*=-;:469rrrrrttt4:2,>& 5$%%% ",
"  55555.XX$%&>,12rtwwww000000r2<,&55555 ",
"  55555X$$&>,<13rttyyyyyyttttt32<,55555 ",
"   555X$%%>,<12rrttyyyyyyyytttr21,55555 ",
"      .X%&><123rrttyyyyyyyyyyttr2> 555  ",
"      .X&>,<223rrtttyyyyyyyyyytr3>      ",
"      .X&,11223rrtttyyyyyyyyyyyyr,      ",
"     .X$&<112233rrttyyyyyyyyyyyy2,%     ",
"     .X$>,111223rrttyyyyyyyyyyyy2<&     ",
"     .X$$,<11223rrttpyyyyyyyyyyy<>$     ",
"     .X$$,<11223rrttypppyyyyyyyt1>$     ",
"     .X$%><112233rtyypppppyyyytt2,%     ",
"     .X$%><<11233rttyppppppyyytt2,%     ",
"     .X$%&,<<1233rrtyppppppyyyt3<,%     ",
"     .X$%&>,<<133rrtypppppyyyttr2,%     ",
"     .X$%&>,,<123rrtyppppyyytttr1,%     ",
"     .X$%&>,<<1233rtyypppyyytttr1>%     ",
"     .X$%&>,<<1233rttypppyyytttr31>     ",
"     .X$%&>,,<<223rttypppyyytttr3<>     ",
"     .X$%&>,,<<223rttypppyyytttr3<&     ",
"      .X$%>,,<12233rttpppyyyttr32<&     ",
"      .X$%>,,<12322rttyppyyyttr32,      ",
"      .X$%>,<<12222rttyyyyyyttr321      ",
"      .$%&>,<<12222rttyyyyyyttr321      ",
"      .X$%>,,<<11113rtyyyyytttr32<      ",
"      .X$%>,,<111112rtyyyyyyttr32<      ",
"      .X$%>,,<111<<2rtttyyytttr32<      ",
"      .$%&>,<<1<<<<2rtttttyyttr321      ",
"      .X$%>,<<1<<<,1rtttttttttr321      ",
"      .X$%>,<<<<,,,13rtttttttt321,      ",
"       X$%,,<<<,,,,<2rtttttttt321       ",
"       +$%>,<<,,,,><2rrttttttt32+       ",
"       +++>,,,,>>>>,1rrrrrrttt++++      ",
"       ++++,,,>>>>&,13rrrrrrrr+++       ",
"        +++++O=>&&&,<2rrrr;++++++       ",
"          +++++++++++++++++++++         ",
"          ++++++++++++++++++++          ",
"            +++++++++++++++++           ",
"             ++++++++++++++             ",
"               +++++++++++              ",
"                 ++++++                 "
};
