/* XPM */
static char *twinsen_back_up1689731685[] = {
/* columns rows colors chars-per-pixel */
"43 90 37 1 ",
"  c None",
". c #280404",
"X c #281804",
"o c #301C08",
"O c #38240C",
"+ c #041024",
"@ c #0C1430",
"# c #0C243C",
"$ c #691C14",
"% c #143049",
"& c #183C55",
"* c #184965",
"= c #1C5575",
"- c #BE553C",
"; c #9A6D55",
": c #9E7159",
"> c #A6795D",
", c #AE7D65",
"< c #B28669",
"1 c #BA8A6D",
"2 c #F7BA55",
"3 c #C39271",
"4 c #CB9A79",
"5 c #206586",
"6 c #207596",
"7 c #2486A6",
"8 c #388EB2",
"9 c #4D9ABE",
"0 c #65A6CB",
"q c #CFA682",
"w c #D7B28A",
"e c #DFC396",
"r c #E3CBA2",
"t c #EBDBAA",
"y c #82B6D7",
"u c #9EC7E3",
"i c #F7EFC3",
/* pixels */
"                    3333                   ",
"                  334qqwwe                 ",
"                ;13344qqwwee               ",
"               ;;<1134qqqwwei              ",
"              ;>,,<XXXXXqqwwet             ",
"              ;:>XXXXXXXXXwwer             ",
"              ;;:XXXXXXXXX4qwe             ",
"             ;;;XXXXXXXXXXX4qw             ",
"             ;;;XXXXXXXXXXX444             ",
"              ;;XXXXXXXXXXX111             ",
"              ;;XXXXXXXXXXX,<<             ",
"               ;XXXXXXXXXXX>,              ",
"                ;XoooooooX;;               ",
"                 XoooooooX                 ",
"                  ooooooo                  ",
"                  ooooooo                  ",
"                  ooooooo                  ",
"                  ooooooo                  ",
"                 2ooooooo  2               ",
"                %%2ooooo3222               ",
"            ##@@@@+OOOOO;6790              ",
"           @@@@@+++OOOOO&=567890           ",
"         @@@@@@+++++OOO#%&*=5689y          ",
"        +@@@@@@++++++@@@#%&*=57790y        ",
"      ++@@@@@@+++++++@@@@@#&*=56890yy      ",
"     +++@@@@+++++++++@@@@@@#&*567890yu     ",
"     +++++++++++++++@@@@@@@@%%*=678990     ",
"    +++++++++++++++@@@@@@@@@##%%*=5677     ",
"   ++++++++++++++++++@@@@@@@@@@#&**=559    ",
"   +++++++++++++++++++@@@@@@@@@@%&&*=580   ",
"  +++++++++++++++++++++@@@@@@@@@#%%&*=78   ",
"  +++++++++++++++++++++++@@@@@@@##%&&*57y  ",
"  ++++++++++++++++++++++++++++@@@@#%&*570  ",
" +++++++++++++++++++++++++++++++++@#%&5670 ",
" +++++++++++++++++++++++++++++++++@##%=570 ",
"+++++++++++++++++++++++++++++++++++@#&=569y",
"+++++++++++++++++++++++++++++++++++@#%*5679",
"++++++++++++++++++++++++++++++++++++@#&=568",
"++++++++++++++++++++++++++++++++++++@#&=557",
"+++++++++++++++++++++++++++++++++++++@%&=56",
"+++++++++++++++++++++++++++++++++++++@%&*55",
"+++++++++++++++++++++++++++++++++++++@%&==5",
"+++++++++++++++++++++++++++++++++++++@%&**=",
"++++++++++++++++++++++++++++++++++++++%&&*=",
"++++++++++++++++++++++++++++++++++++++##%&*",
"++++++++++++++++++++++++++++++++++++++++@##",
"+++++++++++++++++++++++++++++++++++++++++@#",
"+++++++++++++++++++++++++++++++++++++++++@#",
"+++++++++++.+++++++++++++++++++.00y+++++++@",
"++++;;;;+++.+++++++++++++++++++.900y;;;++++",
" ;;;;;;;+++.++++++++++++++++++.$9900;;;;;;;",
" ;;;;;;;+++...................$-8999;;;;;;;",
" ;;;;;;;++++++++...........*==6688899;;;;; ",
"       ++++++++++++++++@@##%&&==66770      ",
"       ++++++++++++++++@@###%%**55660      ",
"      +++++++++++++++++@@@###%&&=5559y     ",
"      +++++++++++++++++@@@###%%&**=890     ",
"      +++++++++++++++++@@@###%%&&**790     ",
"      +++++++++++++++++@@@###%%&***80y     ",
"      +++++++++++++++++@@@###%&&**=890     ",
"      ++++++++++++++++++@@@##%%&&*=890     ",
"      ++++++++++++++++++@@###%%&**=780     ",
"      +++++++++++++++++@@@###%%&==5789     ",
"      +++++++++++++++++@@@@###&&==6678     ",
"      +++++++++++++++++@@@@##%&*=56789     ",
"      ++++++++++++++++@@@@###%&*=56789     ",
"      ++++++++++++++++@@@@##%%**==5678     ",
"      ++++++++++++++++@@@@@##&**=55567     ",
"      ++++++++++++++++@@@@@#%%&*==5567     ",
"       +++++++++++++++@@@@##%%&*==556      ",
"       ++++++++++++++++@@@@##%&&*==56      ",
"       ++++++++++++++++@@@@##%&&**=55      ",
"       ++++++++++++++++@@@@@##%&**==5      ",
"       +++++++++++++++++@@@@##%&**==5      ",
"       +++++++++++++++++@@@@@#%%&**=5      ",
"       +++++++++++++++++@@@@@#%%&*==5      ",
"       ++++++++++++++++++@@@@@#%&**=5      ",
"       ++++++++++++++++++@@@@@#%&&*==      ",
"        ++++++++++++++++++@@@@##%&**       ",
"        o+++++++++++++++++@@@@@#%&&oX      ",
"        Xo++++++++++++++++@@@@@#%%XoX      ",
"         oX++++++++++++++++@@@@#%oXo       ",
"          o++++++++++++++++@@@@@XoX        ",
"           o++++++++++++++++@@@@oX         ",
"           ooX++++++++++++++@oXoo          ",
"           XXoXoX++++++++ooXooooX          ",
"             XooXoXXoXoXoXooXoo            ",
"              XooXXoXoXoXXoXoX             ",
"                ooXoXXoXooXoX              ",
"                    ooXoo                  "
};
