/* XPM */
static char *twinsen_up_diagonal1689731686[] = {
/* columns rows colors chars-per-pixel */
"39 90 47 1 ",
"  c None",
". c #280404",
"X c #3C0808",
"o c #281804",
"O c #301C08",
"+ c #041024",
"@ c #0C1430",
"# c #0C243C",
"$ c #511410",
"% c #691C14",
"& c #7D281C",
"* c #71592C",
"= c #143049",
"- c #183C55",
"; c #184965",
": c #1C5575",
"> c #923828",
", c #AA4530",
"< c #BE553C",
"1 c #9A753C",
"2 c #9A6D55",
"3 c #9E7159",
"4 c #A6795D",
"5 c #AE7D65",
"6 c #B28A45",
"7 c #B28669",
"8 c #BA8A6D",
"9 c #F7BA55",
"0 c #C39271",
"q c #CB9A79",
"w c #F7C76D",
"e c #206586",
"r c #207596",
"t c #7D7586",
"y c #2486A6",
"u c #388EB2",
"i c #4D9ABE",
"p c #65A6CB",
"a c #CFA682",
"s c #D7B28A",
"d c #DFC396",
"f c #F7D38A",
"g c #E3CBA2",
"h c #EBDBAA",
"j c #EFE3B6",
"k c #82B6D7",
"l c #9EC7E3",
/* pixels */
"                  oooooo               ",
"                 oooooooo              ",
"                 oooooooo              ",
"                 oooooooo              ",
"                 oooooooo              ",
"                 oooooooo              ",
"                 oooooooo              ",
"                 jhgdsaaaaqq           ",
"                 gsaqqq00008           ",
"                gs87777755557          ",
"                0754222222222          ",
"               s7542222222222          ",
"               a4332222222222          ",
"               043t;;22222;t2          ",
"                333;;t222t;t2          ",
"                333;;22222;22          ",
"                3332222222222          ",
"                2222222222222          ",
"                 22222222222           ",
"                 22222222222           ",
"                  222222222            ",
"                   gq2222              ",
"                   222222              ",
"                liu95222e9e            ",
"             lre::982222=9===          ",
"           lu::;-=9++++++@9##==        ",
"         pr;;;-=#+9+++++++9@####       ",
"       lue----=@++9+++++++9+@@##@@     ",
"      kr======@++++9+++++9+++@@@@@@    ",
"      k###@@@++++++9+++++9+++++@+++    ",
"     p;#@@@++++++++9+++++9++++++++++   ",
"     r#@@@+++++++++9+++++9++++++++++   ",
"    p;#@@@++++++++++9+++9++++++++++++  ",
"    i##@@++++++++++++9+9+++++++++++++  ",
"   i=#@@@++++++++++9999999+++++++++++  ",
"   i@@@@+++++++++++96wfw69+++++++++++  ",
"   ;@@@+++++++++++966w1*669+++++++++++ ",
"  u@@+++++++++++++96611w669+++++++++++ ",
"  e@@++++++++++++++9w666f69+++++++++++ ",
" u@++++++++++++++++9966699++++++++++++ ",
" y+++++++++++++++++++999+++++++++++++++",
" ++++++++++++++++++++++++++++++++++++++",
" ++++++++++++++++++++++++++++++++++++++",
" ++++++++++++++++++++++++++++++++++++++",
" ++++++++++++++++++++++++++++++++++++++",
" ++++++++++++++++++++++++++++++++++++++",
"-++++++++++++++++++++++++++++++++++++++",
"=++++++++++++++++++++++++++++++++++++++",
"#++++++++++++++++++++++++++++++++++++++",
"@++++++++++++++++++++++++++++++++++++++",
"+++++++++++++++++++++++++++++++++++++++",
"++++++++ u-..................     +++++",
" +++2    y@+++++++++++++++++++   2222  ",
"222222  r@@+++++++++++++++++++  222222 ",
"222222  #@@++++++++++++++++++++ 222222 ",
"222222 :##@@+++++++++++++++++++ 222222 ",
"222222;=##@@@+++++++++++++++++++222222 ",
"222222==###@@+++++++++++++++++++222222 ",
" 2222-===##@@++++++++++++++++++++2222  ",
"     ====##@@++++++++++++++++++++      ",
"     ===###@@@+++++++++++++++++++      ",
"     =####@@@@+++++++++++++++++++      ",
"     ####@@@@++++++++++++++++++++      ",
"     ###@@@++++++++++++++++++++++      ",
"    #@@@@++++++++++++++++++++++++      ",
"    @@@@+++++++++++++++++++++++++      ",
"    @@+++++++++++++++++++++++++++      ",
"    @++++++++++++++++++++++++++++      ",
"    +++++++++++++++++++++++++++++      ",
"    +++++++++++++++++++++++++++++      ",
"    +++++++++++++++++++++++++++++      ",
"    +++++++++++++++++++++++++++++      ",
"    +++++++++++++++++++++++++++++      ",
"    ++++++++++++++++++++++++++++       ",
"    ++++++++++++++++++++++++++++       ",
"    ++++++++++++++++++++++++++++       ",
"    ++++++++++++++++++++++++++++       ",
"    ++++++++++++++++++++++++++++       ",
"    ++++++++++++++++++++++++++++       ",
"    +++++++++++++++++++++++++++        ",
"    +++++++++++++++++++++++++++        ",
"    +++++++++++++++++++++++++++        ",
"    OooOO++++++++++++++++++++++        ",
"     OoO<<,>&++++++++++>&&OoOO         ",
"     oOO<,>&%OoOOoOoOo,>&%%OooO        ",
"       O%%%&%OoOoOoOoO,>&%$oOo         ",
"        oOoOOOoOOooOOo%$XXoOO          ",
"          OoOoOoOoOoOOoOooOO           ",
"            OoOOoOoOOooOo              ",
"               OoOoOo                  "
};
