/* XPM */
static char *result[] = {
/* columns rows colors chars-per-pixel */
"40 101 49 1 ",
"  c #1C0000",
". c #000814",
"X c #000C1C",
"o c #280400",
"O c #340804",
"+ c #201404",
"@ c #241808",
"# c #2C1C0C",
"$ c #041828",
"% c #0C2030",
"& c #142C3C",
"* c #4D1C10",
"= c #592818",
"- c #71412C",
"; c #203849",
": c #304551",
"> c #41515D",
", c #556169",
"< c #5D6971",
"1 c #65757D",
"2 c #825138",
"3 c #865D49",
"4 c #926145",
"5 c #8E6551",
"6 c #9A715D",
"7 c #A27555",
"8 c #A27D69",
"9 c #B28665",
"0 c #AE8A79",
"q c #C39A75",
"w c #C3A669",
"e c #6D7D8A",
"r c #758692",
"t c #7D929E",
"y c #92929E",
"u c #BA9686",
"i c #BE9E8A",
"p c #869AAA",
"a c #9EA2AA",
"s c #AAAAB6",
"d c #C3A692",
"f c #C7AE9A",
"g c #CBB6A2",
"h c #CFBEA6",
"j c #D3C7AE",
"k c #D7CFB6",
"l c #DBD3BE",
"z c #E3DBC7",
"x c None",
/* pixels */
"xxxxxxx@@@@@@xxxxxxxxxxxxxxxxxxxxxxxxxxx",
"xxxxxx@@@@@@@@xxxx35680xxxxxxxxxxxxxxxxx",
"xxxxx@@@@@@@@@@xx580uuuiuu0xxxxxxxxxxxxx",
"xxxxx@@@@@@@@@@xx5iiiidddiixxxxxxxxxxxxx",
"x####@@@@@@@@@@x60dddffffdi0xxxxxxxxxxxx",
"#####@@@@@@@@@@60udfffgggfiuxxxxxxxxxxxx",
"#####@@@@@@@@@@60idgggghkjgu0xxxxxxxxxxx",
"#####@@@@@@@@@@80idhhhhkzljfi8dxxxxxxxxx",
"#####@@@@@@@@@@60udghjlzzljgayhhxxxxxxxx",
"######@@@@@@@@68uifhjkllzzkhs;hjxxxxxxxx",
"#######@@@@@@x360idgjjklzzzksshjjxxxxxxx",
"########xxxxxxx58uifhjkklzzzlkjjjxxxxxxx",
"x######xxxxxxxx350dghhjkklzllkjjuxxxxxxx",
"xxxxxxxxxxxxxxxx350dghhjkkllkkjjxxxxxxxx",
"xxxxxxxxxxxxxxxxx350dghjjkkkkjjjxxxxxxxx",
"xxxxxxxxxxxxxxxxxxx60ifghjjjjhgxxxxxxxxx",
"xxxxxxxxxxxxxxxxxxxx60ifghhhgfxxxxxxxxxx",
"xxxxxxxxxxxxxxxxxxxx580udhfdixxxxxxxxxxx",
"xxxxxxxxxxxxxxxxxxxx80uu6xxxxxxxxxxxxxxx",
"xxxxxxxxxxxxxxxx....30i88xxxxxxxxxxxxxxx",
"xxxxxxxxxxxxxxxx....3iduuxxxxxxxxxxxxxxx",
"xxxxxxxxxxxxxxx.....Xfddiixxxxxxxxxxxxxx",
"xxxxxxxxxxxxxxx...XX;wffffwxxxxxxxxxxxxx",
"xxxxxxxxxxxxxx..XXXX:<wwhg%wxxxxxxxxxxxx",
"xxxxxxxxxxxxxx.XXXX$,<11wwexwxxxxxxxxxxx",
"xxxxxxxxxxxxx..XXX$$><eeeew;xwxxxxxxxxxx",
"xxxxxxxxxxxxx..X$$$:,1erre1wxxwxxxxxxxxx",
"xxxxxxxxxxxxx..X$$$:><erre1<wwwxxxxxxxxx",
"xxxxxxxxxxxxx..X$%;>,11tre1<,xwwxxxxxxxx",
"xxxxxxxxxxxxx..X$%;:,1etre11<xwwxxxxxxxx",
"xxxxxxxxxxxx..X$%&::><rttee1<,xwxxxxxxxx",
"xxxxxxxxxxxx..X$%&;>,1rrtre1<,xwwxxxxxxx",
"xxxxxxxxxxxx..X$%&;:,<ertre1<,:xwxxxxxxx",
"xxxxxxxxxxxx..X$%&;>,1ertre1<,>xwwxxxxxx",
"xxxxxxxxxxxx..XX$%;:,<ertre1<,>xwwxxxxxx",
"xxxxxxxxxxxx..X$%%;><1ertpre1,>;xwxxxxxx",
"xxxxxxxxxxx....X$%;>,1ertptr1<>;xwxxxxxx",
"xxxxxxxxxxx....X$%;><1ertpre<<>;xxxxxxxx",
"xxxxxxxxxxx....$%%;>,1ertpre1<>:xxxxxxxx",
"xxxxxxxxxxx....X$%;>,1ertppte<>;xxxxxxxx",
"xxxxxxxxxxx....X$%;:,1erttpte<>:xxxxxxxx",
"xxxxxxxxxxx....X$%;:,11rtpptr<>:xxxxxxxx",
"xxxxxxxxxxx.....X%;:,1erttppt<>>;xxxxxxx",
"xxxxxxxxxxx.....X%&;><ertpppr1<>;xxxxxxx",
"xxxxxxxxxxx.....X$&:,<errtppr1,:&xxxxxxx",
"xxxxxxxxxxx.....X$&;>,erttppr1,:;xxxxxxx",
"xxxxxxxxxxx.....X$&;><erttppp1,>;xxxxxxx",
"xxxxxxxxxxx.....X$&::,<ertpppe,:&xxxxxxx",
"xxxxxxxxxxxx....XXX&>,1ertpppe<>;xxxxxxx",
"xxxxxxxxxxxx....XXX%;><ertttpe1:&xxxxxxx",
"xxxxxxxxxxxx.....XX%;,1ertttte1<;:xxxxxx",
"xxxxxxxxxxxx......X%;><ertttte1<&>xxxxxx",
"xxxxxxxxxxxxx......$;><ertttte11%,xxxxxx",
"xxxxxxxxxxxxxXXXX..$&:<1errttre1<<xxxxxx",
"xxxxxxxxxxxxx.XXXX.%&:,1rrrrtree11,xxxxx",
"xxxxxxxxxxxxx.$$$XX.%;,1rrrrrrre1e<xxxxx",
"xxxxxxxxxxxxxXX$$$X.%;,1rrrrrrrre11xxxxx",
"xxxxxxxxxxxx.XX$$$XX.%;,errrrrree11,xxxx",
"xxxxxxxxxxxx.X$$Ooo .%;,11eerrrre1r<xxxx",
"xxxxxxxxxxxx.X$$%=***.%;<<1eeerrrerexxxx",
"xxxxxxxxxxxx.$$$%:<22.%;,,<1eeeere11xxxx",
"xxxxxxxxxxxx.$$%%&:<rr.%>>,<11eeeeee<xxx",
"xxxxxxxxxxxx.$$%%&><rr.%:>>,<<1eeeee1xxx",
"xxxxxxxxxxxx$%%&&&;>err.%;::>,,<1eee<xxx",
"xxxxxxxxxxxx$%%&&;;,eer.%&;;:>>,<<1e1xxx",
"xxxxxxxxxxx.%%&&&;;:1eer.%&&;::>,<<1<xxx",
"xxxxxxxxxxx.%%&&;;::<11e.$%%&;;:3tr1<xxx",
"xxxxxxxxxxx.%%&&;;:::<11eX$$%33333e1<xxx",
"xxxxxxxxxxx.%&&;;::>><<11err333333re<,xx",
"xxxxxxxxxxxX%&&;;::>>,<<1eer333333r11,xx",
"xxxxxxxxxxx.&&;;:::>>,,<11er333333r1<>xx",
"xxxxxxxxxxx.&&;;::>>,,<<1eer333333r1<>xx",
"xxxxxxxxxxx.&;;:::>>,,<11eert3333te1<,xx",
"xxxxxxxxxxx.&;;;::>>,<<11errtttpptee<,xx",
"xxxxxxxxxxx.&;;::>>,,<<1eerrttttpre1,>xx",
"xxxxxxxxxxx.%&;;:>>,,<<11errrtttpre1,,xx",
"xxxxxxxxxxx.%&;;:>,,<<<1eerrrttttpr1<>xx",
"xxxxxxxxxxx.%&;;:>>,<<11eerrrrttttr1<,xx",
"xxxxxxxxxxx.$&;;:>>,<<11eeerrrrtttr1,:xx",
"xxxxxxxxxxx.$&;;:>>,<<11eeeerrrttre<>;xx",
"xxxxxxxxxxx.$&;;:>>,<<11eeeeerrrttr1,:xx",
"xxxxxxxxxxx$%&;::>,,<<111eeerrrrtte<>;xx",
"xxxxxxxxxxx$%&;::>,,<<111eeeerrrtre<>;xx",
"xxxxxxxxxxxX%&&;::>,<<111eeeerrrrr1,>;xx",
"xxxxxxxxxxxX$&&;::>,,<111eeeerrrre<,:&xx",
"xxxxxxxxxxxX$&&;::>,,<1111eeerree1<>;&xx",
"xxxxxxxxxxxX$%&;::>,,<1111eeerree1,:;%xx",
"xxxxxxxxxx+.$%&;::>,,<1111eeeee11<>:&$+x",
"xxxxxxxxxx+.$%&;::>>,<<1111eee11<<<>;++x",
"xxxxxxxxx++.X%&;::>,,<<<111ee11<<,,:;+++",
"xxxxxxxxx+++X$;;::>>,,<<111e11<<,,>:++++",
"xxxxxxxxx++++$%;::>>,<<<1111<<,,,>>;+++x",
"xxxxxxxxx++++%&;;:>>,,<<1111<<,,>>:++++x",
"xxxxxxxxxx++++&;::>>,,<<<1<<,,>>>::+++xx",
"xxxxxxxxxx+++++;;::>>,<<1<<,,>>::;-++xxx",
"xxxxxxxxxxx++++++++>>,<<<<,,>99999+++xxx",
"xxxxxxxxxxxx+++++++++24447779999qq+xxxxx",
"xxxxxxxxxxxxxx++++++++++++++++++++xxxxxx",
"xxxxxxxxxxxxxxxxx++++++++++++++++xxxxxxx",
"xxxxxxxxxxxxxxxxxxx+++++++++++xxxxxxxxxx",
"xxxxxxxxxxxxxxxxxxxxxxx++++++xxxxxxxxxxx"
};
