/* XPM */
static char *result[] = {
/* columns rows colors chars-per-pixel */
"46 103 46 1 ",
"  c #1C0000",
". c #000814",
"X c #000C1C",
"o c #280400",
"O c #340804",
"+ c #201404",
"@ c #241808",
"# c #2C1C0C",
"$ c #041828",
"% c #0C2030",
"& c #142C3C",
"* c #41140C",
"= c #4D1C10",
"- c #592818",
"; c #653424",
": c #71412C",
"> c #203849",
", c #304551",
"< c #41515D",
"1 c #556169",
"2 c #5D6971",
"3 c #65757D",
"4 c #825138",
"5 c #865D49",
"6 c #926145",
"7 c #8E6551",
"8 c #9A715D",
"9 c #A27555",
"0 c #B28665",
"q c #AE8A79",
"w c #C39A75",
"e c #C3A669",
"r c #6D7D8A",
"t c #758692",
"y c #7D929E",
"u c #BA9686",
"i c #BE9E8A",
"p c #869AAA",
"a c #C3A692",
"s c #C7AE9A",
"d c #CBB6A2",
"f c #CFBEA6",
"g c #D3C7AE",
"h c #D7CFB6",
"j c #DBD3BE",
"k c None",
/* pixels */
"kkkkkkkkkkkkkkkkkkkkq85555kkkkkkkkkkkkkkkkkkkk",
"kkkkkkkkkkkkkkkkkk5quuiiiiikkkkkkkkkkkkkkkkkkk",
"kkkkkkkkkkkkkkkkkk7quiaaaaasskkkkkkkkkkkkkkkkk",
"kkkkkkkkkkkkkkkkk5u@@@@@@ddddakkkkkkkkkkkkkkkk",
"kkkkkkkkkkkkkkkkkq@@@@@@@@ggggkkkkkkkkkkkkkkkk",
"kkkkkkkkkkkkkkkkk@@@@@@@@@@jjjjkkkkkkkkkkkkkkk",
"kkkkkkkkkkkkkkkkk@@@@@@@@@@jjjhkkkkkkkkkkkkkkk",
"kkkkkkkkkkkkkkkk8@@@@@@@@@@jhhhkkkkkkkkkkkkkkk",
"kkkkkkkkkkkkkkkk5@@@@@@@@@@hhhgkkkkkkkkkkkkkkk",
"kkkkkkkkkkkkkkkk7@@@@@@@@@@hgggkkkkkkkkkkkkkkk",
"kkkkkkkkkkkkkkkk5@@######@@ggffkkkkkkkkkkkkkkk",
"kkkkkkkkkkkkkkkkk@########@ffddkkkkkkkkkkkkkkk",
"kkkkkkkkkkkkkkkkk7########fdddkkkkkkkkkkkkkkkk",
"kkkkkkkkkkkkkkkkkk########dsskkkkkkkkkkkkkkkkk",
"kkkkkkkkkkkkkkkkkk########aakkkkkkkkkkkkkkkkkk",
"kkkkkkkkkkkkkkkkkk########kkkkkkkkkkkkkkkkkkkk",
"kkkkkkkkkkkkkkkkkk########kkkkkkkkkkkkkkkkkkkk",
"kkkkkkkkkkkkkkkkkk########kkkkkkkkkkkkkkkkkkkk",
"kkkkkkkkkkkkkkkkkkk######dkkkkkkkkkkkkkkkkkkkk",
"kkkkkkkkkkkkkkkkkkkkkkkkhkkkkkkkkkkkkkkkkkkkkk",
"kkkkkkkkkkkkkkkkkkkeedfghgkkkkkkkkkkkkkkkkkkkk",
"kkkkkkkkkkkkkkkX%&>,155555eeekkkkkkkkkkkkkkkkk",
"kkkkkkkkkkkkkX$%&,<1233rtypyt321kkkkkkkkkkkkkk",
"kkkkkkkkkkkkX%&>,<1333333typytr211kkkkkkkkkkkk",
"kkkkkkkkkkX%%&>,<23rrrrrrrtpytr3221kkkkkkkkkkk",
"kkkkkkkkk.$&>,<123rrrrrrtttypytr332<>kkkkkkkkk",
"kkkkkkk.$>,,<122rtttttttttttppyrrr331,kkkkkkkk",
"kkkkkk.$,,<1233rttttttyyyyyyyyptttrrr2,&kkkkkk",
"kkkkkk>,<1223rtyyyyyyyyyyyyppppyyytttt2<%kkkkk",
"kkkkk.<11233rrtyyyyyyyypppppppppppyyyt311kkkkk",
"kkkk.&<1223rrtttyyyyyyypppppppppppppppyr<,kkkk",
"kkkkX><1223rrttttyyyyyypppppppppppppppppr<kkkk",
"kkk.$&,1233rtttttyyyyyypppppppppppppppppp1>kkk",
"kkk.%>,1233rtttttyyyyyypppppppppppppppppyy3kkk",
"kkk.%&,<33rrrtttttyyyyypppppppppppppppppyy2&kk",
"kk.$&><133rrrtttttyyyypppppppppppppppppyyyt<kk",
"kk.$&>,12rrrrtttttyyyyyyppppppppppppppppyyt<kk",
"kk$%>,<22rrrrtttttyyyyyyyypppppppppppppyyytt,k",
"kk$%&,123rrrrrttttyyyyyyyyyppppppppppppyyytt<k",
"k.X%&,1233rrrrrttttyyyyyyyyypppppppppppyyytt<k",
"kX$&>,<233rrrrrttttyyyyyyyyyyypppppppppyyttt1$",
"kX$%>,<233rrrrrtttttyyyyyyyyyyyyppppppyyyyttr2",
"X$%&,<2333rrrrrtttttyyyyyyyyyyyyyypppyyytttrr2",
".$%&,<23333rrrrrttttyyyyyyyyyyyyyyppyyyyytttr<",
".$%>,<23333rrrrrttttyyyyyyyyyyyyyyyyyyyytttrrr",
".$%>,1233333rrrrttttyyyyyyyyyyyyyyyyyyytttrrr2",
".$%>,1233333rrrrttttyyyyyyyyyyyyyyyyyytttrrr3<",
".$%>,1112233rrrrtttttyyyyyyyyyyyyyyyytttttr332",
".$%>,<<<<1133rrrtttttyyyyyyyyyyyyyytttttrr3221",
".$%><,,,,,<12rrrrttttyyyyyyyyyyyyyttrrrrr3221<",
".$%>,,,>>>,,223rrrrtttyyyyyttttttr3332233211<,",
".$%>>>>&&&&>1233rrrtttttttttttttt2211111111<,,",
".$&&&&&%%%%%&1123rrrttttttttttttt<<<<<<<<<<<,>",
".$%%%%%%%$$$$<1223rrttttttttttttt,>>,,,,,,,,>&",
".$$$$$$$k..Xo<<1233rrrtttttttttt1&&&&&>>>>>>&k",
".XXX5555k..Xo&,<<1233rtttttttttt;1<>&%%%&&&&&k",
"kk555555..XXo*=-;::469rrrrrtttt4:21,>&k55$%%%k",
"kk555555..XX O*=;:469900000000996321,>%555555k",
"kk555555.XX$$%&>,<12rtwwww0000000r32<,&555555k",
"kk555555X$$%&>,<123rttyyyyyyttttttt32<,555555k",
"kkk5555X$%%&>,<123rrttyyyyyyyyyttttr21,555555k",
"kkkkkkk.X%&&><1233rrttyyyyyyyyyyytttr2>k5555kk",
"kkkkkkk.X&>>,<2233rrtttyyyyyyyyyyyytr3>kkkkkkk",
"kkkkkkk.X&,<112233rrtttyyyyyyyyyyyyyyr,kkkkkkk",
"kkkkkk.X$&<<1122333rrttyyyyyyyyyyyyyy2,%kkkkkk",
"kkkkkk.X$>,<1112233rrttyyyyyyyyyyyyyy2<&kkkkkk",
"kkkkkk.X$$,<<112233rrttpyyyyyyyyyyyyy<>$kkkkkk",
"kkkkkk.X$$,,<112233rrttypppyyyyyyyyyt1>$kkkkkk",
"kkkkkk.X$%>,<1122233rtyyppppppyyyyytt2,%kkkkkk",
"kkkkkk.X$%>,<<112233rttypppppppyyyytt2,%kkkkkk",
"kkkkkk.X$%>,,<112233rrtyppppppppyyytt3<%kkkkkk",
"kkkkkk.X$%&>,<<12333rrtypppppppyyytt3<,%kkkkkk",
"kkkkkk.X$%&>,,<11233rrtyppppppyyyyttr2,%kkkkkk",
"kkkkkk.X$%&>>,<<1233rrtyppppppyyytttr2,%kkkkkk",
"kkkkkk.X$%&>>,,<1123rrtypppppyyyttttr1,%kkkkkk",
"kkkkkk.X$%&>>,<<11233rtyypppyyyyttttr1>%kkkkkk",
"kkkkkk.X$%&>>,<<12233rttypppyyyyttttr31>kkkkkk",
"kkkkkk.X$%&&>,,<<1223rttyppppyyyttttr3<>kkkkkk",
"kkkkkk.X$%&&>,,<<1223rttypppyyyyttttr3<&kkkkkk",
"kkkkkkk.X$%&>,,<112233rttppppyyytttr32<&kkkkkk",
"kkkkkkk.X$%>>,,<112322rttyppyyyytttr32,kkkkkkk",
"kkkkkkk.X$%>>,<<112222rttyyyyyyytttr321kkkkkkk",
"kkkkkkk.$%&>>,<<122222rttyyyyyyytttr321kkkkkkk",
"kkkkkkk.X$&>>,<<122211rttyyyyyyytttr321kkkkkkk",
"kkkkkkk.X$%&>,,<<211113rtyyyyyyttttr32<kkkkkkk",
"kkkkkkk.X$%&>,,<1111112rtyyyyyyytttr32<kkkkkkk",
"kkkkkkk.X$%&>,,<1111<<2rtttyyyyttttr32<kkkkkkk",
"kkkkkkk.$%&>>,<<11<<<<2rttttttyytttr321kkkkkkk",
"kkkkkkk.X$%&>,<<1<<<<,1rtttttttttttr321kkkkkkk",
"kkkkkkk.X$%&>,<<<<<,,,13rtttttttttr321,kkkkkkk",
"kkkkkkkkX$%&,,<<<<,,,,<2rtttttttttr321kkkkkkkk",
"kkkkkkkk+$%&>,<<,,,,,><2rrttttttttr32+kkkkkkkk",
"kkkkkkkk+++&>,<,,,,>>><2rrrrttttttr3+++kkkkkkk",
"kkkkkkkk++++>,,,,>>>>>,1rrrrrrrtttt++++kkkkkkk",
"kkkkkkkk+++++,,,>>>>>&,13rrrrrrrrr++++kkkkkkkk",
"kkkkkkkkk++++++O=>>&&&,<2rrrrr;+++++++kkkkkkkk",
"kkkkkkkkkk+++++++++++&><2++++++++++++kkkkkkkkk",
"kkkkkkkkkkk+++++++++++++++++++++++++kkkkkkkkkk",
"kkkkkkkkkkkk+++++++++++++++++++++++kkkkkkkkkkk",
"kkkkkkkkkkkkkk+++++++++++++++++++kkkkkkkkkkkkk",
"kkkkkkkkkkkkkkk++++++++++++++++kkkkkkkkkkkkkkk",
"kkkkkkkkkkkkkkkkk+++++++++++++kkkkkkkkkkkkkkkk",
"kkkkkkkkkkkkkkkkkkkk++++++kkkkkkkkkkkkkkkkkkkk"
};
