/* XPM */
static char *twinsen_diagonal_front1689731686[] = {
/* columns rows colors chars-per-pixel */
"31 90 46 1 ",
"  c None",
". c #280404",
"X c #3C0808",
"o c #281804",
"O c #301C08",
"+ c #38240C",
"@ c #041024",
"# c #0C1430",
"$ c #0C243C",
"% c #511410",
"& c #691C14",
"* c #7D281C",
"= c #71592C",
"- c #143049",
"; c #183C55",
": c #184965",
"> c #1C5575",
", c #AA4530",
"< c #BE553C",
"1 c #9A753C",
"2 c #9A6D55",
"3 c #9E7159",
"4 c #A6795D",
"5 c #AE7D65",
"6 c #B28A45",
"7 c #B28669",
"8 c #BA8A6D",
"9 c #F7BA55",
"0 c #C39271",
"q c #CB9A79",
"w c #F7C76D",
"e c #206586",
"r c #207596",
"t c #7D7586",
"y c #2486A6",
"u c #388EB2",
"i c #4D9ABE",
"p c #65A6CB",
"a c #CFA682",
"s c #D7B28A",
"d c #DFC396",
"f c #F7D38A",
"g c #E3CBA2",
"h c #EBDBAA",
"j c #82B6D7",
"k c #9EC7E3",
/* pixels */
"     ooooo                     ",
"  OOooooooo                    ",
" OOOooooooo                    ",
" OOOooooooo                    ",
"+OOOooooooo                    ",
"+OOOooooooo dsa                ",
"+OOOoooooogdsaa052             ",
"++OOooooogdsaqq7522            ",
"++++ ooogdaq07743222           ",
"        saq87422222t           ",
"        aq07542222tt:          ",
"        q0874322222t2          ",
"        q875432:t2222          ",
"        0875332tt2222          ",
"         774333222222          ",
"         753333222222          ",
"          42222222222          ",
"            222222222          ",
"             2222222           ",
"            07422222           ",
"            sq7e:;             ",
"           9ha729--$           ",
"           9i722#9$$##@        ",
"        pye>9;2@@@9@#@@        ",
"       jr>:;-#@@@@9@@@@@       ",
"      jie:;-#9@@@@9@@@@@@      ",
"     kiy>:;-#@9@@@@9@@@@@      ",
"    jir;;--#@@@@@@@9@@@@@@     ",
"    pe;--$#@@@@9@@9@@@@@@@     ",
"   jy>-$$##@@@@@999@@@@@@@@    ",
"   r:$$##@@@@@@@@@999@@@@@@    ",
"   y:###@@@@@@@@@96w69@@@@@@   ",
"  pu:###@@@@@@@@9w=w69@@@@@@   ",
"  ur:###@@@@@@@@9w6w=9@@@@@@   ",
" ur>###@@@@@@@@@96w169@@@@@@@  ",
" re:###@@@@@@@@@9666f9@@@@@@@  ",
" r>:-##@@@@@@@@@966w6@@@@@@@@  ",
" r>-###@@@@@@@@@@9999@@@@@@@@  ",
" e;$###@@@@@@@@@@@@@@@@@@@@@@@ ",
" r:-##@@@@@@@@@@@@@@@@@@@@@@@@ ",
"i>;-##@@@@@@@@@@@@@@@@@@@@@@@@ ",
"ye:-#@@@@@@@@@@@@@@@@@@@@@@@@@ ",
"r>:-#@@@@@@@@@@@@@@@@@@@@@@@@@@",
"y>-@@@@@@@@@@@@@@@@@@@@@@@@@@@@",
"e:-@@@@@@@@@@@@@@@@@@@@.       ",
"e;$@@@@@@@@@@@@@@@@@@@..22222  ",
"r:$@@@@@@@@@@@@@@@@@@..@22222  ",
"r:$@@@@@@@@@@@@@@@@...@@@2222  ",
"ee$@@@@@@@@@@@@@@....@@@@2222  ",
">>:$@@@@@@@@@@@....@@@@@@2222  ",
"::>$@@@@@@@@@@...@@@@@@@@@22   ",
";::$@@@@@@@@@...@@@@@@@@@@     ",
"-;;;@@@@@@@@$#@@@@@@@@@@@@     ",
"----$@@@@@@-$#@@@@@@@@@@@@     ",
"$$$--@@@@@-$#@@@@@@@@@@@@@     ",
"##$$$@@@@:;-$#@@@@@@@@@@@@     ",
"@@####@@:;-$##@@@@@@@@@@@@     ",
"   @@#@@:;-$###@@@@@@@@@@@@    ",
"   22222;-$####@@@@@@@@@@@@    ",
"   22222;--$###@@@@@@@@@@@@    ",
"   22222;-$$####@@@@@@@@@@@    ",
"   22222;-$$$###@@@@@@@@@@@    ",
"   22222:-$$$$##@@@@@@@@@@@    ",
"     ure;$$$###@@@@@@@@@@@@    ",
"     ure-$$###@@@@@@@@@@@@@    ",
"     ye>-$$###@@@@@@@@@@@@@    ",
"     yr>-$###@@@@@@@@@@@@@@    ",
"    uye>-###@@@@@@@@@@@@@@@    ",
"    ure:$##@@@@@@@@@@@@@@@@    ",
"    yr>:$#@@@@@@@@@@@@@@@@@    ",
"    ye>:$@@@@@@@@@@@@@@@@@@    ",
"    re>;$@@@@@@@@@@@@@@@@@@    ",
"    re:;#@@@@@@@@@@@@@@@@@@    ",
"    e>;-@@@@@@@@@@@@@@@@@@@    ",
"   ue>:-#@@@@@@@@@@@@@@@@@     ",
"   ye:;$#@@@@@@@@@@@@@@@@@     ",
"   r>:;-#@@@@@@@@@@@@@@@@@     ",
"   r>:-$#@@@@@@@@@@@@@@@@o     ",
"   e:;$$#@@@@@@@@@@@@@@@@o     ",
"    :;-$##@@@@@@@@@@@@@Xoo     ",
"    :--$##@@@@@@@@@@@@@oo      ",
"   oo--$##@@@@@@@@@@ooooo      ",
"   oooo$##@@@@@@@oooooooo      ",
"   oooooo#@@@@,*&%oooooo       ",
"   ooooooooo<<,*%Xoooooo       ",
"    ooooooooo*,XX.ooooo        ",
"    oooooooooooooooooo         ",
"     oooooooooooooo            ",
"      oooooooooooo             ",
"        oooooo                 "
};
