/* XPM */
static char *result[] = {
/* columns rows colors chars-per-pixel */
"32 90 179 2 ",
"   c #1F070C",
".  c #1D080E",
"X  c #1D160F",
"o  c #0B0D1D",
"O  c #0D121C",
"+  c #191512",
"@  c #151519",
"#  c #260506",
"$  c #280404",
"%  c #22060A",
"&  c #2E0805",
"*  c #2C1405",
"=  c #281804",
"-  c #231A0F",
";  c #301C08",
":  c #381809",
">  c #221D14",
",  c #2E1216",
"<  c #37161A",
"1  c #34200A",
"2  c #38240C",
"3  c #070F22",
"4  c #090F21",
"5  c #041024",
"6  c #0B1425",
"7  c #071229",
"8  c #09132C",
"9  c #07192E",
"0  c #12192A",
"q  c #161A25",
"w  c #0C1430",
"e  c #0C1B35",
"r  c #0D1F38",
"t  c #121E37",
"y  c #1D212B",
"u  c #0B2037",
"i  c #0D233B",
"p  c #11253F",
"a  c #162533",
"s  c #2B2B2C",
"d  c #39352F",
"f  c #37342E",
"g  c #3F3A30",
"h  c #410E0A",
"j  c #52130F",
"k  c #591611",
"l  c #4A240F",
"z  c #532913",
"x  c #73251B",
"c  c #401C20",
"v  c #4B2525",
"b  c #5C302B",
"n  c #463E32",
"m  c #4C3D3D",
"M  c #562E25",
"N  c #6E3732",
"B  c #4C4232",
"V  c #5D4D33",
"C  c #574A35",
"Z  c #644936",
"A  c #64533B",
"S  c #0F2740",
"D  c #0F2941",
"F  c #122C45",
"G  c #122F48",
"H  c #15334C",
"J  c #1A394B",
"K  c #143750",
"L  c #163A54",
"P  c #183B54",
"I  c #163E58",
"U  c #263D4D",
"Y  c #17415D",
"T  c #18425C",
"R  c #20455D",
"E  c #174561",
"W  c #184662",
"Q  c #1A4A66",
"!  c #1A4E6C",
"~  c #1B506E",
"^  c #1C5473",
"/  c #1E5D7D",
"(  c #1D5778",
")  c #365161",
"_  c #205875",
"`  c #514D4F",
"'  c #555355",
"]  c #54595B",
"[  c #5C5655",
"{  c #664D44",
"}  c #755649",
"|  c #665E5B",
" . c #5B686E",
".. c #686B73",
"X. c #8F3727",
"o. c #A44430",
"O. c #A8442F",
"+. c #81683D",
"@. c #83604D",
"#. c #8D7142",
"$. c #947541",
"%. c #997C49",
"&. c #9A6D55",
"*. c #946D5A",
"=. c #9E7159",
"-. c #9D7057",
";. c #8C6957",
":. c #A27E45",
">. c #A1745B",
",. c #A6795E",
"<. c #A87B5F",
"1. c #916F64",
"2. c #82737C",
"3. c #AC7D63",
"4. c #90845A",
"5. c #AB8645",
"6. c #B38B47",
"7. c #B08741",
"8. c #BE934B",
"9. c #BC9045",
"0. c #BD9652",
"q. c #AF8165",
"w. c #B4866A",
"e. c #B58A6A",
"r. c #BB8C6D",
"t. c #B08067",
"y. c #BC8E70",
"u. c #AE9671",
"i. c #B79677",
"p. c #B3A874",
"a. c #C2954A",
"s. c #CD9D4D",
"d. c #D5A24E",
"f. c #CAA359",
"g. c #D9A957",
"h. c #ECB658",
"j. c #F2B654",
"k. c #F6BA56",
"l. c #C39373",
"z. c #CB9C7B",
"x. c #C89776",
"c. c #DFB260",
"v. c #CEA27E",
"b. c #E8BA67",
"n. c #1F5F80",
"m. c #1F6384",
"M. c #1F6E8E",
"N. c #1F6F90",
"B. c #216C8D",
"V. c #216787",
"C. c #296F90",
"Z. c #227394",
"A. c #237A9B",
"S. c #267A9B",
"D. c #237FA0",
"F. c #7F7583",
"G. c #807480",
"H. c #2481A1",
"J. c #2D84A6",
"K. c #3583A4",
"L. c #3489AC",
"P. c #3D91B4",
"I. c #4F8890",
"U. c #448CAE",
"Y. c #4494B7",
"T. c #5094B4",
"R. c #559DC2",
"E. c #5FA3C6",
"W. c #6DAACC",
"Q. c #7FB6D5",
"!. c #9BB2A2",
"~. c #C6A983",
"^. c #D1A883",
"/. c #D5AF88",
"(. c #D1A782",
"). c #DCBC92",
"_. c #D9B68D",
"`. c #E6C893",
"'. c None",
/* pixels */
"'.'.'.'.'.'.'.'.'.'.'.'.'.'.'.'.'.'.'.'.'.'.= = = = = '.'.'.'.'.",
"'.'.'.'.'.'.'.'.'.'.'.'.'.'.'.'.'.'.'.'.'.= = = = = = = ; ; '.'.",
"'.'.'.'.'.'.'.'.'.'.'.'.'.'.'.'.'.'.'.'.'.= = = = = = = ; ; ; '.",
"'.'.'.'.'.'.'.'.'.'.'.'.'.'.'.'.'.'.'.'.'.= = = = = = = = ; ; '.",
"'.'.'.'.'.'.'.'.'.'.'.'.'.'.'.'.'.'.'.'.'.= = = = = = = = = ; 2 ",
"'.'.'.'.'.'.'.'.'.'.'.'.'.'.'.'.'.(./.).u.V = = = = = = ; ; ; 2 ",
"'.'.'.'.'.'.'.'.'.'.'.'.'.&.3.r.l.v.(./.).~.V = = = = = ; ; 1 2 ",
"'.'.'.'.'.'.'.'.'.'.'.'.&.&.>.3.q.y.y.z.^._.~.A = = = = 1 1 2 2 ",
"'.'.'.'.'.'.'.'.'.'.'.&.&.&.&.>.-.>.3.r.x.^.).i.'.'.'.'.'.'.'.'.",
"'.'.'.'.'.'.'.'.'.'.'.2.1.&.&.&.&.&.3.w.l.z./._.'.'.'.'.'.'.'.'.",
"'.'.'.'.'.'.'.'.'.'.Q ..2.*.&.&.&.&.3.3.e.l.(.(.'.'.'.'.'.'.'.'.",
"'.'.'.'.'.'.'.'.'.'.;.2.1.&.&.&.&.&.-.3.w.l.l.z.'.'.'.'.'.'.'.'.",
"'.'.'.'.'.'.'.'.'.'.&.&.&.&.G.Q F.&.=.3.3.w.l.z.'.'.'.'.'.'.'.'.",
"'.'.'.'.'.'.'.'.'.'.&.&.&.&.G.G.F.-.-.>.3.w.r.l.'.'.'.'.'.'.'.'.",
"'.'.'.'.'.'.'.'.'.'.&.&.&.&.&.&.&.-.-.>.3.w.w.'.'.'.'.'.'.'.'.'.",
"'.'.'.'.'.'.'.'.'.'.&.&.&.&.&.&.&.-.-.>.>.3.'.'.'.'.'.'.'.'.'.'.",
"'.'.'.'.'.'.'.'.'.'.&.&.&.&.&.&.&.&.&.&.-.'.'.'.'.'.'.'.'.'.'.'.",
"'.'.'.'.'.'.'.'.'.'.'.&.&.&.&.&.&.&.&.'.'.'.'.'.'.'.'.'.'.'.'.'.",
"'.'.'.'.'.'.'.'.'.'.'.&.&.&.&.&.&.>.<.'.'.'.'.'.'.'.'.'.'.'.'.'.",
"'.'.'.'.'.'.'.'.'.'.'.'.'.[ ]  .&.q.l.v.'.'.'.'.'.'.'.'.'.'.'.'.",
"'.'.'.'.'.'.'.'.'.'.'.'.F H 4...*.e.^.`.'.'.'.'.'.'.'.'.'.'.'.'.",
"'.'.'.'.'.'.'.'.'.8 w i i %.A *.&.,.i.!.k.'.'.'.'.'.'.'.'.'.'.'.",
"'.'.'.'.'.'.'.'.5 8 w u r d.@.&.&.-.e.p.I.P.'.'.'.'.'.'.'.'.'.'.",
"'.'.'.'.'.'.'.'.5 3 w 8 :.n y y &.;.] f./ S.Y.'.'.'.'.'.'.'.'.'.",
"'.'.'.'.'.'.'.5 5 5 5 5 a.s 5 5 0 0 t U T ! V.J.W.'.'.'.'.'.'.'.",
"'.'.'.'.'.'.5 5 5 5 5 5 a.s 5 5 5 y s.r H T ^ B.L.W.'.'.'.'.'.'.",
"'.'.'.'.'.'.5 5 5 5 5 6.d 5 5 5 q d.5 e H I ! ^ M.P.Q.'.'.'.'.'.",
"'.'.'.'.'.5 5 5 5 5 3 6.f 5 5 5 j.5 5 5 r H T W E C.R.'.'.'.'.'.",
"'.'.'.'.'.5 5 5 5 5 5 #.C 6 5 f 8.5 5 7 e F H K K ^ K.W.'.'.'.'.",
"'.'.'.'.'.5 5 5 5 5 5 5 a.A B 7.5 5 5 5 3 e S F F H ^ U.'.'.'.'.",
"'.'.'.'.5 5 5 5 5 3 g A d.7.%.5 5 5 5 5 5 8 w r r p I / T.'.'.'.",
"'.'.'.5 5 5 5 5 5 n 6.h.g.+.q 3 5 5 5 5 5 5 7 8 8 e r I Z.'.'.'.",
"'.'.'.5 5 5 5 5 3 $.a.b.5.h.$.7 5 5 5 5 5 5 5 5 w w w L S.E.'.'.",
"'.'.'.5 5 5 5 5 3 $.7.c.5.b.k.6 5 5 5 5 5 5 5 5 8 w w L Z.Y.'.'.",
"'.'.5 5 5 5 5 5 5 #.8.6.g.f.j.6 5 5 5 5 5 5 5 5 3 w w r ^ S.L.'.",
"'.'.5 5 5 5 5 5 5 $.b.0.8.6.j.6 5 5 5 5 5 5 5 5 3 8 w e I m.S.'.",
"'.'.5 5 5 5 5 5 5 y #.c.8.6.j.6 5 5 5 5 5 5 5 5 3 8 w S T ^ Z.'.",
"'.'.5 5 5 5 5 5 5 5 5.j.j.h.s 3 5 5 5 5 5 5 5 5 3 8 w w G ~ Z.'.",
"'.5 5 5 5 5 5 3 5 5 5 5 5 5 5 5 5 5 5 5 5 5 5 5 3 8 w w r K m.'.",
"'.5 5 5 5 5 5 5 5 5 5 5 5 5 5 5 5 5 5 5 5 5 5 5 5 3 8 w F E N.'.",
"'.5 5 5 5 5 5 5 5 5 5 5 5 5 5 5 5 5 5 5 5 5 5 5 5 5 6 w D I ^ Y.",
"'.5 5 5 5 5 5 5 5 5 3 5 5 5 5 5 5 5 5 5 5 5 5 5 5 5 5 w F E n.H.",
"5 5 5 5 5 5 5 5 5 5 5 5 5 5 5 5 5 5 5 5 5 3 5 5 5 5 5 7 i I ^ A.",
"5 5 5 5 5 5 o o 5 5 5 5 5 5 5 5 5 5 5 5 5 5 5 5 5 5 5 5 3 F ! Z.",
"'.'.'.'.'.'.M   o 3 3 5 5 5 5 5 5 5 5 5 5 5 5 5 5 5 5 5 5 i Y M.",
"'.'.-.&.&.&.Z $   o 3 3 3 5 5 5 5 5 5 5 5 5 5 5 5 5 5 5 5 u Y M.",
"'.'.&.&.&.&.Z   $ % 4 3 5 5 5 5 5 5 5 5 5 5 5 5 5 5 5 5 5 u Y M.",
"'.'.&.&.&.} y 4 o     . 3 5 5 5 5 5 5 5 5 5 5 5 5 5 5 5 5 u E N.",
"'.'.-.&.&.{ 3 5 5 3   $ %   3 3 5 5 5 5 5 5 5 5 5 5 5 5 5 u / M.",
"'.'.&.&.&.{ 5 5 5 3 3 3 % $ % % 5 5 5 5 5 5 5 5 5 5 5 5 e I ^ ( ",
"'.'.'.&.} 6 5 5 5 5 5 5 3 3 $ $ $   5 5 5 5 5 5 5 5 5 5 u ! Q Q ",
"'.'.'.'.'.5 5 5 5 5 5 5 5 5 5 $ $ $ % 3 5 3 5 5 5 5 5 5 u Y Q P ",
"'.'.'.'.'.5 5 5 5 5 5 5 5 5 5 5 5 5 e i 5 5 5 5 5 5 5 5 H I P G ",
"'.'.'.'.'.5 5 5 5 5 5 5 3 5 5 5 5 5 w i D 7 5 5 5 5 5 u F F H F ",
"'.'.'.'.'.5 5 5 5 5 5 5 5 5 5 5 5 5 7 e D D 9 5 5 5 5 i F i u i ",
"'.'.'.'.'.5 5 5 5 5 5 5 5 5 5 5 5 5 w u H Y K w 5 5 5 e i r 8 8 ",
"'.'.'.'.5 5 5 5 5 5 5 5 5 5 5 5 3 7 w e S H I I e 5 8 8 8 w 5 5 ",
"'.'.'.'.5 5 5 5 5 5 5 5 5 5 5 5 7 w w w r G L ) ` m m m m '.'.'.",
"'.'.'.'.5 5 5 5 5 3 5 5 5 5 5 5 w w w w r F H ' &.&.&.&.&.'.'.'.",
"'.'.'.'.5 5 5 5 5 5 5 5 5 5 3 8 w w w e S F K ' &.&.&.&.&.'.'.'.",
"'.'.'.'.5 5 5 5 5 5 5 5 5 5 5 w w w w i i D J ' &.&.&.&.&.'.'.'.",
"'.'.'.'.5 5 5 5 5 5 5 5 5 5 3 w w w u i i D K ] &.&.&.&.&.'.'.'.",
"'.'.'.'.5 5 5 5 5 5 5 5 5 5 5 5 w w e i i i G R | &.&.&.'.'.'.'.",
"'.'.'.'.5 5 5 5 5 5 5 5 5 5 5 5 5 w w e i i G T ^ C.K.'.'.'.'.'.",
"'.'.'.'.5 5 5 5 5 5 5 5 5 5 5 5 5 5 w w e S S I n.N.J.'.'.'.'.'.",
"'.'.'.'.5 5 5 5 5 5 5 5 5 5 5 5 5 5 w w w i S I ~ n.D.'.'.'.'.'.",
"'.'.'.'.5 5 5 5 5 5 5 5 5 5 5 5 5 5 5 w w w S L ! m.D.'.'.'.'.'.",
"'.'.'.'.5 5 5 5 5 5 5 5 5 5 5 5 5 5 5 5 w w r K Q n.A.'.'.'.'.'.",
"'.'.'.'.5 5 5 5 5 5 5 3 5 5 5 5 5 5 5 5 w w r K W / A.L.'.'.'.'.",
"'.'.'.'.5 5 5 5 5 5 5 5 5 5 5 5 5 5 5 5 5 w e G Y ^ N.J.'.'.'.'.",
"'.'.'.'.5 5 5 5 5 5 5 5 5 5 5 5 5 5 5 5 3 5 e F Y ~ V.A.'.'.'.'.",
"'.'.'.'.5 5 5 5 5 5 5 5 5 5 5 5 5 5 5 5 5 5 9 S L ! n.A.'.'.'.'.",
"'.'.'.'.5 5 5 5 5 5 5 5 5 5 5 5 5 5 5 5 5 5 8 i H W / B.'.'.'.'.",
"'.'.'.'.5 5 5 5 5 5 5 5 5 5 5 5 5 5 5 5 5 5 5 e G L ^ m.'.'.'.'.",
"'.'.'.'.'.5 5 5 5 5 5 5 5 5 5 3 5 5 5 5 5 5 7 e F I ! m.J.'.'.'.",
"'.'.'.'.'.5 5 3 5 5 5 5 5 5 5 5 5 5 5 5 5 5 7 w r H W / D.'.'.'.",
"'.'.'.'.'.5 5 5 5 5 5 5 5 5 5 5 5 5 5 5 5 5 7 e F K T ~ B.'.'.'.",
"'.'.'.'.'.+ 3 3 5 5 5 5 5 5 5 5 5 5 5 5 5 5 7 w e F Y ^ B.'.'.'.",
"'.'.'.'.'.X 6 4 5 3 3 5 5 5 5 5 5 5 5 5 5 5 7 w r i H W V.'.'.'.",
"'.'.'.'.'.= * , q 3 5 5 5 5 5 5 5 5 5 5 3 7 w e i F H W '.'.'.'.",
"'.'.'.'.'.'.= z v o 3 3 5 5 3 3 5 5 5 5 3 8 w e i D H J '.'.'.'.",
"'.'.'.'.'.'.= = = = + 3 5 5 3 7 5 5 5 5 3 7 w e S F H > = '.'.'.",
"'.'.'.'.'.'.= = = = = + O @ 4 4 5 5 5 5 3 7 w r i a y > = '.'.'.",
"'.'.'.'.'.'.= = = = = = = : < c v v 5 5 3 7 0 @ q X = = = '.'.'.",
"'.'.'.'.'.'.'.= = = = = = : k x X.o.N b + + + = = = = = = '.'.'.",
"'.'.'.'.'.'.'.= = = = = = & h j x O.X.z = = = = = = = = '.'.'.'.",
"'.'.'.'.'.'.'.'.'.= = = = * * * ; l : = = = = = = = = = '.'.'.'.",
"'.'.'.'.'.'.'.'.'.'.'.'.= = = = = = = = = = = = = = = '.'.'.'.'.",
"'.'.'.'.'.'.'.'.'.'.'.'.'.= = = = = = = = = = = = = '.'.'.'.'.'.",
"'.'.'.'.'.'.'.'.'.'.'.'.'.'.'.'.'.'.= = = = = = '.'.'.'.'.'.'.'."
};
