/* XPM */
static char *twinsen_diagonal_back1689731685[] = {
/* columns rows colors chars-per-pixel */
"29 90 34 1 ",
"  c None",
". c #280404",
"X c #281804",
"o c #301C08",
"O c #38240C",
"+ c #041024",
"@ c #0C1430",
"# c #0C243C",
"$ c #511410",
"% c #691C14",
"& c #143049",
"* c #183C55",
"= c #184965",
"- c #1C5575",
"; c #9A6D55",
": c #9E7159",
"> c #A6795D",
", c #AE7D65",
"< c #B28669",
"1 c #BA8A6D",
"2 c #F7BA55",
"3 c #C39271",
"4 c #CB9A79",
"5 c #206586",
"6 c #207596",
"7 c #2486A6",
"8 c #388EB2",
"9 c #4D9ABE",
"0 c #65A6CB",
"q c #CFA682",
"w c #D7B28A",
"e c #DFC396",
"r c #82B6D7",
"t c #D3CFDF",
/* pixels */
"         XXXXX               ",
"        XXXXXXX 13qww        ",
"        XXXXXXX,<34qqw       ",
"         XXXXXXX,334qwwew    ",
"      ooooXXXXXX>,<1334wew   ",
"     ooooooXXXXX;::>,<<3qwt  ",
"     ooooooXXXXX;::::>,13wq  ",
"     ooooooXXXXX::::::><13q  ",
"     ooooooXXXX;;;;:::>,13q  ",
"     oooooo   ;;;;;;;;>,,<1  ",
"     Ooooo    ;;;;;;;;:>,,<  ",
"     OOOO      ;;;;;;;;:>,3  ",
"     OOOO      ;;;;;;;;;;:,  ",
"     OOOO        ;;;;;;;;;   ",
"                ;;;;;;;;;;   ",
"               ;;;;;>        ",
"            =-@;;;;:<q       ",
"          &&*=++;;;:<4       ",
"        +@@#&@++++224e       ",
"        +++@+++++++&22       ",
"       ++++++++++++#*=22     ",
"       ++++++++++++#*=5 2    ",
"      +++++++++++++#*=582    ",
"      ++++++++++++#*=55792   ",
"     +++++++++++++#*=-5690   ",
"     +++++++++++++##&*=579   ",
"    ++++++++++++++@#&*=-60r  ",
"    +++++++++++++++@#&*=6802 ",
"   ++++++++++++++++@@#&*5702 ",
"   ++++++++++++++++@@##&-682 ",
"   +++++++++++++++++@@##=582 ",
"  ++++++++++++++++++@@##*57  ",
"  ++++++++++++++++++@@@#*-57 ",
"  +++++++++++++++++@@@@@@-68 ",
"  ++++++++++++++++++++@@@*-6 ",
" +++++++++++++++++++++++#*-6 ",
" ++++++++++++++++++++++++#=5 ",
" ++++++++++++++++++++++++#=6 ",
" ++++++++++++++++++++++++#=5 ",
"+++++++++++++++++++++++++#=- ",
"+++++++++++++++++++++++++#=5 ",
"+++++++++++++++++++++++++#*-7",
"       ++++++++++++++++++&-68",
"   ;;;;++++++++++++++++++&=57",
"  ;;;;;;+++++++++++++++++#*-6",
"  ;;;;;; .+++++++++++++++#*57",
"  ;;;;;;+..+++++++++++++@&=58",
"  ;;;;;;++..+++++++++++++@*-6",
"   ;;;;+++++.+++++++++++@#*-7",
"       ++++++.++++++++++@#&=5",
"       +++++++.....+++++@#&-6",
"       +++++++++...+++++@#&*-",
"       ++++++++++++++++@#&*=5",
"      +++++++++++++@+++@#&*==",
"      +++++++++++++@+++@#&*=-",
"      +++++++++++++@+++@#&*=-",
"      +++++++++++++@@+@#&*=-5",
"      +++++++++++++@;;;;**=- ",
"      +++++++++++++;;;;;;*== ",
"     ++++++++++++++;;;;;;*=- ",
"     ++++++++++++++;;;;;;*=- ",
"     ++++++++++++++;;;;;;*=- ",
"     ++++++++++++++;;;;;;*=- ",
"    +++++++++++++++@;;;;*==- ",
"    +++++++++++++++@@##&*=-5 ",
"    +++++++++++++++@@##&*=-  ",
"   ++++++++++++++++@@#&**=-  ",
"   ++++++++++++++++@@#&*=--  ",
"  +++++++++++++++++@@#&*=-5  ",
"  +++++++++++++++++@#&&*=-5  ",
"  +++++++++++++++++@#&**=-5  ",
" ++++++++++++++++++@#&**=-6  ",
" ++++++++++++++++++@#&**=-5  ",
" ++++++++++++++++++@#&**=--  ",
"+++++++++++++++++++@#&**=--  ",
" ++++++++++++++++++@#&*==**  ",
" ++++++++++++++++++@#&****   ",
" X+++++++++++++++++@#&**&&   ",
" X+++++++++++++++++@#&&&&&   ",
"XXXX+++++++++++++++@#&&###   ",
"XXXXX++++++++++++++@####@@   ",
"XXXXXXX++++++++++++@#@@@@@   ",
" XXXXXXXX++++++++++@@@@XXX   ",
" XXXXXXXXXX++++++++@+XXXX    ",
"   XXXXXXXXX.%$$XXXXXXXXX    ",
"   XXXXXXXXXXXXXXXXXXXXXX    ",
"    XXXXXXXXXXXXXXXXXXXXX    ",
"       XXXXXXXXXXXXXXXXX     ",
"        XXXXXXXXXXXXXXXX     ",
"             XXXXXXXXX       "
};
