/* XPM */
static char *twinsen_front_down1689731686[] = {
/* columns rows colors chars-per-pixel */
"40 90 50 1 ",
"  c None",
". c #000814",
"X c #000C1C",
"o c #201404",
"O c #241808",
"+ c #041828",
"@ c #0C2030",
"# c #142C3C",
"$ c #41140C",
"% c #592818",
"& c #653424",
"* c #71412C",
"= c #6D6138",
"- c #203849",
"; c #304551",
": c #41515D",
"> c #556169",
", c #5D6971",
"< c #65757D",
"1 c #825138",
"2 c #865D49",
"3 c #926145",
"4 c #8E6551",
"5 c #9A715D",
"6 c #A27555",
"7 c #A27D69",
"8 c #968251",
"9 c #9E8A55",
"0 c #B28665",
"q c #AE8A79",
"w c #C39A75",
"e c #C3A669",
"r c #CBAE6D",
"t c #D7BA75",
"y c #6D7D8A",
"u c #758692",
"i c #7D929E",
"p c #BA9686",
"a c #BE9E8A",
"s c #869AAA",
"d c #9EA2AA",
"f c #AAAAB6",
"g c #C3A692",
"h c #C7AE9A",
"j c #CBB6A2",
"k c #CFBEA6",
"l c #D3C7AE",
"z c #D7CFB6",
"x c #DBD3BE",
"c c #E3DBC7",
/* pixels */
"                 OOOOOO                 ",
"                OOOOOOOO                ",
"               OOOOOOOOOO               ",
"               OOOOOOOOOO               ",
"               OOOOOOOOOO               ",
"               OOOOOOOOOO               ",
"               OOOOOOOOOO               ",
"               OOOOOOOOOO               ",
"                O25pq7OO                ",
"              4pgggghhgap               ",
"             25hhhhhhjjhg               ",
"             25ghhhjjjjkkp              ",
"            227ahhhhjjjkza              ",
"            225pghhhhjjllg              ",
"            247aghhhhjjklh              ",
"            25qahhhhhjjjkg              ",
"            25qghhhhhjjjjk              ",
"            24d-fjjjffffkg              ",
"            24p-fllzf--lzh              ",
"            245fjlxcf--xlh              ",
"             45ghjlcccxzla              ",
"              5agjkcccxzl               ",
"              5paghccxzlj               ",
"               pagjxxzzlp               ",
"               7aghzllkp                ",
"             .##eqaljhe--               ",
"          .@---e-aqgag:e:>#             ",
"     .X+@#;::>>,,jklzuueiuuyy<#         ",
"     @-;;:>,,<<yyyuissssesiiuuy,>;-     ",
"     -::>>,<<yyeyyuissssessiiiiiy<>     ",
"    .:>>,,<yyyyeyyussssessssiiiiiu<;    ",
"    .:>,<<yyyyyeyuissssessssssssssu:    ",
"   .X;>>,<yyyyyeyiissssesssssssssss>-   ",
"   X@;>,<<<yyyyyeuiissessssssssssss,;   ",
"   +@;>,<<<yyyyyeuiissessssssssssssi<:  ",
"  .+@;:,,<<<<yyyueiisessssssssssssiu<;  ",
"  @#-:>,,<<<<yyyuueiesssssssssssiiiuu>  ",
"  @#->,,,,<<<yyyyueessssiiiiiiiiiiuuu<; ",
" .#-;>,,,<<<<yyyee99eeiiiiiiiiiiiiiuuu> ",
" #-;:>,,,<<<<yyye9t9r9eiiiiiiiiiiiiuuu; ",
"-;:::>,,,,<<<yye99rr=99eiiiiiiiiiiiiiiu:",
"-;;::>>,,<<<<yye9988r99eiiiiiiiiiiiiiiii",
"-;;::>>,,<<<<yyyer999teuuiiiiiiiiiiiiiii",
"--;;:>>,,<<<<yyyee999eeuuiiiiiiiiiiiiiii",
"--;;::>>,,<<<yyyuueeeuuuuiiiiiiuiiiiiiii",
"#--;;:::>>,<yyyyuuuuuuuuuiiiiuyyuuuuuuuu",
"##--;::::>,<yyyyuuuuuuuuuiiiuuyyyuuuuuuu",
"##--;;;:::>,<yyyuuuuuuuuuiiuuy<<yyuuuuuu",
"@##--;;;;:>,,<yyyuuuuuuuuuyy<<<<<yyyyyyu",
"@##---;;;;>>,<<yuuuuuuuuuyy<<,,<<<yyyyyy",
"@@@###----;:>>,<yuuuuuuuy<<,,>>>,,,<yyy>",
"+@@@###---;::>,<yyuuuuyy<,,>>:>>,,,<<<< ",
"++@@@####-;;:>><<yuuuyy<<,>>:::>>>,,<<< ",
" 22222   .%&**13360wwwww06633<;   >,,,< ",
" 22222   .&&*113600wwwwwwww00u>   22222 ",
" 22222  .-;:>>,<yyuwwwwwwwwwws,   22222 ",
"  222   .#::>,,<yuuiiiiiiiiisiy,  22222 ",
"       .@#;:>>,<yyuiiiiiiiiisiu<   222  ",
"       @#-::>,,<yuuuiiiiiiiiiiuu,       ",
"      +@#-:>>>,<yuuiiiiiiiiiiiuy,       ",
"      X+@#;:>,,<yuuuiiiiiiiiiuyy<       ",
"     .X+@#;:>>,<yuuuiiiiiiiiiuyy<<      ",
"     .X+@#;:>,,yyyuuuiiiiiiuuuy<<<      ",
"     XX+@#-;:>,<yyyuuiiiiiuuuyy<<<      ",
"     X++@#;;:>,<yyyuuuiiiiuuuuyy<<      ",
"     +@@#-;:>>,<yyyuuuiiiiiuuuyyy<      ",
"     +@@#-::>>,<yyyuuuiiiiiiuuyyyy<     ",
"     +@##-;:>>,<yyyuuuiiiiiuuuuyyy<     ",
"     +@##-;:>>,<<yyuuuiiiiuuuuuyyy<     ",
"     +@##-;:>>,<<yyuuuuiiiuuuuuuyyy     ",
"     +@##-;:>>,<<yyyuuuuiuuuuuuyyyy     ",
"     +@#--::>,,<<yyyuuuuiuuuuuyyyyy     ",
"     ++@#-;:>>,<<yyyyuuuiuuuuuyyyyy     ",
"     X++@#;:>>,<<yyyyuuuuuuuyyy<<<<     ",
"     XX++@-;:>,<<yyyyyuuuuuyyy<<<,      ",
"     XX++@#-;:><<<<<yyyyuyyyy<<<,,      ",
"     XX++@#-;::,,,<<<<yyyyy<<<,,>>      ",
"     XXX++#-;:>>,,,,<<<yyy<<<<,>>:      ",
"      .XX+@#-;:>>>,,,<<<y<<<,,,>::      ",
"      .XX+@@#-;:>>>>,,<<<<,,,,>::;      ",
"      .XX+@@#-;:::>>>>,,<,,,,>:;;       ",
"       ooX++@#-;;;:::>>,,,>>::--#       ",
"        oo++@@#-;;;:::>>,>::;;-#@       ",
"        oo&**@#--;;;:::>>>::;;oo        ",
"         oooo&1ooooooooo&&&&&o          ",
"          oooooooooooooo$$oooo          ",
"           ooooooooooooooooo            ",
"            oooooooooooooo              ",
"              ooooooooooo               ",
"                oooooo                  "
};
