/* XPM */
static char *result[] = {
/* columns rows colors chars-per-pixel */
"30 93 34 1 ",
"  c #280404",
". c #281804",
"X c #301C08",
"o c #38240C",
"O c #041024",
"+ c #0C1430",
"@ c #0C243C",
"# c #511410",
"$ c #691C14",
"% c #143049",
"& c #183C55",
"* c #184965",
"= c #1C5575",
"- c #9A6D55",
"; c #9E7159",
": c #A6795D",
"> c #AE7D65",
", c #B28669",
"< c #BA8A6D",
"1 c #F7BA55",
"2 c #C39271",
"3 c #CB9A79",
"4 c #206586",
"5 c #207596",
"6 c #2486A6",
"7 c #388EB2",
"8 c #4D9ABE",
"9 c #65A6CB",
"0 c #CFA682",
"q c #D7B28A",
"w c #DFC396",
"e c #82B6D7",
"r c #D3CFDF",
"t c None",
/* pixels */
"ttttttttttttttt......ttttttttt",
"ttttttttqq02<t........tttttttt",
"tttttttq0032,>........tttttttt",
"ttttqwqq0322>........ttttttttt",
"tttqwq322<,>:.......XXXXtttttt",
"ttrq02,,>:;;-......XXXXXXttttt",
"tt0q2<>:;;;;-......XXXXXXttttt",
"tt02<,:;;;;;;......XXXXXXttttt",
"tt02<>:;;;----.....XXXXXXttttt",
"tt<,>>:--------ttttXXXXXXttttt",
"tt,>>:;--------tttttXXXXottttt",
"tt2>:;--------tttttttoooottttt",
"tt>;----------tttttttoooottttt",
"ttt---------tttttttttoooottttt",
"ttt----------ttttttttttttttttt",
"tttttttt:----ttttttttttttttttt",
"tttttttt:-----tttttttttttttttt",
"ttttttt0,;----+&=*tttttttttttt",
"ttttttt3,;---OO@*&%%tttttttttt",
"tttttttw311OOOOO+%@++Otttttttt",
"ttttttt11%OOOOOOOO+OOOtttttttt",
"ttttt11*&@OOOOOOOOOOOOOttttttt",
"tttt1t4*&@OOOOOOOOOOOOOttttttt",
"tttt174*&@OOOOOOOOOOOOOOtttttt",
"ttt18644*&@OOOOOOOOOOOOOtttttt",
"ttt9854=*&@OOOOOOOOOOOOOOttttt",
"ttt864*&%@@OOOOOOOOOOOOOOttttt",
"tte95=*&%@+OOOOOOOOOOOOOOOtttt",
"t1975*&%@+OOOOOOOOOOOOOOOOtttt",
"t1964&%@++OOOOOOOOOOOOOOOOOttt",
"t175=%@@++OOOOOOOOOOOOOOOOOttt",
"t174*@@++OOOOOOOOOOOOOOOOOOttt",
"tt64&@@++OOOOOOOOOOOOOOOOOOOtt",
"t64=&@+++OOOOOOOOOOOOOOOOOOOtt",
"t75=++++++OOOOOOOOOOOOOOOOOOtt",
"t5=&+++OOOOOOOOOOOOOOOOOOOOOtt",
"t5=&@OOOOOOOOOOOOOOOOOOOOOOOOt",
"t4*@OOOOOOOOOOOOOOOOOOOOOOOOOt",
"t5*@OOOOOOOOOOOOOOOOOOOOOOOOOt",
"t4*@OOOOOOOOOOOOOOOOOOOOOOOOOt",
"t=*@OOOOOOOOOOOOOOOOOOOOOOOOOO",
"t4*@OOOOOOOOOOOOOOOOOOOOOOOOOO",
"6=&@OOOOOOOOOOOOOOOOOOOOOOOOOO",
"75=%OOOOOOOOOOOOOOOOOOOttttttt",
"64*%OOOOOOOOOOOOOOOOOOO----ttt",
"5=&@OOOOOOOOOOOOOOOOOO------tt",
"75*%+OOOOOOOOOOOOOOOOO------tt",
"64&@OOOOOOOOOOOOOOOO t------tt",
"74*%+OOOOOOOOOOOOOO  O------tt",
"5=&+OOOOOOOOOOOOOO  OO------tt",
"6=&@+OOOOOOOOOOOO OOOOO----ttt",
"4*%@+OOOOOOOOOOO OOOOOOttttttt",
"5=%@+OOOOO     OOOOOOOOttttttt",
"=&%@+OOOOO   OOOOOOOOOOttttttt",
"4*&%@+OOOOOOOOOOOOOOOOOttttttt",
"**&%@+OOO+OOOOOOOOOOOOOOtttttt",
"=*&%@+OOO+OOOOOOOOOOOOOOtttttt",
"=*&%@+OOO+OOOOOOOOOOOOOOtttttt",
"4=*&%@+O++OOOOOOOOOOOOOOtttttt",
"t=*&&----+OOOOOOOOOOOOOOtttttt",
"t**&------OOOOOOOOOOOOOOtttttt",
"t=*&------OOOOOOOOOOOOOOOttttt",
"t=*&------OOOOOOOOOOOOOOOttttt",
"t=*&------OOOOOOOOOOOOOOOttttt",
"t=*&------OOOOOOOOOOOOOOOttttt",
"t=**&----+OOOOOOOOOOOOOOOOtttt",
"t4=*&%@@++OOOOOOOOOOOOOOOOtttt",
"tt=*&%@@++OOOOOOOOOOOOOOOOtttt",
"tt=*&&%@++OOOOOOOOOOOOOOOOOttt",
"tt==*&%@++OOOOOOOOOOOOOOOOOttt",
"tt4=*&%@++OOOOOOOOOOOOOOOOOOtt",
"tt4=*&%%@+OOOOOOOOOOOOOOOOOOtt",
"tt4=*&&%@+OOOOOOOOOOOOOOOOOOtt",
"tt5=*&&%@+OOOOOOOOOOOOOOOOOOOt",
"tt4=*&&%@+OOOOOOOOOOOOOOOOOOOt",
"tt==*&&%@+OOOOOOOOOOOOOOOOOOOt",
"tt==*&&%@+OOOOOOOOOOOOOOOOOOOO",
"tt***&&%@+OOOOOOOOOOOOOOOOOOOO",
"tt&&**&%@+OOOOOOOOOOOOOOOOOOOt",
"ttt&&&&%@+OOOOOOOOOOOOOOOOOOOt",
"ttt%%&&%@+OOOOOOOOOOOOOOOOOO.t",
"ttt%%%%%@+OOOOOOOOOOOOOOOOOO.t",
"ttt@@@%%@+OOOOOOOOOOOOOOOO....",
"ttt++@@@@+OOOOOOOOOOOOOOO.....",
"ttt+++++@+OOOOOOOOOOOOO.......",
"ttt...++++OOOOOOOOOOO........t",
"tttt....O+OOOOOOOOO..........t",
"tttt.........###$ .........ttt",
"tttt.......................ttt",
"tttt......................tttt",
"ttttt..................ttttttt",
"ttttt.................tttttttt",
"ttttttt..........ttttttttttttt"
};
