/* XPM */
static char *result[] = {
/* columns rows colors chars-per-pixel */
"38 90 172 2 ",
"   c #0E0D0D",
".  c #16110A",
"X  c #1D160B",
"o  c #000814",
"O  c #000C1B",
"+  c #0C0710",
"@  c #120910",
"#  c #04101D",
"$  c #171519",
"%  c #350E08",
"&  c #201404",
"*  c #20170A",
"=  c #241808",
"-  c #2C1C0C",
";  c #3C130B",
":  c #221D13",
">  c #2F1F10",
",  c #261212",
"<  c #30210F",
"1  c #282014",
"2  c #242016",
"3  c #031424",
"4  c #091623",
"5  c #041827",
"6  c #0B1924",
"7  c #051828",
"8  c #0A1D2D",
"9  c #0D2232",
"0  c #122736",
"q  c #132B3B",
"w  c #192F3E",
"e  c #1F313D",
"r  c #262D2E",
"t  c #232E32",
"y  c #3B3537",
"u  c #432F1E",
"i  c #4E3925",
"p  c #453C3C",
"a  c #683926",
"s  c #6A3A28",
"d  c #4D403D",
"f  c #1D3545",
"g  c #1F3748",
"h  c #203746",
"j  c #203748",
"k  c #233A4A",
"l  c #293F4D",
"z  c #223947",
"x  c #2B414F",
"c  c #2E4350",
"v  c #314551",
"b  c #354955",
"n  c #384B57",
"m  c #3D4E5A",
"M  c #374B58",
"N  c #3F505B",
"B  c #544646",
"V  c #41515D",
"C  c #525853",
"Z  c #63544D",
"A  c #7B5644",
"S  c #7F5D4A",
"D  c #7D5946",
"F  c #676857",
"G  c #69605C",
"H  c #465560",
"J  c #485761",
"K  c #4D5B65",
"L  c #4E5D69",
"P  c #515D67",
"I  c #55626A",
"U  c #59666E",
"Y  c #556471",
"T  c #5E6A72",
"R  c #6A6561",
"E  c #6D726E",
"W  c #767669",
"Q  c #616E76",
"!  c #616F78",
"~  c #64747C",
"^  c #7B7574",
"/  c #747D7C",
"(  c #7A7B7E",
")  c #787A76",
"_  c #865D49",
"`  c #885F4B",
"'  c #8A624D",
"]  c #82624F",
"[  c #8D6753",
"{  c #856759",
"}  c #956E5B",
"|  c #916854",
" . c #94735B",
".. c #9A735E",
"X. c #85726B",
"o. c #947760",
"O. c #9D7561",
"+. c #977963",
"@. c #A37E6B",
"#. c #9D8A5D",
"$. c #898368",
"%. c #998C6B",
"&. c #9A8F7D",
"*. c #9D9478",
"=. c #A88164",
"-. c #B28665",
";. c #A7976F",
":. c #AD996E",
">. c #BB906D",
",. c #AB8674",
"<. c #AD8877",
"1. c #AF8B7A",
"2. c #B18D7C",
"3. c #A99A76",
"4. c #B3917F",
"5. c #C09772",
"6. c #C3A669",
"7. c #677780",
"8. c #6A7A84",
"9. c #6D7E8A",
"0. c #7F7F80",
"q. c #777D83",
"w. c #6F808C",
"e. c #71818E",
"r. c #7A8383",
"t. c #748592",
"y. c #768895",
"u. c #788B97",
"i. c #7A8E9A",
"p. c #7D929E",
"a. c #7F93A1",
"s. c #80888D",
"d. c #808386",
"f. c #95948F",
"g. c #888E9A",
"h. c #9C9792",
"j. c #AA9388",
"k. c #BA9686",
"l. c #BA9986",
"z. c #B29888",
"x. c #BE9D8A",
"c. c #B49180",
"v. c #BDA28B",
"b. c #8195A4",
"n. c #8498A7",
"m. c #869AAA",
"M. c #BCB1A8",
"N. c #C0A18D",
"B. c #C6AC8F",
"V. c #C3A591",
"C. c #C6AB95",
"Z. c #C6AD9A",
"A. c #C8AF9B",
"S. c #C7B09C",
"D. c #C9B29D",
"F. c #CBB593",
"G. c #CBB6A1",
"H. c #CDBBA4",
"J. c #CFBFA8",
"K. c #D0BFA7",
"L. c #C2BDB5",
"P. c #D2C5AC",
"I. c #D4C8AF",
"U. c #C9C0B0",
"Y. c #D5CCB3",
"T. c #D9CFB8",
"R. c #D3CCBD",
"E. c #D8D0B7",
"W. c #DAD2BB",
"Q. c #DDD5C0",
"!. c #E1D9C5",
"~. c None",
/* pixels */
"~.~.~.~.~.~.~.~.~.~.~.~.x.x.V.V.V.x.x.x.x.[ ~.~.= = = = = = = = = ~.~.~.~.~.",
"~.~.~.~.~.~.~.~.~.~.~.1.l.N.Z.S.A.A.V.V.v.1.O.~.= = = = = = = = = - - - - ~.",
"~.~.~.~.~.~.~.~.~.~.~.k.x.Z.H.G.G.A.A.A.V.k.,.S = = = = = = = = = - - - - - ",
"~.~.~.~.~.~.~.~.~.~.1.k.S.P.W.P.H.H.G.G.V.x.,.S = = = = = = = = = - - - - - ",
"~.~.~.~.~.~.~.~.S.z.j.Z.J.W.!.W.P.P.J.H.V.l.,.] = = = = = = = = = - - - - - ",
"~.~.~.~.~.~.~.~.J.h.g.M.P.W.!.!.Q.Y.J.H.C.k.1.[ u = = = = = = = = - - - - - ",
"~.~.~.~.~.~.~.I.P.f.g.L.T.!.!.!.W.Y.P.H.C.x.2.O.D = = = = = = = - - - - - - ",
"~.~.~.~.~.~.~.I.P.L.L.R.!.!.!.W.T.P.P.G.x.k.@.| ~.~.~.~.~.~.= - - - - - - - ",
"~.~.~.~.~.~.~.G.P.Y.W.W.!.!.W.E.I.P.K.S.N.2.} ` ~.~.~.~.~.~.~.- - - - - - ~.",
"~.~.~.~.~.~.~.G.I.Y.W.W.!.W.E.I.P.K.H.C.4.} ' ~.~.~.~.~.~.~.~.~.~.~.~.~.~.~.",
"~.~.~.~.~.~.~.~.P.P.Y.E.W.Y.Y.I.P.G.Z.c.} ` ~.~.~.~.~.~.~.~.~.~.~.~.~.~.~.~.",
"~.~.~.~.~.~.~.~.K.K.P.I.I.I.P.H.S.V.4.O.~.~.~.~.~.~.~.~.~.~.~.~.~.~.~.~.~.~.",
"~.~.~.~.~.~.~.~.~.S.D.J.P.J.H.Z.N.4.O.~.~.~.~.~.~.~.~.~.~.~.~.~.~.~.~.~.~.~.",
"~.~.~.~.~.~.~.~.~.~.N.V.C.H.C.x.2.@.| ~.~.~.~.~.~.~.~.~.~.~.~.~.~.~.~.~.~.~.",
"~.~.~.~.~.~.~.~.~.~.~.~.~.~.O.4.k.1.@.~.~.~.~.~.~.~.~.~.~.~.~.~.~.~.~.~.~.~.",
"~.~.~.~.~.~.~.~.~.~.~.~.~.~.@.@.l.2._ o o o o ~.~.~.~.~.~.~.~.~.~.~.~.~.~.~.",
"~.~.~.~.~.~.~.~.~.~.~.~.~.~.l.k.V.N.D o o o o ~.~.~.~.~.~.~.~.~.~.~.~.~.~.~.",
"~.~.~.~.~.~.~.~.~.~.~.~.~.N.N.V.V.C.6 o o o o o ~.~.~.~.~.~.~.~.~.~.~.~.~.~.",
"~.~.~.~.~.~.~.~.~.~.~.~.#.v.S.F.B.:.l O O o o o ~.~.~.~.~.~.~.~.~.~.~.~.~.~.",
"~.~.~.~.~.~.~.~.~.~.~.6.C &.F.3.;.Q m O O O O o o ~.~.~.~.~.~.~.~.~.~.~.~.~.",
"~.~.~.~.~.~.~.~.~.~.6.~.) *.;.q.7.T K 7 3 O O O o ~.~.~.~.~.~.~.~.~.~.~.~.~.",
"~.~.~.~.~.~.~.~.~.6.~.F $.r.w.9.9.Q K q 5 3 3 O o o ~.~.~.~.~.~.~.~.~.~.~.~.",
"~.~.~.~.~.~.~.~.~.6.6.%./ 8.t.t.9.! K v 7 7 3 O o o ~.~.~.~.~.~.~.~.~.~.~.~.",
"~.~.~.~.~.~.~.~.6.6.%.E ~ 8.t.i.9.! K n 0 7 3 O o o ~.~.~.~.~.~.~.~.~.~.~.~.",
"~.~.~.~.~.~.~.~.6.~.U Q ~ 8.t.p.9.~ P n f 9 3 O o o ~.~.~.~.~.~.~.~.~.~.~.~.",
"~.~.~.~.~.~.~.~.6.W U ! 8.9.y.i.t.Q J v l 0 7 3 O o ~.~.~.~.~.~.~.~.~.~.~.~.",
"~.~.~.~.~.~.~.6.6.I U ! 8.e.i.y.t.~ P m k q 9 3 O o o ~.~.~.~.~.~.~.~.~.~.~.",
"~.~.~.~.~.~.~.6.~.V U ! 8.t.p.y.9.Q I v g 0 9 3 O o o ~.~.~.~.~.~.~.~.~.~.~.",
"~.~.~.~.~.~.6.6.~.K U ! 8.t.i.y.9.7.I V j q 8 3 O o o ~.~.~.~.~.~.~.~.~.~.~.",
"~.~.~.~.~.~.6.6.~.K U ! 8.e.i.y.9.Q P v j 8 5 O O o o ~.~.~.~.~.~.~.~.~.~.~.",
"~.~.~.~.~.~.6.~.c J Q 8.t.b.b.y.9.~ Q V j 9 8 3 o o o ~.~.~.~.~.~.~.~.~.~.~.",
"~.~.~.~.~.~.6.~.v L Q 9.i.n.p.t.9.~ P V f 8 5 O o o o o ~.~.~.~.~.~.~.~.~.~.",
"~.~.~.~.~.~.~.~.c L T 7.t.a.a.y.9.7.T V g 8 3 O o o o o ~.~.~.~.~.~.~.~.~.~.",
"~.~.~.~.~.~.~.~.b L ! 9.y.a.a.y.9.~ I m f 9 8 3 o o o o ~.~.~.~.~.~.~.~.~.~.",
"~.~.~.~.~.~.~.~.v L 7.y.m.m.a.t.9.7.I m g 9 3 O o o o o ~.~.~.~.~.~.~.~.~.~.",
"~.~.~.~.~.~.~.~.n P 7.u.n.a.a.y.9.~ I c f 8 3 O o o o o ~.~.~.~.~.~.~.~.~.~.",
"~.~.~.~.~.~.~.c m K 8.p.m.a.a.y.8.~ I c f 8 3 o o o o o ~.~.~.~.~.~.~.~.~.~.",
"~.~.~.~.~.~.~.v H T 9.b.m.n.a.y.9.! K l f 8 O o o o o o ~.~.~.~.~.~.~.~.~.~.",
"~.~.~.~.~.~.~.k H T 9.a.m.n.i.t.9.T K l q 7 o o o o o o ~.~.~.~.~.~.~.~.~.~.",
"~.~.~.~.~.~.~.k V T 9.a.m.a.i.y.9.U H l q 3 O o o o o o ~.~.~.~.~.~.~.~.~.~.",
"~.~.~.~.~.~.~.x H T y.n.m.a.a.y.9.T V j q 5 O o o o o o ~.~.~.~.~.~.~.~.~.~.",
"~.~.~.~.~.~.~.z V T i.m.m.a.u.e.! U v l q 5 O o o o o o ~.~.~.~.~.~.~.~.~.~.",
"~.~.~.~.~.~.~.x K 7.i.m.m.a.u.9.~ I m f # O O o o o o ~.~.~.~.~.~.~.~.~.~.~.",
"~.~.~.~.~.~.~.j K 8.i.a.a.a.y.9.! H k 9 O O O o o o o ~.~.~.~.~.~.~.~.~.~.~.",
"~.~.~.~.~.~.x n T 8.u.p.a.i.i.9.7.P k 8 O O o o o o o ~.~.~.~.~.~.~.~.~.~.~.",
"~.~.~.~.~.~.v v ! 8.y.a.p.a.y.9.Q H k 8 O O o o o o o ~.~.~.~.~.~.~.~.~.~.~.",
"~.~.~.~.~.~.V v ~ 8.y.p.i.p.y.9.T H j 7 o o o o o o ~.~.~.~.~.~.~.~.~.~.~.~.",
"~.~.~.~.~.~.Q Q 8.e.i.p.y.y.9.7.T v q 7 o o O O O O ~.~.~.~.~.~.~.~.~.~.~.~.",
"~.~.~.~.~.T ~ 8.9.e.u.u.t.t.t.8.U c q 7 o O 3 O O o ~.~.~.~.~.~.~.~.~.~.~.~.",
"~.~.~.~.~.~ 8.8.e.y.t.t.y.t.y.~ I k 8 o O 3 7 3 3 O ~.~.~.~.~.~.~.~.~.~.~.~.",
"~.~.~.~.T ~ 8.e.t.t.t.t.y.e.e.~ H f 4 O O 7 7 3 O O ~.~.~.~.~.~.~.~.~.~.~.~.",
"~.~.~.~.T 8.~ 9.e.y.t.t.e.w.9.U l 9 o + @ $ $ 3 3 O o ~.~.~.~.~.~.~.~.~.~.~.",
"~.~.~.~.8.e.9.e.y.e.e.e.8.~ Q V w 4 , % ; ; $ 5 3 O o ~.~.~.~.~.~.~.~.~.~.~.",
"~.~.~.~.8.9.9.t.e.9.9.8.~ U I x 0 o a s B y 9 5 3 O o ~.~.~.~.~.~.~.~.~.~.~.",
"~.~.~.Q 8.8.9.9.9.8.8.! U P J h 3 V ^ G m f 8 8 5 3 o ~.~.~.~.~.~.~.~.~.~.~.",
"~.~.~.~ 9.9.9.9.8.~ Q U K V n 0 O 8.t.T M 0 9 8 5 3 o ~.~.~.~.~.~.~.~.~.~.~.",
"~.~.~.! 9.9.9.! T U K N b x w # L t.9.H l q q q 8 7 5 ~.~.~.~.~.~.~.~.~.~.~.",
"~.~.~.7.9.~ T T K V n l k f 0 O 7.9.9.L j f q q 8 8 5 ~.~.~.~.~.~.~.~.~.~.~.",
"~.~.~.T ! T U K m b l f q 9 O U 9.9.~ b j g q q q 8 4 ~.~.~.~.~.~.~.~.~.~.~.",
"~.~.~.T 7.y.0.Z l j f 9 9 7 O T 7.~ T v c j f q q 9 5 o ~.~.~.~.~.~.~.~.~.~.",
"~.~.~.T 7.) _ _ _ _ p 9 8 5 I 7.~ T v v c j g q q 8 7 o ~.~.~.~.~.~.~.~.~.~.",
"~.~.I ! 9.( _ _ _ _ _ ^ t.w.7.~ T T V V v c j f q 0 4 o ~.~.~.~.~.~.~.~.~.~.",
"~.~.I ~ 8.( _ _ _ _ _ ^ 9.9.7.T U I V V v c k g q q 8 O ~.~.~.~.~.~.~.~.~.~.",
"~.~.H T 7.( _ _ _ _ ` ^ 9.8.7.T U I H V b v c j f q 8 o ~.~.~.~.~.~.~.~.~.~.",
"~.~.K T 8.q.{ _ _ _ { ( e.9.~ ! T I I V V c c j z q 8 o ~.~.~.~.~.~.~.~.~.~.",
"~.~.I T 8.e.s.X.X.X.r.y.e.9.8.~ Q I I V N v v l j f 8 o ~.~.~.~.~.~.~.~.~.~.",
"~.~.L T 8.e.a.m.a.p.p.y.y.e.8.~ Q Q I J V b c k j f 8 o ~.~.~.~.~.~.~.~.~.~.",
"~.~.K I 7.9.i.n.p.p.p.y.t.e.8.~ U U I I V N v l g f 7 o ~.~.~.~.~.~.~.~.~.~.",
"~.~.K T 8.t.a.a.p.p.u.t.t.w.9.~ Q U U I K V c j f q 4 o ~.~.~.~.~.~.~.~.~.~.",
"~.~.L T 8.y.a.p.p.i.y.y.t.w.9.~ ! Q U I V V x z f 0 4 o ~.~.~.~.~.~.~.~.~.~.",
"~.~.N U 8.y.p.p.i.y.t.y.e.9.9.~ ~ U Q I V V x z f 9 3 o ~.~.~.~.~.~.~.~.~.~.",
"~.~.l J ~ e.i.p.i.t.t.e.9.9.9.8.~ Q U I V V x z f 9 3 o ~.~.~.~.~.~.~.~.~.~.",
"~.~.v I ~ y.p.i.y.t.e.9.9.9.9.~ ~ T T I V N c g f 0 3 o ~.~.~.~.~.~.~.~.~.~.",
"~.~.l K ~ e.p.i.t.t.t.e.9.9.7.~ ~ T T I P N c x f q 8 5 ~.~.~.~.~.~.~.~.~.~.",
"~.~.j H Q e.y.i.t.t.e.9.9.9.8.~ ~ T T P I m c c f 0 8 5 ~.~.~.~.~.~.~.~.~.~.",
"~.~.k H U 8.t.t.t.t.e.9.9.9.~ ~ ~ T T I V v c f q q 5 O ~.~.~.~.~.~.~.~.~.~.",
"~.~.w b I Q 9.t.t.t.e.8.9.9.8.~ ~ T I I N v c g q 9 3 O ~.~.~.~.~.~.~.~.~.~.",
"~.~.q l H T 8.9.e.y.e.9.9.7.~ 7.~ Q I I V v c f q 9 3 O ~.~.~.~.~.~.~.~.~.~.",
"~.~.9 j n I ~ 8.9.e.e.9.9.7.~ ~ ~ Q P I V c c f q 8 3 o ~.~.~.~.~.~.~.~.~.~.",
"~.X 6 f m L Q ~ 8.9.9.9.8.7.~ ~ ! U I P N c c f q 8 3   ~.~.~.~.~.~.~.~.~.~.",
"~.& X x V I U ! ~ ~ w.8.8.~ ~ ~ Q U I K V v x f 0 8 #   & ~.~.~.~.~.~.~.~.~.",
"& * * t n I I U Q ~ ~ w.~ ~ ~ T U U I K V v x z q 7 o . & ~.~.~.~.~.~.~.~.~.",
"& & & * c V L I U T Q ~ ~ ~ ~ Q Q I I V V x x f 0 # X & = ~.~.~.~.~.~.~.~.~.",
"~.& & X r N V L I U T ~ 8.~ ~ T U I I V V v l f 9 6 = & X ~.~.~.~.~.~.~.~.~.",
"~.~.* & 1 v m V V I I T Q ~ Q T Q I I V V v l f 0 X & & & ~.~.~.~.~.~.~.~.~.",
"~.~.~.& < d x b N V P I U T ! T Q I V V b v k e X & & & ~.~.~.~.~.~.~.~.~.~.",
"~.~.~.& = i o. .+.+.R L I R Q Q U I V V : 1 : X & & X & ~.~.~.~.~.~.~.~.~.~.",
"~.~.~.~.~.i 5.>.-.-.=. . . .' ' ' A - : & & = X & & = ~.~.~.~.~.~.~.~.~.~.~.",
"~.~.~.~.~.~.< < - - - > - - - - - - & & & & X = & ~.~.~.~.~.~.~.~.~.~.~.~.~.",
"~.~.~.~.~.~.~.= & & & & & & & & X & & & & & ~.~.~.~.~.~.~.~.~.~.~.~.~.~.~.~."
};
