/* XPM */
static char *twinsen_front_up1689731686[] = {
/* columns rows colors chars-per-pixel */
"38 90 50 1 ",
"  c None",
". c #280404",
"X c #3C0808",
"o c #281804",
"O c #301C08",
"+ c #041024",
"@ c #0C1430",
"# c #0C243C",
"$ c #511410",
"% c #691C14",
"& c #7D281C",
"* c #143049",
"= c #183C55",
"- c #184965",
"; c #1C5575",
": c #923828",
"> c #AA4530",
", c #BE553C",
"< c #9A753C",
"1 c #9A6D55",
"2 c #9E7159",
"3 c #A6795D",
"4 c #AE7D65",
"5 c #D36949",
"6 c #EB7D55",
"7 c #B28A45",
"8 c #B28669",
"9 c #BA8A6D",
"0 c #F7BA55",
"q c #C39271",
"w c #CB9A79",
"e c #F7C76D",
"r c #206586",
"t c #207596",
"y c #7D7586",
"u c #2486A6",
"i c #388EB2",
"p c #4D9ABE",
"a c #65A6CB",
"s c #8A8296",
"d c #A29AAE",
"f c #CFA682",
"g c #D7B28A",
"h c #DFC396",
"j c #F7D38A",
"k c #E3CBA2",
"l c #EBDBAA",
"z c #EFE3B6",
"x c #82B6D7",
"c c #9EC7E3",
/* pixels */
"                  ooooo               ",
"                 ooooooo              ",
"                ooooooooo             ",
"                ooooooooo             ",
"                ooooooooo             ",
"                ooooooooo             ",
"                ooooooooo             ",
"                ooooooooo             ",
"                 9qghkoo              ",
"             1139qwffgklz             ",
"            111333489qwllz            ",
"            11111223389hkz            ",
"           111112222229gkl            ",
"           111111112224fhk            ",
"           111111111124qfh            ",
"           111y-11111s39gh            ",
"            11y-y124y-d9gg            ",
"            11111118438qww            ",
"            11111118448qww            ",
"             11111144489q             ",
"             111111444898             ",
"              1111133444              ",
"                1112332               ",
"                 1121g0               ",
"              **04329h0a              ",
"          @@@@@0@3133tu0ipp           ",
"         @@@@++0@2133;r0tuup          ",
"      @@++++++0+++@#**=0-;rtiax       ",
"     @+++++++++0++@****0==-ruiipx     ",
"     ++++++++++0++@###*0**=;ttuipc    ",
"    +++++++++++0+@@###0#***-;rrtup    ",
"    +++++++++++++++++@0@@##*==-;ru    ",
"    ++++++++++++0+++++0@@@@##*=-;tx   ",
"   ++++++++++++++0+++0++++@@#**==;p   ",
"   +++++++++++++++000+++++++@@#*-rpc  ",
"  ++++++++++++++++00+++++++++@@@*-ia  ",
"  ++++++++++++++007700+++++++++#*-ui  ",
"  +++++++++++++077je70+++++++++@#=rpx ",
" +++++++++++++0777e<770+++++++++@#-ra ",
" ++++++++++++++077<e770++++++++@@#=;r ",
" ++++++++++++++07e77j0+++++++++@@#*=rx",
"++++++++++++++++007700+++++++++@@#**-;",
"++++++++++++++++++00+++++++++++@@#**=;",
"+++++++++++++++++++++++++++++++@@#**==",
"+++++++++++++++++++++++++++++++@@#**==",
"+++++++++++++++++++++++++++++++@@@#**=",
"+++++++++++++++++++++++++++++++@@@#**=",
"+++++++++++++++++++++++++++++++@@@#**=",
"+++++++++++++++++++++++++++++++@@@##**",
"++++++++++++++++++++++++++++++@@@@#**r",
"++++++++++++++++++++++++++++++@@@@##*;",
"+++++++  ..........+++++++++++@@@@##*;",
"+++      ..........XX$$%&&&&a    @###=",
" 111     ++++++++++@@##*==-;i     ##* ",
"11111   ++++++++++++@@##*==;rx   111  ",
"11111   ++++++++++++@@##*==-tp  11111 ",
"11111  ++++++++++++++@@##*=;tt  11111 ",
"11111  ++++++++++++++@@##*=-rta 11111 ",
"11111 ++++++++++++++++@@##=;tui 11111 ",
"     +++++++++++++++++@@##*-rtup 111  ",
"     ++++++++++++++++++@@#*-rtui      ",
"     ++++++++++++++++++@@#*-ttui      ",
"     +++++++++++++++++++@#*-;rtu      ",
"     +++++++++++++++++++@#*=;rtu      ",
"     +++++++++++++++++++@@#*-;rt      ",
"    ++++++++++++++++++++@@#*-;rtu     ",
"    ++++++++++++++++++++@@#*=-;rr     ",
"    ++++++++++++++++++++@@#*=-;;r     ",
"    ++++++++++++++++++++@@#*=--;r     ",
"    ++++++++++++++++++++@@#*=--;;     ",
"    ++++++++++++++++++++@@#*=--;;     ",
"    ++++++++++++++++++++@@#*=--;r     ",
"    ++++++++++++++++++++@@#*=--;;     ",
"    ++++++++++++++++++++@@#*=----     ",
"    ++++++++++++++++++++@@#*=----     ",
"    ++++++++++++++++++++@@#*=-===     ",
"     +++++++++++++++++++@@#*=====     ",
"     +++++++++++++++++++@@#*=***      ",
"     +++++++++++++++++++@@#*****      ",
"     +++++++++++++++++++@@#**###      ",
"     +++++++++++++++++++@@###@@@      ",
"       Oo+++++++++++++++@@@@@+++      ",
"        oO%+++++++++++++@@@+OoOO      ",
"        oO%>56+++++++++++++ooOo       ",
"         OX>,6oOoOOoOoO.$&>oOOo       ",
"         o.:>5oOoOoOooOX%:>OOO        ",
"           OOoOoOoooOoOoOoOO          ",
"           OooOOoOOOoOOOoOo           ",
"             oOoOOooOoOoOO            ",
"                oOOoO                 "
};
