/* XPM */
static char *twinsen_side_up1689731686[] = {
/* columns rows colors chars-per-pixel */
"36 90 44 1 ",
"  c None",
". c #000814",
"X c #000C1C",
"o c #201404",
"O c #241808",
"+ c #2C1C0C",
"@ c #041828",
"# c #0C2030",
"$ c #142C3C",
"% c #4D1C10",
"& c #592818",
"* c #71412C",
"= c #203849",
"- c #304551",
"; c #41515D",
": c #556169",
"> c #5D6971",
", c #65757D",
"< c #825138",
"1 c #865D49",
"2 c #926145",
"3 c #8E6551",
"4 c #9A715D",
"5 c #A27555",
"6 c #A27D69",
"7 c #B28665",
"8 c #AE8A79",
"9 c #C39A75",
"0 c #C3A669",
"q c #6D7D8A",
"w c #758692",
"e c #7D929E",
"r c #BA9686",
"t c #BE9E8A",
"y c #869AAA",
"u c #AAAAB6",
"i c #C3A692",
"p c #C7AE9A",
"a c #CBB6A2",
"s c #CFBEA6",
"d c #D3C7AE",
"f c #D7CFB6",
"g c #DBD3BE",
"h c #E3DBC7",
/* pixels */
"       OOOO                         ",
"      OOOOOO    13468               ",
"     OOOOOOOO  368rrrtrr8           ",
"     OOOOOOOO  3ttttiiitt           ",
" ++++OOOOOOOO 48iiippppit8          ",
"+++++OOOOOOOO48ripppaaaptr          ",
"+++++OOOOOOOO48tiaaaasfdar8         ",
"+++++OOOOOOOO68tissssfhgdpt         ",
"++++++OOOOOO46rtpsdfgghhfsud        ",
"++++++++     36rtpsdffghhhgdd       ",
" ++++++      138iassdffghggdr       ",
"              138iassdffggfd        ",
"               138iasddffffd        ",
"                 48tpasdddd         ",
"                  48tpasssa         ",
"                  368rispit         ",
"                  68rr4             ",
"              ....18t66             ",
"              ....1tirr             ",
"             .....Xpiitt            ",
"             ...XX=0pppp0           ",
"            ..XXXX->00sa#0          ",
"            .XXXX@:>,,00q 0         ",
"           ..X@@@-:,qwwq,0          ",
"           ..X@@@-;>qwwq,>0         ",
"           ..X@#=;:,,ewq,>:0        ",
"           ..X@#=-:,qewq,,>0        ",
"          ..X@#$=;:,wwewq,>00       ",
"          ..X@#$=-:>qwewq,> 0       ",
"          ..X@#$=;:,qwewq,> 00      ",
"          ..XX@#=-:>qwewq,> 00      ",
"          ..X@##=;>,qweywq,= 0      ",
"         ....X@#=;:,qweyew,= 0      ",
"         ....X@#=;>,qweywq>=        ",
"         ....@##=;:,qweywq,-        ",
"         ....X@#=;:,qweyyeq=        ",
"         ....X@#=-:,qweeyeq-        ",
"         ....X@#=-:,,weyyew-        ",
"         .....X#$=;>qweyyyw;=       ",
"         .....X@$-:>qwweyyw-$       ",
"         .....X@$=;:qweeyyw-=       ",
"         .....X@$=;>qweeyyy;=       ",
"         .....X@$--:>qweyyy-$       ",
"          ....XXX$;:,qweyyy;=       ",
"          ....XXX#=;>qweeey-$       ",
"          ......X#=;>qweeee>$;      ",
"           ......@=;>qweeee,#:      ",
"           XXXX..@$->,qwwee,>>      ",
"           .XXXX.#$-:,wwwweq,,:     ",
"           .@@@XX.#=:,wwwwwq,q>     ",
"           XX@@@X.#=:,wwwwwwq,,     ",
"          .XX@@@XX.#=:qwwwwqq,,:    ",
"          .X@@#&%%%.#=>>,qqwwqwq    ",
"          .@@@#-><<.#=::>,qqwq,,    ",
"          .@@##$->ww.#;;:>,qqqqq>   ",
"          .@@##$;>ww.#-;;:>qqqqq,   ",
"          @##$$$=;qww.#=--;>,qqq>   ",
"          @##$$==:qqw.#$==-:>>,q,   ",
"         .##$$$==-,qqw.#$$=;:>>,>   ",
"         .##$$==-->,,q.@##$-1ew,>   ",
"         .##$$==--->,,qX@@#111q,>   ",
"         .#$$==--;;>>,,qww1111wq>:  ",
"         X#$$==--;;:>>,qqw1111w,,:  ",
"         .$$==--;;::>>,qqw1111w,>;  ",
"         .$==---;;::>,,qqwe11eq,>:  ",
"         .$===--;;:>>,,qwweyyeqq>:  ",
"         .$==--;;::>>,qqwweeywq,:;  ",
"         .#$==-;::>>>,qqwwweeyw,>;  ",
"         .#$==-;;:>>,,qqwwweeew,>:  ",
"         .@$==-;;:>>,,qqqwweeew,:-  ",
"         .@$==-;;:>>,,qqqqweewq>;=  ",
"         .@$==-;;:>>,,qqqqqweew,:-  ",
"         @#$=--;::>>,,,qqqwweeq>;=  ",
"         @#$=--;::>>,,,qqqqwewq>;=  ",
"         X#$$=--;:>>,,,qqqqwww,:;=  ",
"         X@$$=--;::>,,,qqqqwwq>:-$  ",
"         X@$$=--;::>,,,,qqqqq,>;=$  ",
"         X@#$=--;::>,,,,qqqqq,:-=#  ",
"         .@#$=--;::>,,,,qqq,,>;-$@o ",
"         .@#$=--;;:>>,,,,qq,>>>;=oo ",
"         .X#$=--;::>>>,,,qq>>::-=ooo",
"         oo@#=--;;:>>>,,,,>::;;=ooo ",
"         ooo$=--;;::>>>,>>:;;--ooo  ",
"         oooo==--;;:>>,>>::--=*oo   ",
"         oooooooo;;:>>>>::;777ooo   ",
"          ooooooooo<2225557799o     ",
"            oooooooooooooooooo      ",
"               oooooooooooooo       ",
"                 oooooooooo         ",
"                     oooooo         "
};
