/* XPM */
static char *result[] = {
/* columns rows colors chars-per-pixel */
"34 97 47 1 ",
"  c #280404",
". c #3C0808",
"X c #281804",
"o c #301C08",
"O c #38240C",
"+ c #041024",
"@ c #0C1430",
"# c #0C243C",
"$ c #511410",
"% c #691C14",
"& c #7D281C",
"* c #71592C",
"= c #143049",
"- c #183C55",
"; c #184965",
": c #1C5575",
"> c #923828",
", c #AA4530",
"< c #BE553C",
"1 c #9A753C",
"2 c #9A6D55",
"3 c #9E7159",
"4 c #A6795D",
"5 c #AE7D65",
"6 c #B28A45",
"7 c #B28669",
"8 c #BA8A6D",
"9 c #F7BA55",
"0 c #C39271",
"q c #CB9A79",
"w c #F7C76D",
"e c #206586",
"r c #207596",
"t c #7D7586",
"y c #2486A6",
"u c #388EB2",
"i c #4D9ABE",
"p c #65A6CB",
"a c #CFA682",
"s c #D7B28A",
"d c #DFC396",
"f c #F7D38A",
"g c #E3CBA2",
"h c #EBDBAA",
"j c #82B6D7",
"k c #9EC7E3",
"l c None",
/* pixels */
"lllllXXXXXXlllllllllllllllllllllll",
"llooXXXXXXXXllllllllllllllllllllll",
"loooXXXXXXXXllllllllllllllllllllll",
"loooXXXXXXXXllllllllllllllllllllll",
"OoooXXXXXXXXllllllllllllllllllllll",
"OoooXXXXXXXXldsallllllllllllllllll",
"OoooXXXXXXXgdsaaq052llllllllllllll",
"OOooXXXXXXgdsaqq87522lllllllllllll",
"OOOOlXXXXgdaq077443222llllllllllll",
"llllllllldsq0742222222llllllllllll",
"lllllllllsaq874222222tllllllllllll",
"lllllllllaq075422222tt;lllllllllll",
"lllllllllq08743222222t2lllllllllll",
"lllllllllq875432t;t2222lllllllllll",
"lllllllll0875332ttt2222lllllllllll",
"llllllllll7743332222222lllllllllll",
"llllllllll7533332222222lllllllllll",
"lllllllllll422222222222lllllllllll",
"lllllllllllll2222222222lllllllllll",
"llllllllllllll22222222llllllllllll",
"lllllllllllll074222222llllllllllll",
"lllllllllllllsq72e;-llllllllllllll",
"llllllllllll9ha7229==#llllllllllll",
"llllllllllll9i7222@9##@@+lllllllll",
"lllllllllliur9722229@#@@++llllllll",
"lllllllllpye:9-22+++9+@+++llllllll",
"llllllljur:;-=@+++++9++++++lllllll",
"lllllljire;-=@9+++++9+++++++llllll",
"lllllkiy::;-=@+9+++++9++++++llllll",
"lllllpu;;;-=@+++9++++9+++++++lllll",
"lllljir---==@+++9++++9+++++++lllll",
"llllpe-===#@+++++9++9++++++++lllll",
"llljy:=###@@++++++999+++++++++llll",
"lllr;##@@@++++++++++999+++++++llll",
"llly;@@@@++++++++++96w69+++++++lll",
"llpu;@@@++++++++++9w*w69+++++++lll",
"llur;@@@++++++++++9w6w*9+++++++lll",
"lur:@@@+++++++++++96w169++++++++ll",
"lre;@@@+++++++++++9666f9++++++++ll",
"lr:;=@@+++++++++++966w6+++++++++ll",
"lr:=@@@++++++++++++9999+++++++++ll",
"le-#@@@++++++++++++++++++++++++++l",
"lr;=@@+++++++++++++++++++++++++++l",
"i:-=@@+++++++++++++++++++++++++++l",
"ye;=@++++++++++++++++++++++++++++l",
"r:;=@+++++++++++++++++++++++++++++",
"y:=+++++++++++++++++++++++++++++++",
"e;=+++++++++++++++++++++++ lllllll",
"r;#++++++++++++++++++++++  2222lll",
"e-#+++++++++++++++++++++   22222ll",
"r;#++++++++++++++++++++   +22222ll",
"r;#++++++++++++++++++   ++++2222ll",
"ee#++++++++++++++++    +++++2222ll",
"::;#+++++++++++++    +++++++2222ll",
";;:#+++++++++++    ++++++++++22lll",
"-;;#++++++++++    +++++++++++lllll",
"=---+++++++++#@++++++++++++++lllll",
"====#+++++++=#@++++++++++++++lllll",
"###==++++++=#@+++++++++++++++lllll",
"@@###+++++;-=#@++++++++++++++lllll",
"++@@@@+++;-=#@@++++++++++++++lllll",
"lll++@++:;-=#@@@++++++++++++++llll",
"lll222222-=#@@@@@+++++++++++++llll",
"lll222222-==#@@@@+++++++++++++llll",
"lll222222-=##@@@@@++++++++++++llll",
"lll222222-=###@@@@++++++++++++llll",
"lll222222;=####@@@++++++++++++llll",
"llll2222;-####@@@+++++++++++++llll",
"lllllure;-###@@@++++++++++++++llll",
"lllllure:=##@@@+++++++++++++++llll",
"lllllye:;=##@@@+++++++++++++++llll",
"lllllyr:;=#@@@++++++++++++++++llll",
"lllllye:-=@@@+++++++++++++++++llll",
"lllluye:-=@@@+++++++++++++++++llll",
"llllure;-#@@++++++++++++++++++llll",
"llllyr:;-#@+++++++++++++++++++llll",
"llllye:;=#++++++++++++++++++++llll",
"llllre:-=#++++++++++++++++++++llll",
"llllre;-=@++++++++++++++++++++llll",
"lllle:-=#+++++++++++++++++++++llll",
"lllue:;=#@+++++++++++++++++++lllll",
"lllye;-#@@+++++++++++++++++++lllll",
"lllr:;-=#@+++++++++++++++++++lllll",
"lllr:;=#@@++++++++++++++++++Xlllll",
"llle;-##@@++++++++++++++++++Xlllll",
"llll;-=##@@+++++++++++++++.XXlllll",
"llll;==##@@++++++++++++++,XXllllll",
"lllXX==##@@++++++++++++XXXXXllllll",
"lllXX==##@@+++++++++++XXXXXXllllll",
"lllXXXX##@@++++++++XXXXXXXXXllllll",
"lllXXXXXXX@++++,>&%$XXXXXXXlllllll",
"lllXXXXXXXXXX<<,>&$.XXXXXXXlllllll",
"llllXXXXXXXXXX&,$.. XXXXXXllllllll",
"llllXXXXXXXXXXXXXXXXXXXXllllllllll",
"lllllXXXXXXXXXXXXXXXXlllllllllllll",
"llllllXXXXXXXXXXXXXXllllllllllllll",
"lllllllllXXXXXXlllllllllllllllllll"
};
