/* XPM */
static char *result[] = {
/* columns rows colors chars-per-pixel */
"45 108 51 1 ",
"  c #280404",
". c #3C0808",
"X c #281804",
"o c #301C08",
"O c #041024",
"+ c #0C1430",
"@ c #0C243C",
"# c #511410",
"$ c #691C14",
"% c #7D281C",
"& c #71592C",
"* c #143049",
"= c #183C55",
"- c #184965",
"; c #1C5575",
": c #923828",
"> c #AA4530",
", c #BE553C",
"< c #9A753C",
"1 c #9A6D55",
"2 c #9E7159",
"3 c #A6795D",
"4 c #AE7D65",
"5 c #D36949",
"6 c #EB7D55",
"7 c #B28A45",
"8 c #B28669",
"9 c #BA8A6D",
"0 c #F7BA55",
"q c #C39271",
"w c #CB9A79",
"e c #F7C76D",
"r c #206586",
"t c #207596",
"y c #7D7586",
"u c #2486A6",
"i c #388EB2",
"p c #4D9ABE",
"a c #65A6CB",
"s c #8A8296",
"d c #A29AAE",
"f c #CFA682",
"g c #D7B28A",
"h c #DFC396",
"j c #F7D38A",
"k c #E3CBA2",
"l c #EBDBAA",
"z c #EFE3B6",
"x c #82B6D7",
"c c #9EC7E3",
"v c None",
/* pixels */
"vvvvvvvvvvvvvvvvvvvvvXXXXXXvvvvvvvvvvvvvvvvvv",
"vvvvvvvvvvvvvvvvvvvvXXXXXXXXvvvvvvvvvvvvvvvvv",
"vvvvvvvvvvvvvvvvvvvXXXXXXXXXXvvvvvvvvvvvvvvvv",
"vvvvvvvvvvvvvvvvvvvXXXXXXXXXXvvvvvvvvvvvvvvvv",
"vvvvvvvvvvvvvvvvvvvXXXXXXXXXXvvvvvvvvvvvvvvvv",
"vvvvvvvvvvvvvvvvvvvXXXXXXXXXXvvvvvvvvvvvvvvvv",
"vvvvvvvvvvvvvvvvvvvXXXXXXXXXXvvvvvvvvvvvvvvvv",
"vvvvvvvvvvvvvvvvvvvXXXXXXXXXXvvvvvvvvvvvvvvvv",
"vvvvvvvvvvvvvvvvvvvXXXXXXXXXXvvvvvvvvvvvvvvvv",
"vvvvvvvvvvvvvvvvvvvv9qfghkXXvvvvvvvvvvvvvvvvv",
"vvvvvvvvvvvvvvvv1348qwffgklvvvvvvvvvvvvvvvvvv",
"vvvvvvvvvvvvvvvv1139qwwffgklzvvvvvvvvvvvvvvvv",
"vvvvvvvvvvvvvvv11138889qwfgkzvvvvvvvvvvvvvvvv",
"vvvvvvvvvvvvvvv1113334489qwllzvvvvvvvvvvvvvvv",
"vvvvvvvvvvvvvvv111112233389hkzvvvvvvvvvvvvvvv",
"vvvvvvvvvvvvvv1111122222229gklvvvvvvvvvvvvvvv",
"vvvvvvvvvvvvvv1111111112224fhkvvvvvvvvvvvvvvv",
"vvvvvvvvvvvvvv1111111111124qfhvvvvvvvvvvvvvvv",
"vvvvvvvvvvvvvv111y-111111s39ghvvvvvvvvvvvvvvv",
"vvvvvvvvvvvvvvv11y-y1244y-d9ggvvvvvvvvvvvvvvv",
"vvvvvvvvvvvvvvv111-y1248y-9qffvvvvvvvvvvvvvvv",
"vvvvvvvvvvvvvvv1111111q8438qwwvvvvvvvvvvvvvvv",
"vvvvvvvvvvvvvvv111111188448qwwvvvvvvvvvvvvvvv",
"vvvvvvvvvvvvvvvv111111444489qvvvvvvvvvvvvvvvv",
"vvvvvvvvvvvvvvvv1111113444898vvvvvvvvvvvvvvvv",
"vvvvvvvvvvvvvvvvv11111233444vvvvvvvvvvvvvvvvv",
"vvvvvvvvvvvvvvvvvvv11112332vvvvvvvvvvvvvvvvvv",
"vvvvvvvvvvvvvvvvvvvv11121g0vvvvvvvvvvvvvvvvvv",
"vvvvvvvvvvvvvvvvv**043129h0avvvvvvvvvvvvvvvvv",
"vvvvvvvvvvvvvv++@@@042123q0ppvvvvvvvvvvvvvvvv",
"vvvvvvvvvvvv++++++0+31233tu0ippvvvvvvvvvvvvvv",
"vvvvvvvvvvv+++++OO0+21233;r0tuuppvvvvvvvvvvvv",
"vvvvvvvvv++++++OO0OOO+@@*=-0;rtuupavvvvvvvvvv",
"vvvvvvv++OOOO+OOO0OOO+@@**=0-;rttuiaxvvvvvvvv",
"vvvvvv+OOOOOOOOOOO0OO+@****0==-;rtuiipxvvvvvv",
"vvvvvvOOOOOOOOOOOO0OO+@@@@*0**=-;rttuipcvvvvv",
"vvvvvOOOOOOOOOOOOO0O+++@@@0@***=--;rrtupvvvvv",
"vvvvvOOOOOOOOOOOOO0O++++++0@@@***=--;rtuxvvvv",
"vvvvOOOOOOOOOOOOOOOOOOOOO+0++@@@**==-;ruavvvv",
"vvvvOOOOOOOOOOOOOOO0OOOOOO0++++@@@@*=-;taxvvv",
"vvvOOOOOOOOOOOOOOOOO0OOOO0OOOO++++@**==;upvvv",
"vvvOOOOOOOOOOOOOOOOOO0O00OOOOOOOO+++@*-rupcvv",
"vvOOOOOOOOOOOOOOOOOOO000OOOOOOOOOOO+++*-riavv",
"vvOOOOOOOOOOOOOOOOO0077700OOOOOOOOOOO@*-ruivv",
"vvOOOOOOOOOOOOOOOO077j7e70OOOOOOOOOOO+@=;rpxv",
"vvOOOOOOOOOOOOOOOO07ee&7e70OOOOOOOOOOO+*-;tav",
"vOOOOOOOOOOOOOOOO0777ee<770OOOOOOOOOOO+@*-rav",
"vOOOOOOOOOOOOOOOOO077<<e770OOOOOOOOOO++@@=;rv",
"vOOOOOOOOOOOOOOOOO07e777j0OOOOOOOOOOO++@@*=rx",
"OOOOOOOOOOOOOOOOOOO0077700OOOOOOOOOOO++@@**-;",
"OOOOOOOOOOOOOOOOOOOOO000OOOOOOOOOOOOO++@@**=;",
"OOOOOOOOOOOOOOOOOOOOOOOOOOOOOOOOOOOOO++@@**==",
"OOOOOOOOOOOOOOOOOOOOOOOOOOOOOOOOOOOOO++@@**==",
"OOOOOOOOOOOOOOOOOOOOOOOOOOOOOOOOOOOOO++@@***=",
"OOOOOOOOOOOOOOOOOOOOOOOOOOOOOOOOOOOOO++@@**==",
"OOOOOOOOOOOOOOOOOOOOOOOOOOOOOOOOOOOOO+++@@**=",
"OOOOOOOOOOOOOOOOOOOOOOOOOOOOOOOOOOOOO+++@@**=",
"OOOOOOOOOOOOOOOOOOOOOOOOOOOOOOOOOOOOO+++@@**=",
"OOOOOOOOOOOOOOOOOOOOOOOOOOOOOOOOOOOOO++++@@**",
"OOOOOOOOOOOOOOOOOOOOOOOOOOOOOOOOOOOO++++@@**r",
"OOOOOOOOOOOOOOOOOOOOOOOOOOOOOOOOOOOO++++@@@*;",
"OOOOOOOOvvv           OOOOOOOOOOOOOO++++@@@*;",
"OOOOOOvvvvv            ..########ivv++++@@@*-",
"OOOvvvvvvvO            ..##$%%%%%tavvvv+@@@@=",
"v1111vvvvvOOOOOOOOOOOOO++@@*==-;;rivvvvvv@@*v",
"111111vvvOOOOOOOOOOOOOOO++@@*==-;rrxvvv1111vv",
"111111vvvOOOOOOOOOOOOOOO++@@*==--;tpvv111111v",
"111111vvOOOOOOOOOOOOOOOOO++@@*=-;rttvv111111v",
"111111vvOOOOOOOOOOOOOOOOO++@@*==-;rtav111111v",
"111111vOOOOOOOOOOOOOOOOOOO++@@=-;rtuiv111111v",
"v1111vvOOOOOOOOOOOOOOOOOOO++@@*=-;rtuv111111v",
"vvvvvvOOOOOOOOOOOOOOOOOOOO++@@*=-;rtupv1111vv",
"vvvvvvOOOOOOOOOOOOOOOOOOOOO++@*=-;rtuivvvvvvv",
"vvvvvvOOOOOOOOOOOOOOOOOOOOO++@*=-;ttuivvvvvvv",
"vvvvvvOOOOOOOOOOOOOOOOOOOOOO+@*=-;;rtuvvvvvvv",
"vvvvvvOOOOOOOOOOOOOOOOOOOOOO+@*=--;rtuvvvvvvv",
"vvvvvvOOOOOOOOOOOOOOOOOOOOOO+@**=-;rtuvvvvvvv",
"vvvvvvOOOOOOOOOOOOOOOOOOOOOO++@@*=-;rtvvvvvvv",
"vvvvvOOOOOOOOOOOOOOOOOOOOOOO++@@*=-;rtvvvvvvv",
"vvvvvOOOOOOOOOOOOOOOOOOOOOOO++@@*=-;rtuvvvvvv",
"vvvvvOOOOOOOOOOOOOOOOOOOOOOO++@@**=-;rrvvvvvv",
"vvvvvOOOOOOOOOOOOOOOOOOOOOOO++@@**=-;;rvvvvvv",
"vvvvvOOOOOOOOOOOOOOOOOOOOOOO++@@**=--;rvvvvvv",
"vvvvvOOOOOOOOOOOOOOOOOOOOOOO++@@**=--;;vvvvvv",
"vvvvvOOOOOOOOOOOOOOOOOOOOOOO++@@**=--;;vvvvvv",
"vvvvvOOOOOOOOOOOOOOOOOOOOOOO++@@**=--;rvvvvvv",
"vvvvvOOOOOOOOOOOOOOOOOOOOOOO++@@**=--;;vvvvvv",
"vvvvvOOOOOOOOOOOOOOOOOOOOOOO++@@**=--;;vvvvvv",
"vvvvvOOOOOOOOOOOOOOOOOOOOOOO++@@**=----vvvvvv",
"vvvvvOOOOOOOOOOOOOOOOOOOOOOO++@@**=----vvvvvv",
"vvvvvOOOOOOOOOOOOOOOOOOOOOOO++@@**=-===vvvvvv",
"vvvvvvOOOOOOOOOOOOOOOOOOOOOO++@@**=====vvvvvv",
"vvvvvvOOOOOOOOOOOOOOOOOOOOOO++@@*==***vvvvvvv",
"vvvvvvOOOOOOOOOOOOOOOOOOOOOO++@@******vvvvvvv",
"vvvvvvOOOOOOOOOOOOOOOOOOOOOO++@@***@@@vvvvvvv",
"vvvvvvOOOOOOOOOOOOOOOOOOOOOO++@@@@@@@@vvvvvvv",
"vvvvvvOOOOOOOOOOOOOOOOOOOOOO++@@@@@+++vvvvvvv",
"vvvvvvOOOOOOOOOOOOOOOOOOOOOO++@@++++++vvvvvvv",
"vvvvvvvvoXOOOOOOOOOOOOOOOOOO+++++++OOOvvvvvvv",
"vvvvvvvvvXXo$OOOOOOOOOOOOOOO+++OOOoXoovvvvvvv",
"vvvvvvvvvXXo$%>56OOOOOOOOOOOOOO6XoXoXvvvvvvvv",
"vvvvvvvvvvXo.:>,6XoXooXXoXo #%>5XXooXvvvvvvvv",
"vvvvvvvvvvoX $:>5XoXoXooXXo.$:>5oXoovvvvvvvvv",
"vvvvvvvvvvvooXo:5XXoXooXoXo #%>5ooXvvvvvvvvvv",
"vvvvvvvvvvvvvXooXoXoXXoXoXoXoXoXoXvvvvvvvvvvv",
"vvvvvvvvvvvvvvoXXooXooXoXoooXoXvvvvvvvvvvvvvv",
"vvvvvvvvvvvvvvvvXoXooXoXoXoXoovvvvvvvvvvvvvvv",
"vvvvvvvvvvvvvvvvvvvXooXXovvvvvvvvvvvvvvvvvvvv"
};
