/* XPM */
static char *result[] = {
/* columns rows colors chars-per-pixel */
"30 93 34 1 ",
"  c #280404",
". c #281804",
"X c #301C08",
"o c #38240C",
"O c #041024",
"+ c #0C1430",
"@ c #0C243C",
"# c #511410",
"$ c #691C14",
"% c #143049",
"& c #183C55",
"* c #184965",
"= c #1C5575",
"- c #9A6D55",
"; c #9E7159",
": c #A6795D",
"> c #AE7D65",
", c #B28669",
"< c #BA8A6D",
"1 c #F7BA55",
"2 c #C39271",
"3 c #CB9A79",
"4 c #206586",
"5 c #207596",
"6 c #2486A6",
"7 c #388EB2",
"8 c #4D9ABE",
"9 c #65A6CB",
"0 c #CFA682",
"q c #D7B28A",
"w c #DFC396",
"e c #82B6D7",
"r c #D3CFDF",
"t c None",
/* pixels */
"ttttttttt......ttttttttttttttt",
"tttttttt........t<20qqtttttttt",
"tttttttt........>,2300qttttttt",
"ttttttttt........>2230qqwqtttt",
"ttttttXXXX.......:>,<223qwqttt",
"tttttXXXXXX......-;;:>,,20qrtt",
"tttttXXXXXX......-;;;;:><2q0tt",
"tttttXXXXXX......;;;;;;:,<20tt",
"tttttXXXXXX.....----;;;:><20tt",
"tttttXXXXXXtttt--------:>>,<tt",
"tttttoXXXXttttt--------;:>>,tt",
"tttttoooottttttt--------;:>2tt",
"tttttoooottttttt----------;>tt",
"tttttoooottttttttt---------ttt",
"ttttttttttttttttt----------ttt",
"ttttttttttttttttt----:tttttttt",
"tttttttttttttttt-----:tttttttt",
"tttttttttttt*=&+----;,0ttttttt",
"tttttttttt%%&*@OO---;,3ttttttt",
"ttttttttO++@%+OOOOO113wttttttt",
"ttttttttOOO+OOOOOOOO%11ttttttt",
"tttttttOOOOOOOOOOOOO@&*11ttttt",
"tttttttOOOOOOOOOOOOO@&*4t1tttt",
"ttttttOOOOOOOOOOOOOO@&*471tttt",
"ttttttOOOOOOOOOOOOO@&*44681ttt",
"tttttOOOOOOOOOOOOOO@&*=4589ttt",
"tttttOOOOOOOOOOOOOO@@%&*468ttt",
"ttttOOOOOOOOOOOOOOO+@%&*=59ett",
"ttttOOOOOOOOOOOOOOOO+@%&*5791t",
"tttOOOOOOOOOOOOOOOOO++@%&4691t",
"tttOOOOOOOOOOOOOOOOO++@@%=571t",
"tttOOOOOOOOOOOOOOOOOO++@@*471t",
"ttOOOOOOOOOOOOOOOOOOO++@@&46tt",
"ttOOOOOOOOOOOOOOOOOOO+++@&=46t",
"ttOOOOOOOOOOOOOOOOOO++++++=57t",
"ttOOOOOOOOOOOOOOOOOOOOO+++&=5t",
"tOOOOOOOOOOOOOOOOOOOOOOOO@&=5t",
"tOOOOOOOOOOOOOOOOOOOOOOOOO@*4t",
"tOOOOOOOOOOOOOOOOOOOOOOOOO@*5t",
"tOOOOOOOOOOOOOOOOOOOOOOOOO@*4t",
"OOOOOOOOOOOOOOOOOOOOOOOOOO@*=t",
"OOOOOOOOOOOOOOOOOOOOOOOOOO@*4t",
"OOOOOOOOOOOOOOOOOOOOOOOOOO@&=6",
"tttttttOOOOOOOOOOOOOOOOOOO%=57",
"ttt----OOOOOOOOOOOOOOOOOOO%*46",
"tt------OOOOOOOOOOOOOOOOOO@&=5",
"tt------OOOOOOOOOOOOOOOOO+%*57",
"tt------t OOOOOOOOOOOOOOOO@&46",
"tt------O  OOOOOOOOOOOOOO+%*47",
"tt------OO  OOOOOOOOOOOOOO+&=5",
"ttt----OOOOO OOOOOOOOOOOO+@&=6",
"tttttttOOOOOO OOOOOOOOOOO+@%*4",
"tttttttOOOOOOOO     OOOOO+@%=5",
"tttttttOOOOOOOOOO   OOOOO+@%&=",
"tttttttOOOOOOOOOOOOOOOOO+@%&*4",
"ttttttOOOOOOOOOOOOOO+OOO+@%&**",
"ttttttOOOOOOOOOOOOOO+OOO+@%&*=",
"ttttttOOOOOOOOOOOOOO+OOO+@%&*=",
"ttttttOOOOOOOOOOOOOO++O+@%&*=4",
"ttttttOOOOOOOOOOOOOO+----&&*=t",
"ttttttOOOOOOOOOOOOOO------&**t",
"tttttOOOOOOOOOOOOOOO------&*=t",
"tttttOOOOOOOOOOOOOOO------&*=t",
"tttttOOOOOOOOOOOOOOO------&*=t",
"tttttOOOOOOOOOOOOOOO------&*=t",
"ttttOOOOOOOOOOOOOOOO+----&**=t",
"ttttOOOOOOOOOOOOOOOO++@@%&*=4t",
"ttttOOOOOOOOOOOOOOOO++@@%&*=tt",
"tttOOOOOOOOOOOOOOOOO++@%&&*=tt",
"tttOOOOOOOOOOOOOOOOO++@%&*==tt",
"ttOOOOOOOOOOOOOOOOOO++@%&*=4tt",
"ttOOOOOOOOOOOOOOOOOO+@%%&*=4tt",
"ttOOOOOOOOOOOOOOOOOO+@%&&*=4tt",
"tOOOOOOOOOOOOOOOOOOO+@%&&*=5tt",
"tOOOOOOOOOOOOOOOOOOO+@%&&*=4tt",
"tOOOOOOOOOOOOOOOOOOO+@%&&*==tt",
"OOOOOOOOOOOOOOOOOOOO+@%&&*==tt",
"OOOOOOOOOOOOOOOOOOOO+@%&&***tt",
"tOOOOOOOOOOOOOOOOOOO+@%&**&&tt",
"tOOOOOOOOOOOOOOOOOOO+@%&&&&ttt",
"t.OOOOOOOOOOOOOOOOOO+@%&&%%ttt",
"t.OOOOOOOOOOOOOOOOOO+@%%%%%ttt",
"....OOOOOOOOOOOOOOOO+@%%@@@ttt",
".....OOOOOOOOOOOOOOO+@@@@++ttt",
".......OOOOOOOOOOOOO+@+++++ttt",
"t........OOOOOOOOOOO++++...ttt",
"t..........OOOOOOOOO+O....tttt",
"ttt......... $###.........tttt",
"ttt.......................tttt",
"tttt......................tttt",
"ttttttt..................ttttt",
"tttttttt.................ttttt",
"ttttttttttttt..........ttttttt"
};
