/* XPM */
static char *result[] = {
/* columns rows colors chars-per-pixel */
"40 101 49 1 ",
"  c #1C0000",
". c #000814",
"X c #000C1C",
"o c #280400",
"O c #340804",
"+ c #201404",
"@ c #241808",
"# c #2C1C0C",
"$ c #041828",
"% c #0C2030",
"& c #142C3C",
"* c #4D1C10",
"= c #592818",
"- c #71412C",
"; c #203849",
": c #304551",
"> c #41515D",
", c #556169",
"< c #5D6971",
"1 c #65757D",
"2 c #825138",
"3 c #865D49",
"4 c #926145",
"5 c #8E6551",
"6 c #9A715D",
"7 c #A27555",
"8 c #A27D69",
"9 c #B28665",
"0 c #AE8A79",
"q c #C39A75",
"w c #C3A669",
"e c #6D7D8A",
"r c #758692",
"t c #7D929E",
"y c #92929E",
"u c #BA9686",
"i c #BE9E8A",
"p c #869AAA",
"a c #9EA2AA",
"s c #AAAAB6",
"d c #C3A692",
"f c #C7AE9A",
"g c #CBB6A2",
"h c #CFBEA6",
"j c #D3C7AE",
"k c #D7CFB6",
"l c #DBD3BE",
"z c #E3DBC7",
"x c None",
/* pixels */
"xxxxxxxxxxxxxxxxxxxxxxxxxxx@@@@@@xxxxxxx",
"xxxxxxxxxxxxxxxxx08653xxxx@@@@@@@@xxxxxx",
"xxxxxxxxxxxxx0uuiuuu085xx@@@@@@@@@@xxxxx",
"xxxxxxxxxxxxxiidddiiii5xx@@@@@@@@@@xxxxx",
"xxxxxxxxxxxx0idffffddd06x@@@@@@@@@@####x",
"xxxxxxxxxxxxuifgggfffdu06@@@@@@@@@@#####",
"xxxxxxxxxxx0ugjkhggggdi06@@@@@@@@@@#####",
"xxxxxxxxxd8ifjlzkhhhhdi08@@@@@@@@@@#####",
"xxxxxxxxhhyagjlzzljhgdu06@@@@@@@@@@#####",
"xxxxxxxxjh;shkzzllkjhfiu86@@@@@@@@######",
"xxxxxxxjjhsskzzzlkjjgdi063x@@@@@@#######",
"xxxxxxxjjjklzzzlkkjhfiu85xxxxxxx########",
"xxxxxxxujjkllzlkkjhhgd053xxxxxxxx######x",
"xxxxxxxxjjkkllkkjhhgd053xxxxxxxxxxxxxxxx",
"xxxxxxxxjjjkkkkjjhgd053xxxxxxxxxxxxxxxxx",
"xxxxxxxxxghjjjjhgfi06xxxxxxxxxxxxxxxxxxx",
"xxxxxxxxxxfghhhgfi06xxxxxxxxxxxxxxxxxxxx",
"xxxxxxxxxxxidfhdu085xxxxxxxxxxxxxxxxxxxx",
"xxxxxxxxxxxxxxx6uu08xxxxxxxxxxxxxxxxxxxx",
"xxxxxxxxxxxxxxx88i03....xxxxxxxxxxxxxxxx",
"xxxxxxxxxxxxxxxuudi3....xxxxxxxxxxxxxxxx",
"xxxxxxxxxxxxxxiiddfX.....xxxxxxxxxxxxxxx",
"xxxxxxxxxxxxxwffffw;XX...xxxxxxxxxxxxxxx",
"xxxxxxxxxxxxw%ghww<:XXXX..xxxxxxxxxxxxxx",
"xxxxxxxxxxxwxeww11<,$XXXX.xxxxxxxxxxxxxx",
"xxxxxxxxxxwx;weeee<>$$XXX..xxxxxxxxxxxxx",
"xxxxxxxxxwxxw1erre1,:$$$X..xxxxxxxxxxxxx",
"xxxxxxxxxwww<1erre<>:$$$X..xxxxxxxxxxxxx",
"xxxxxxxxwwx,<1ert11,>;%$X..xxxxxxxxxxxxx",
"xxxxxxxxwwx<11erte1,:;%$X..xxxxxxxxxxxxx",
"xxxxxxxxwx,<1eettr<>::&%$X..xxxxxxxxxxxx",
"xxxxxxxwwx,<1ertrr1,>;&%$X..xxxxxxxxxxxx",
"xxxxxxxwx:,<1ertre<,:;&%$X..xxxxxxxxxxxx",
"xxxxxxwwx>,<1ertre1,>;&%$X..xxxxxxxxxxxx",
"xxxxxxwwx>,<1ertre<,:;%$XX..xxxxxxxxxxxx",
"xxxxxxwx;>,1erptre1<>;%%$X..xxxxxxxxxxxx",
"xxxxxxwx;><1rtptre1,>;%$X....xxxxxxxxxxx",
"xxxxxxxx;><<erptre1<>;%$X....xxxxxxxxxxx",
"xxxxxxxx:><1erptre1,>;%%$....xxxxxxxxxxx",
"xxxxxxxx;><etpptre1,>;%$X....xxxxxxxxxxx",
"xxxxxxxx:><etpttre1,:;%$X....xxxxxxxxxxx",
"xxxxxxxx:><rtpptr11,:;%$X....xxxxxxxxxxx",
"xxxxxxx;>><tppttre1,:;%X.....xxxxxxxxxxx",
"xxxxxxx;><1rppptre<>;&%X.....xxxxxxxxxxx",
"xxxxxxx&:,1rpptrre<,:&$X.....xxxxxxxxxxx",
"xxxxxxx;:,1rppttre,>;&$X.....xxxxxxxxxxx",
"xxxxxxx;>,1pppttre<>;&$X.....xxxxxxxxxxx",
"xxxxxxx&:,eppptre<,::&$X.....xxxxxxxxxxx",
"xxxxxxx;><eppptre1,>&XXX....xxxxxxxxxxxx",
"xxxxxxx&:1eptttre<>;%XXX....xxxxxxxxxxxx",
"xxxxxx:;<1ettttre1,;%XX.....xxxxxxxxxxxx",
"xxxxxx>&<1ettttre<>;%X......xxxxxxxxxxxx",
"xxxxxx,%11ettttre<>;$......xxxxxxxxxxxxx",
"xxxxxx<<1erttrre1<:&$..XXXXxxxxxxxxxxxxx",
"xxxxx,11eertrrrr1,:&%.XXXX.xxxxxxxxxxxxx",
"xxxxx<e1errrrrrr1,;%.XX$$$.xxxxxxxxxxxxx",
"xxxxx11errrrrrrr1,;%.X$$$XXxxxxxxxxxxxxx",
"xxxx,11eerrrrrre,;%.XX$$$XX.xxxxxxxxxxxx",
"xxxx<r1errrree11,;%. ooO$$X.xxxxxxxxxxxx",
"xxxxererrreee1<<;%.***=%$$X.xxxxxxxxxxxx",
"xxxx11ereeee1<,,;%.22<:%$$$.xxxxxxxxxxxx",
"xxx<eeeeee11<,>>%.rr<:&%%$$.xxxxxxxxxxxx",
"xxx1eeeee1<<,>>:%.rr<>&%%$$.xxxxxxxxxxxx",
"xxx<eee1<,,>::;%.rre>;&&&%%$xxxxxxxxxxxx",
"xxx1e1<<,>>:;;&%.ree,;;&&%%$xxxxxxxxxxxx",
"xxx<1<<,>::;&&%.ree1:;;&&&%%.xxxxxxxxxxx",
"xxx<1rt3:;;&%%$.e11<::;;&&%%.xxxxxxxxxxx",
"xxx<1e33333%$$Xe11<:::;;&&%%.xxxxxxxxxxx",
"xx,<er333333rre11<<>>::;;&&%.xxxxxxxxxxx",
"xx,11r333333ree1<<,>>::;;&&%Xxxxxxxxxxxx",
"xx><1r333333re11<,,>>:::;;&&.xxxxxxxxxxx",
"xx><1r333333ree1<<,,>>::;;&&.xxxxxxxxxxx",
"xx,<1et3333tree11<,,>>:::;;&.xxxxxxxxxxx",
"xx,<eetpptttrre11<<,>>::;;;&.xxxxxxxxxxx",
"xx>,1erpttttrree1<<,,>>::;;&.xxxxxxxxxxx",
"xx,,1erptttrrre11<<,,>>:;;&%.xxxxxxxxxxx",
"xx><1rpttttrrree1<<<,,>:;;&%.xxxxxxxxxxx",
"xx,<1rttttrrrree11<<,>>:;;&%.xxxxxxxxxxx",
"xx:,1rtttrrrreee11<<,>>:;;&$.xxxxxxxxxxx",
"xx;><erttrrreeee11<<,>>:;;&$.xxxxxxxxxxx",
"xx:,1rttrrreeeee11<<,>>:;;&$.xxxxxxxxxxx",
"xx;><ettrrrreee111<<,,>::;&%$xxxxxxxxxxx",
"xx;><ertrrreeee111<<,,>::;&%$xxxxxxxxxxx",
"xx;>,1rrrrreeee111<<,>::;&&%Xxxxxxxxxxxx",
"xx&:,<errrreeee111<,,>::;&&$Xxxxxxxxxxxx",
"xx&;><1eerreee1111<,,>::;&&$Xxxxxxxxxxxx",
"xx%;:,1eerreee1111<,,>::;&%$Xxxxxxxxxxxx",
"x+$&:><11eeeee1111<,,>::;&%$.+xxxxxxxxxx",
"x++;><<<11eee1111<<,>>::;&%$.+xxxxxxxxxx",
"+++;:,,<<11ee111<<<,,>::;&%X.++xxxxxxxxx",
"++++:>,,<<11e111<<,,>>::;;$X+++xxxxxxxxx",
"x+++;>>,,,<<1111<<<,>>::;%$++++xxxxxxxxx",
"x++++:>>,,<<1111<<,,>>:;;&%++++xxxxxxxxx",
"xx+++::>>>,,<<1<<<,,>>::;&++++xxxxxxxxxx",
"xxx++-;::>>,,<<1<<,>>::;;+++++xxxxxxxxxx",
"xxx+++99999>,,<<<<,>>++++++++xxxxxxxxxxx",
"xxxxx+qq99997774442+++++++++xxxxxxxxxxxx",
"xxxxxx++++++++++++++++++++xxxxxxxxxxxxxx",
"xxxxxxx++++++++++++++++xxxxxxxxxxxxxxxxx",
"xxxxxxxxxx+++++++++++xxxxxxxxxxxxxxxxxxx",
"xxxxxxxxxxx++++++xxxxxxxxxxxxxxxxxxxxxxx"
};
