/* XPM */
static char *result[] = {
/* columns rows colors chars-per-pixel */
"50 106 38 1 ",
"  c #280404",
". c #281804",
"X c #301C08",
"o c #38240C",
"O c #041024",
"+ c #0C1430",
"@ c #0C243C",
"# c #691C14",
"$ c #143049",
"% c #183C55",
"& c #184965",
"* c #1C5575",
"= c #BE553C",
"- c #9A6D55",
"; c #9E7159",
": c #A6795D",
"> c #AE7D65",
", c #B28669",
"< c #BA8A6D",
"1 c #F7BA55",
"2 c #C39271",
"3 c #CB9A79",
"4 c #206586",
"5 c #207596",
"6 c #2486A6",
"7 c #388EB2",
"8 c #4D9ABE",
"9 c #65A6CB",
"0 c #CFA682",
"q c #D7B28A",
"w c #DFC396",
"e c #E3CBA2",
"r c #EBDBAA",
"t c #EFE3B6",
"y c #82B6D7",
"u c #9EC7E3",
"i c #F7EFC3",
"p c None",
/* pixels */
"ppppppppppppppppppppppp22222pppppppppppppppppppppp",
"ppppppppppppppppppppp223300qqwpppppppppppppppppppp",
"ppppppppppppppppppp-<2233300qqwwpppppppppppppppppp",
"pppppppppppppppppp--,<<233000qqwippppppppppppppppp",
"pppppppppppppppppp->,,<223300qqwtppppppppppppppppp",
"ppppppppppppppppp-:>>,......00qqwrpppppppppppppppp",
"ppppppppppppppppp-;:..........qqwepppppppppppppppp",
"ppppppppppppppppp--;..........30qwpppppppppppppppp",
"pppppppppppppppp---............30qpppppppppppppppp",
"pppppppppppppppp---............333pppppppppppppppp",
"pppppppppppppppp---............222pppppppppppppppp",
"ppppppppppppppppp--............<<<pppppppppppppppp",
"ppppppppppppppppp--............>,,pppppppppppppppp",
"pppppppppppppppppp-............:>ppppppppppppppppp",
"pppppppppppppppppp-...XXXXXX...;;ppppppppppppppppp",
"ppppppppppppppppppp-.XXXXXXXX.--pppppppppppppppppp",
"pppppppppppppppppppp.XXXXXXXX.pppppppppppppppppppp",
"pppppppppppppppppppppXXXXXXXXppppppppppppppppppppp",
"pppppppppppppppppppppXXXXXXXXppppppppppppppppppppp",
"pppppppppppppppppppppXXXXXXXXppppppppppppppppppppp",
"pppppppppppppppppppppXXXXXXXXppppppppppppppppppppp",
"pppppppppppppppppppp1XXXXXXXXpp1pppppppppppppppppp",
"ppppppppppppppppppp$$1XXXXXX2111pppppppppppppppppp",
"ppppppppppppppp@@++++Ooooooo-5689ppppppppppppppppp",
"ppppppppppppp+@@++++OOoooooo*456788ppppppppppppppp",
"pppppppppppp+++++++OOOoooooo%*4567889ppppppppppppp",
"pppppppppp++++++++OOOOOoooo@$%&*456789yppppppppppp",
"pppppppppO++++++++OOOOOOO+++@$%&*4566789yppppppppp",
"pppppppOO++++++++OOOOOOO++++++@%&*4456789yyppppppp",
"ppppppOOO+++++OOOOOOOOOO+++++++@%&*4556789yupppppp",
"ppppppOOOOOOOOOOOOOOOOO+++++++++$$%&*4567889pppppp",
"pppppOOOOOOOOOOOOOOOO+++++++++++@@$%&*445678yppppp",
"ppppOOOOOOOOOOOOOOOOOO++++++++++@@@$$%&*45669ppppp",
"ppppOOOOOOOOOOOOOOOOOOO+++++++++++@@@$%&**4578pppp",
"pppOOOOOOOOOOOOOOOOOOOOO++++++++++++@$%&&*4458pppp",
"pppOOOOOOOOOOOOOOOOOOOOOOO+++++++++++@$%%&*4579ppp",
"ppOOOOOOOOOOOOOOOOOOOOOOOOO+++++++++++@$$%&*467ppp",
"ppOOOOOOOOOOOOOOOOOOOOOOOOOOO+++++++++@@$%%&*46ypp",
"ppOOOOOOOOOOOOOOOOOOOOOOOOOOOOOOOO++++++@$%&*469pp",
"pOOOOOOOOOOOOOOOOOOOOOOOOOOOOOOOOOOOOOOO+@$%*4569p",
"pOOOOOOOOOOOOOOOOOOOOOOOOOOOOOOOOOOOOOOO+@@$&*469p",
"OOOOOOOOOOOOOOOOOOOOOOOOOOOOOOOOOOOOOOOOO+@%&*458y",
"OOOOOOOOOOOOOOOOOOOOOOOOOOOOOOOOOOOOOOOOO+@$%&4568",
"OOOOOOOOOOOOOOOOOOOOOOOOOOOOOOOOOOOOOOOOOO+@%&*458",
"OOOOOOOOOOOOOOOOOOOOOOOOOOOOOOOOOOOOOOOOOO+@$%*457",
"OOOOOOOOOOOOOOOOOOOOOOOOOOOOOOOOOOOOOOOOOO+@$%*446",
"OOOOOOOOOOOOOOOOOOOOOOOOOOOOOOOOOOOOOOOOOOO+@$%*45",
"OOOOOOOOOOOOOOOOOOOOOOOOOOOOOOOOOOOOOOOOOOO+@$%&44",
"OOOOOOOOOOOOOOOOOOOOOOOOOOOOOOOOOOOOOOOOOOO+@$%**4",
"OOOOOOOOOOOOOOOOOOOOOOOOOOOOOOOOOOOOOOOOOOO+@$%&&*",
"OOOOOOOOOOOOOOOOOOOOOOOOOOOOOOOOOOOOOOOOOOOO@$%%&*",
"OOOOOOOOOOOOOOOOOOOOOOOOOOOOOOOOOOOOOOOOOOOO+@@$%&",
"OOOOOOOOOOOOOOOOOOOOOOOOOOOOOOOOOOOOOOOOOOOOO+@@$%",
"OOOOOOOOOOOOOOOOOOOOOOOOOOOOOOOOOOOOOOOOOOOOOO+@@$",
"OOOOOOOOOOOOOOOOOOOOOOOOOOOOOOOOOOOOOOOOOOOOOOO+@@",
"OOOOOOOOOOOOOOOOOOOOOOOOOOOOOOOOOOOOOOOOOOOOOOOO+@",
"OOOOOOOOOOOOOOOOOOOOOOOOOOOOOOOOOOOOOOOOOOOOOOOO+@",
"OOOOOOOOOOOOO OOOOOOOOOOOOOOOOOOOOOO 899yOOOOOOOO+",
"OOOO-----OOOO  OOOOOOOOOOOOOOOOOOOOO 8899y----OOOO",
"p--------OOOO  OOOOOOOOOOOOOOOOOOOO #78899--------",
"p--------OOOO                      #=77888--------",
"p--------OOOOOOOOOO            &**455677788------p",
"pp------OOOOOOOOOOOOOOOOOO++@$$%&&*44566679ppppppp",
"ppppppppOOOOOOOOOOOOOOOOOOO++@@$%%&**455669ppppppp",
"ppppppppOOOOOOOOOOOOOOOOOOO++@@@$$%&&*44559ppppppp",
"pppppppOOOOOOOOOOOOOOOOOOOO+++@@@$$%%&*4448ypppppp",
"pppppppOOOOOOOOOOOOOOOOOOOO+++@@@$$$%%&&*789pppppp",
"pppppppOOOOOOOOOOOOOOOOOOOO+++@@@$$$%%%&&689pppppp",
"pppppppOOOOOOOOOOOOOOOOOOOO+++@@@$$$%%&&&79ypppppp",
"pppppppOOOOOOOOOOOOOOOOOOOO+++@@@$$%%%&&*789pppppp",
"pppppppOOOOOOOOOOOOOOOOOOOOO+++@@$$$%%%&*789pppppp",
"pppppppOOOOOOOOOOOOOOOOOOOOO++@@@$$$%%&&*679pppppp",
"pppppppOOOOOOOOOOOOOOOOOOOO+++@@@$$$%%&**678pppppp",
"pppppppOOOOOOOOOOOOOOOOOOOO+++@@@$$$%&**4678pppppp",
"pppppppOOOOOOOOOOOOOOOOOOOO++++@@@$$%&&*5678pppppp",
"pppppppOOOOOOOOOOOOOOOOOOOO++++@@@$%%&**5567pppppp",
"pppppppOOOOOOOOOOOOOOOOOOOO++++@@$$%&&*45678pppppp",
"pppppppOOOOOOOOOOOOOOOOOOO++++@@@$%%&**45678pppppp",
"pppppppOOOOOOOOOOOOOOOOOOO++++@@$$%&&&**4567pppppp",
"pppppppOOOOOOOOOOOOOOOOOOO+++++@@%%&&**44456pppppp",
"pppppppOOOOOOOOOOOOOOOOOOO+++++@$$%%&&**4456pppppp",
"ppppppppOOOOOOOOOOOOOOOOOO++++@@$$%%&&**445ppppppp",
"ppppppppOOOOOOOOOOOOOOOOOO++++@@$$%%&&**445ppppppp",
"ppppppppOOOOOOOOOOOOOOOOOOO++++@@$$%%&&**45ppppppp",
"ppppppppOOOOOOOOOOOOOOOOOOO++++@@$$%%&&&*44ppppppp",
"ppppppppOOOOOOOOOOOOOOOOOOO+++++@@$$%%&&**4ppppppp",
"ppppppppOOOOOOOOOOOOOOOOOOOO++++@@$$%%&&**4ppppppp",
"ppppppppOOOOOOOOOOOOOOOOOOOO+++++@@$$%%&&*4ppppppp",
"ppppppppOOOOOOOOOOOOOOOOOOOO+++++@@$$%%&**4ppppppp",
"ppppppppOOOOOOOOOOOOOOOOOOOOO+++++@@$$%&&*4ppppppp",
"ppppppppOOOOOOOOOOOOOOOOOOOOO+++++@@$$%%&**ppppppp",
"ppppppppOOOOOOOOOOOOOOOOOOOOOO+++++@@$%%&&*ppppppp",
"pppppppppOOOOOOOOOOOOOOOOOOOOO+++++@@$$%&&pppppppp",
"pppppppppXOOOOOOOOOOOOOOOOOOOO++++++@@$%%X.ppppppp",
"ppppppppp.XOOOOOOOOOOOOOOOOOOO++++++@@$$.X.ppppppp",
"pppppppppp.OOOOOOOOOOOOOOOOOOOO+++++@@$%X.pppppppp",
"ppppppppppX.OOOOOOOOOOOOOOOOOOO+++++@@$X.Xpppppppp",
"pppppppppppX.OOOOOOOOOOOOOOOOOO++++++@.X.ppppppppp",
"pppppppppppp.XOOOOOOOOOOOOOOOOOO+++++.X.pppppppppp",
"pppppppppppppX.X.OOOOOOOOOOOOOOO+XX.X.Xppppppppppp",
"ppppppppppppp.X.X.X.OOOOOOOOOXX.XX.XX..ppppppppppp",
"ppppppppppppppX.X.X.X.XX..XX.X.XX.X.X.pppppppppppp",
"pppppppppppppppp.XX.X..XX.X.X.XX.X.Xpppppppppppppp",
"ppppppppppppppppp.XX..X.XX.X..X.X.pppppppppppppppp",
"pppppppppppppppppppXX.X.X.X.XX.X.ppppppppppppppppp",
"pppppppppppppppppppppppX.X.XXppppppppppppppppppppp"
};
