/* XPM */
static char *result[] = {
/* columns rows colors chars-per-pixel */
"34 97 47 1 ",
"  c #280404",
". c #3C0808",
"X c #281804",
"o c #301C08",
"O c #38240C",
"+ c #041024",
"@ c #0C1430",
"# c #0C243C",
"$ c #511410",
"% c #691C14",
"& c #7D281C",
"* c #71592C",
"= c #143049",
"- c #183C55",
"; c #184965",
": c #1C5575",
"> c #923828",
", c #AA4530",
"< c #BE553C",
"1 c #9A753C",
"2 c #9A6D55",
"3 c #9E7159",
"4 c #A6795D",
"5 c #AE7D65",
"6 c #B28A45",
"7 c #B28669",
"8 c #BA8A6D",
"9 c #F7BA55",
"0 c #C39271",
"q c #CB9A79",
"w c #F7C76D",
"e c #206586",
"r c #207596",
"t c #7D7586",
"y c #2486A6",
"u c #388EB2",
"i c #4D9ABE",
"p c #65A6CB",
"a c #CFA682",
"s c #D7B28A",
"d c #DFC396",
"f c #F7D38A",
"g c #E3CBA2",
"h c #EBDBAA",
"j c #82B6D7",
"k c #9EC7E3",
"l c None",
/* pixels */
"lllllllllllllllllllllllXXXXXXlllll",
"llllllllllllllllllllllXXXXXXXXooll",
"llllllllllllllllllllllXXXXXXXXoool",
"llllllllllllllllllllllXXXXXXXXoool",
"llllllllllllllllllllllXXXXXXXXoooO",
"llllllllllllllllllasdlXXXXXXXXoooO",
"llllllllllllll250qaasdgXXXXXXXoooO",
"lllllllllllll22578qqasdgXXXXXXooOO",
"llllllllllll222344770qadgXXXXlOOOO",
"llllllllllll2222222470qsdlllllllll",
"llllllllllllt222222478qaslllllllll",
"lllllllllll;tt222224570qalllllllll",
"lllllllllll2t22222234780qlllllllll",
"lllllllllll2222t;t234578qlllllllll",
"lllllllllll2222ttt2335780lllllllll",
"lllllllllll2222222333477llllllllll",
"lllllllllll2222222333357llllllllll",
"lllllllllll222222222224lllllllllll",
"lllllllllll2222222222lllllllllllll",
"llllllllllll22222222llllllllllllll",
"llllllllllll222222470lllllllllllll",
"llllllllllllll-;e27qslllllllllllll",
"llllllllllll#==9227ah9llllllllllll",
"lllllllll+@@##9@2227i9llllllllllll",
"llllllll++@@#@9222279ruillllllllll",
"llllllll+++@+9+++22-9:eyplllllllll",
"lllllll++++++9+++++@=-;:rujlllllll",
"llllll+++++++9+++++9@=-;erijllllll",
"llllll++++++9+++++9+@=-;::yiklllll",
"lllll+++++++9++++9+++@=-;;;uplllll",
"lllll+++++++9++++9+++@==---rijllll",
"lllll++++++++9++9+++++@#===-epllll",
"llll+++++++++999++++++@@###=:yjlll",
"llll+++++++999++++++++++@@@##;rlll",
"lll+++++++96w69++++++++++@@@@;ylll",
"lll+++++++96w*w9++++++++++@@@;upll",
"lll+++++++9*w6w9++++++++++@@@;rull",
"ll++++++++961w69+++++++++++@@@:rul",
"ll++++++++9f6669+++++++++++@@@;erl",
"ll+++++++++6w669+++++++++++@@=;:rl",
"ll+++++++++9999++++++++++++@@@=:rl",
"l++++++++++++++++++++++++++@@@#-el",
"l+++++++++++++++++++++++++++@@=;rl",
"l+++++++++++++++++++++++++++@@=-:i",
"l++++++++++++++++++++++++++++@=;ey",
"+++++++++++++++++++++++++++++@=;:r",
"+++++++++++++++++++++++++++++++=:y",
"lllllll +++++++++++++++++++++++=;e",
"lll2222  ++++++++++++++++++++++#;r",
"ll22222   +++++++++++++++++++++#-e",
"ll22222+   ++++++++++++++++++++#;r",
"ll2222++++   ++++++++++++++++++#;r",
"ll2222+++++    ++++++++++++++++#ee",
"ll2222+++++++    +++++++++++++#;::",
"lll22++++++++++    +++++++++++#:;;",
"lllll+++++++++++    ++++++++++#;;-",
"lllll++++++++++++++@#+++++++++---=",
"lllll++++++++++++++@#=+++++++#====",
"lllll+++++++++++++++@#=++++++==###",
"lllll++++++++++++++@#=-;+++++###@@",
"lllll++++++++++++++@@#=-;+++@@@@++",
"llll++++++++++++++@@@#=-;:++@++lll",
"llll+++++++++++++@@@@@#=-222222lll",
"llll+++++++++++++@@@@#==-222222lll",
"llll++++++++++++@@@@@##=-222222lll",
"llll++++++++++++@@@@###=-222222lll",
"llll++++++++++++@@@####=;222222lll",
"llll+++++++++++++@@@####-;2222llll",
"llll++++++++++++++@@@###-;erulllll",
"llll+++++++++++++++@@@##=:erulllll",
"llll+++++++++++++++@@@##=;:eylllll",
"llll++++++++++++++++@@@#=;:rylllll",
"llll+++++++++++++++++@@@=-:eylllll",
"llll+++++++++++++++++@@@=-:eyullll",
"llll++++++++++++++++++@@#-;erullll",
"llll+++++++++++++++++++@#-;:ryllll",
"llll++++++++++++++++++++#=;:eyllll",
"llll++++++++++++++++++++#=-:erllll",
"llll++++++++++++++++++++@=-;erllll",
"llll+++++++++++++++++++++#=-:ellll",
"lllll+++++++++++++++++++@#=;:eulll",
"lllll+++++++++++++++++++@@#-;eylll",
"lllll+++++++++++++++++++@#=-;:rlll",
"lllllX++++++++++++++++++@@#=;:rlll",
"lllllX++++++++++++++++++@@##-;elll",
"lllllXX.+++++++++++++++@@##=-;llll",
"llllllXX,++++++++++++++@@##==;llll",
"llllllXXXXX++++++++++++@@##==XXlll",
"llllllXXXXXX+++++++++++@@##==XXlll",
"llllllXXXXXXXXX++++++++@@##XXXXlll",
"lllllllXXXXXXX$%&>,++++@XXXXXXXlll",
"lllllllXXXXXXX.$&>,<<XXXXXXXXXXlll",
"llllllllXXXXXX ..$,&XXXXXXXXXXllll",
"llllllllllXXXXXXXXXXXXXXXXXXXXllll",
"lllllllllllllXXXXXXXXXXXXXXXXlllll",
"llllllllllllllXXXXXXXXXXXXXXllllll",
"lllllllllllllllllllXXXXXXlllllllll"
};
