/* XPM */
static char *result[] = {
/* columns rows colors chars-per-pixel */
"46 103 51 1 ",
"  c #140000",
". c #000814",
"X c #000C1C",
"o c #201404",
"O c #241808",
"+ c #041828",
"@ c #0C2030",
"# c #142C3C",
"$ c #41140C",
"% c #592818",
"& c #653424",
"* c #71412C",
"= c #6D6138",
"- c #203849",
"; c #304551",
": c #41515D",
"> c #556169",
", c #5D6971",
"< c #65757D",
"1 c #825138",
"2 c #865D49",
"3 c #926145",
"4 c #8E6551",
"5 c #9A715D",
"6 c #A27555",
"7 c #A27D69",
"8 c #968251",
"9 c #9E8A55",
"0 c #B28665",
"q c #AE8A79",
"w c #C39A75",
"e c #C3A669",
"r c #CBAE6D",
"t c #D7BA75",
"y c #6D7D8A",
"u c #758692",
"i c #7D929E",
"p c #BA9686",
"a c #BE9E8A",
"s c #869AAA",
"d c #9EA2AA",
"f c #AAAAB6",
"g c #C3A692",
"h c #C7AE9A",
"j c #CBB6A2",
"k c #CFBEA6",
"l c #D3C7AE",
"z c #D7CFB6",
"x c #DBD3BE",
"c c #E3DBC7",
"v c None",
/* pixels */
"vvvvvvvvvvvvvvvvvvvvOOOOOOvvvvvvvvvvvvvvvvvvvv",
"vvvvvvvvvvvvvvvvvvvOOOOOOOOvvvvvvvvvvvvvvvvvvv",
"vvvvvvvvvvvvvvvvvvOOOOOOOOOOvvvvvvvvvvvvvvvvvv",
"vvvvvvvvvvvvvvvvvvOOOOOOOOOOvvvvvvvvvvvvvvvvvv",
"vvvvvvvvvvvvvvvvvvOOOOOOOOOOvvvvvvvvvvvvvvvvvv",
"vvvvvvvvvvvvvvvvvvOOOOOOOOOOvvvvvvvvvvvvvvvvvv",
"vvvvvvvvvvvvvvvvvvOOOOOOOOOOvvvvvvvvvvvvvvvvvv",
"vvvvvvvvvvvvvvvvvvOOOOOOOOOOvvvvvvvvvvvvvvvvvv",
"vvvvvvvvvvvvvvvvvvOOOOOOOOOOvvvvvvvvvvvvvvvvvv",
"vvvvvvvvvvvvvvvvvvvO25pq7OOvvvvvvvvvvvvvvvvvvv",
"vvvvvvvvvvvvvvvv247qpaaaapqvvvvvvvvvvvvvvvvvvv",
"vvvvvvvvvvvvvvvv4qpgggghhgapqvvvvvvvvvvvvvvvvv",
"vvvvvvvvvvvvvvv257hhhhhhjjhgavvvvvvvvvvvvvvvvv",
"vvvvvvvvvvvvvvv25qghhhjjjjkkjpvvvvvvvvvvvvvvvv",
"vvvvvvvvvvvvvv227qahhhhjjjkzjavvvvvvvvvvvvvvvv",
"vvvvvvvvvvvvvv225qpghhhhjjllzgvvvvvvvvvvvvvvvv",
"vvvvvvvvvvvvvv247qaghhhhjjkllhvvvvvvvvvvvvvvvv",
"vvvvvvvvvvvvvv25qpahhhhhjjjkkgvvvvvvvvvvvvvvvv",
"vvvvvvvvvvvvvv25qaghhhhhjjjjkkvvvvvvvvvvvvvvvv",
"vvvvvvvvvvvvvv25qaghjjhjjjjjljvvvvvvvvvvvvvvvv",
"vvvvvvvvvvvvvv24d--fjjjffffkkgvvvvvvvvvvvvvvvv",
"vvvvvvvvvvvvvv24p--fllzf--lzlhvvvvvvvvvvvvvvvv",
"vvvvvvvvvvvvvv245ffjlxcf--xllhvvvvvvvvvvvvvvvv",
"vvvvvvvvvvvvvvv45pghjlcccxzlhavvvvvvvvvvvvvvvv",
"vvvvvvvvvvvvvvvv5qagjkcccxzlhvvvvvvvvvvvvvvvvv",
"vvvvvvvvvvvvvvvv5qpaghccxzlj7vvvvvvvvvvvvvvvvv",
"vvvvvvvvvvvvvvvvv7pagjxxzzlpvvvvvvvvvvvvvvvvvv",
"vvvvvvvvvvvvvvvvvv7aghzllkpvvvvvvvvvvvvvvvvvvv",
"vvvvvvvvvvvvvvv.###eqaljhe--vvvvvvvvvvvvvvvvvv",
"vvvvvvvvvvvv.@----e-aqgag:e:>>#vvvvvvvvvvvvvvv",
"vvvvvvvvv.@#-;;:::e:ghjk<<e<<yyy;vvvvvvvvvvvvv",
"vvvvvv.X+@#;;::>>e,,jklzuueiiuuyy<,#vvvvvvvvvv",
"vvvvvv+@#-;::>>,,e<<lzxcssssiiuuuu<,:;vvvvvvvv",
"vvvvv.@-;;:>>,,<<eyyyuissssessiiuuuy,>;-vvvvvv",
"vvvvv.-::>>,,<<yyyeyyuissssesssiiiiiiy<>-vvvvv",
"vvvv.@:>>,,<<yyyyyeyyussssesssssiiiiiiu<,;vvvv",
"vvvv.;:>,<<yyyyyyyeyuissssessssssssssssu,:vvvv",
"vvv.X#;>>,<yyyyyyyeyiissssesssssssssssssy>-vvv",
"vvvX@-;>,<<<<yyyyyyeuiissesssssssssssssss,;vvv",
"vvv+@-;>,<<<<yyyyyyeuiissessssssssssssssii<:vv",
"vv.+@-;:,,<<<<<yyyyueiisessssssssssssssiiu<;vv",
"vv@#-;:>,,<<<<<yyyyuueiesssssssssssssiiiuuu>vv",
"vv@#-:>,,,,<<<<yyyyyueessssiiiiiiiiiiiiuuuu<;v",
"v.#-;>>,,,<<<<<yyyyee99eeiiiiiiiiiiiiiiiuuuu>v",
"v#-;:>>,,,<<<<<yyyye9t9r9eiiiiiiiiiiiiiiiuuu;v",
"v-;::>>>,,,<<<yyyye9rr=99eiiiiiiiiiiiiiiiiiuu-",
"-;:::>>,,,,<<<<yyye99rr=99eiiiiiiiiiiiiiiiiiu:",
"-;;::>>>,,<<<<<yyye9988r99eiiiiiiiiiiiiiiiiiii",
"-;;::>>>,,<<<<<yyyyer999teuuuiiiiiiiiiiiiiiiii",
"--;;::>>,,<<<<<yyyyee999eeuuuiiiiiiiiiiiiiiiii",
"--;;:::>>,,<<<<yyyyuueeeuuuuuiiiiiiiuiiiiiiiii",
"#--;;::>>>>,<<yyyyyuuuuuuuuuuiiiiiuuuuuuuuiiii",
"#--;;;:::>>,,<yyyyyuuuuuuuuuuiiiiuuyyuuuuuuuuu",
"##--;;::::>>,<yyyyyuuuuuuuuuuiiiuuyyyyuuuuuuuu",
"##--;;;;:::>>,<yyyyuuuuuuuuuuiiuuyy<<yyuuuuuuu",
"@##---;;;;::>,,<yyyyuuuuuuuuuuyy<<,<<<yyyyyyyu",
"@##----;;;;:>>,<<yyuuuuuuuuuuyy<<,,,<<<yyyyyyy",
"@@###---;;;;::>,,<yuuuuuuuuuyy<<,,>,,,<<<yyyy:",
"@@@####----;;:>>,<<yuuuuuuuyy<<,,>>>>,,,<<yyy>",
"+@@@####----;::>,,<yyuuuuyy<<,,>>:>>>,,,<<<<<v",
"++@@@@####--;;:>>,<<yuuuyy<<,,>>::::>>>,,,<<<v",
"v222222vvv.%%&**113360wwwww006633<>;vvv>>,,,<v",
"v222222vvv.%&&*1133600wwwwwwwww00u<>vvv222222v",
"v222222vv.-;;:>>,<<yyuwwwwwwwwwwwsy,vvv222222v",
"vv2222vvv.#-::>,,<<yuuiiiiiiiiiisiiy,vv222222v",
"vvvvvvvv.@#-;:>>,<<yyuiiiiiiiiiisiiu<vvv2222vv",
"vvvvvvvv@#-;::>,,<<yuuuiiiiiiiiiiiuuu,vvvvvvvv",
"vvvvvvv+@#-;:>>>,<<yuuiiiiiiiiiiiiuuy,vvvvvvvv",
"vvvvvvvX+@#-;:>,,<<yuuuiiiiiiiiiiuuyy<vvvvvvvv",
"vvvvvv.X+@#-;:>>,<<yuuuiiiiiiiiiiuuyy<<vvvvvvv",
"vvvvvv.X+@#-;:>,,<<yyuuuiiiiiiiiuuyy<<,vvvvvvv",
"vvvvvv.X+@#-;:>,,<yyyuuuiiiiiiiuuuyy<<<vvvvvvv",
"vvvvvv.X+@##-;:>,<<yyyuuuiiiiiuuuyyy<<<vvvvvvv",
"vvvvvvXX+@#--;:>,<<yyyuuiiiiiiuuuyyy<<<vvvvvvv",
"vvvvvvX++@#-;;:>,<<yyyuuuiiiiiuuuuyyy<<vvvvvvv",
"vvvvvX+@@#-;;:>>,<<yyyuuuiiiiiiuuuyyyy<vvvvvvv",
"vvvvvX+@@#-;::>>,<<yyyuuuiiiiiiiuuuyyyy<vvvvvv",
"vvvvvX+@##-;;:>>,<<yyyuuuiiiiiiuuuuuyyy<vvvvvv",
"vvvvvX+@##-;;:>>,<<<yyuuuiiiiiuuuuuuyyy<vvvvvv",
"vvvvv++@##-;;:>>,<<<yyuuuuiiiiuuuuuuuyyyvvvvvv",
"vvvvv++@##-;;:>>,<<<yyyuuuuiiuuuuuuuyyyyvvvvvv",
"vvvvv++@#--;::>,,<<<yyyuuuuiuuuuuuuyyyyyvvvvvv",
"vvvvvX++@#-;;:>>,<<<yyyyuuuiuuuuuuuyyyyyvvvvvv",
"vvvvvvX+@#-;::>,,<<<yyyyuuuuuuuuuuuyyy<<vvvvvv",
"vvvvvvX++@#-;:>>,<<<yyyyuuuuuuuuyyyy<<<<vvvvvv",
"vvvvvvXX++@#-;:>,<<<yyyyyuuuuuuyyyy<<<,vvvvvvv",
"vvvvvvXX++@@#-;:>,<<<<<yyyyuuyyyy<<<<,,vvvvvvv",
"vvvvvvXX++@@#-;::,,,,<<<<yyyyyy<<<<,,>>vvvvvvv",
"vvvvvvXXX++@#-;:>>>,,,,<<<yyyy<<<<,,>>:vvvvvvv",
"vvvvvvv.XX++@#-;:>>>>,,,<<<y<<<<,,,,>::vvvvvvv",
"vvvvvvv.XX++@@#-;::>>>>,,<<<<<,,,,>>::;vvvvvvv",
"vvvvvvv.XX++@@#-;::::>>>>,,<<,,,,>>:;;vvvvvvvv",
"vvvvvvv..XX++@@#-;;::::>>,,,,,,>>::;;-ovvvvvvv",
"vvvvvvvvooXX++@#-;;;;:::>>,,,,>>::;--#vvvvvvvv",
"vvvvvvvvvooo++@@#--;;;:::>>,>>::;;--#@vvvvvvvv",
"vvvvvvvvvooo&**@#---;;;:::>>>>::;;ooovvvvvvvvv",
"vvvvvvvvvvoo $&13##--;;;:::>>:;33ooovvvvvvvvvv",
"vvvvvvvvvvooooo&1oooooooooo&&&&&&oovvvvvvvvvvv",
"vvvvvvvvvvvoooooooooooooooo$$$oooovvvvvvvvvvvv",
"vvvvvvvvvvvvvooooooooooooooooooovvvvvvvvvvvvvv",
"vvvvvvvvvvvvvvoooooooooooooooovvvvvvvvvvvvvvvv",
"vvvvvvvvvvvvvvvvooooooooooooovvvvvvvvvvvvvvvvv",
"vvvvvvvvvvvvvvvvvvvoooooovvvvvvvvvvvvvvvvvvvvv"
};
