/* XPM */
static char *ca2b297a7fc34ce19a9d3b6fbae3fe5fsYywv3h2jTiHOgIi[] = {
/* columns rows colors chars-per-pixel */
"96 96 73 1 ",
"  c None",
". c #261F1E",
"X c #27201F",
"o c #272020",
"O c #2B2324",
"+ c #302727",
"@ c #352B25",
"# c #382E27",
"$ c #312629",
"% c #33292A",
"& c #3D322E",
"* c #392D31",
"= c #3E3131",
"- c #41342D",
"; c #453533",
": c #4A3934",
"> c #513E35",
", c #544136",
"< c #5C4637",
"1 c #5D4837",
"2 c #554338",
"3 c #5E493A",
"4 c #614B3A",
"5 c #6C543B",
"6 c #71573A",
"7 c #765B3C",
"8 c #7A5E3D",
"9 c #7E613E",
"0 c #745D41",
"q c #82643F",
"w c #87683F",
"e c #8B6A3E",
"r c #926E3E",
"t c #9B7537",
"y c #95713E",
"u c #9B743D",
"i c #9F793E",
"p c #A47B3E",
"a c #A97F3C",
"s c #866740",
"d c #886740",
"f c #876840",
"g c #8B6A41",
"h c #916D42",
"j c #967242",
"k c #9C7641",
"l c #9D7A44",
"z c #9F7F4B",
"x c #A27C42",
"c c #A97F41",
"v c #A27F49",
"b c #AE833D",
"n c #B1853D",
"m c #A68144",
"M c #AA8343",
"N c #AE8847",
"B c #A7844B",
"V c #AC8648",
"C c #AE894A",
"Z c #B38A45",
"A c #B38C4A",
"S c #B5904C",
"D c #BA944D",
"F c #B59553",
"G c #BA9651",
"H c #BC9A53",
"J c #BD9F5A",
"K c #C09E56",
"L c #C09F58",
"P c #C2A057",
"I c #C3A45C",
"U c #C5A85F",
"Y c #CBAC62",
/* pixels */
"YGGHIIBN0ASAAAAAMabnbbMnnbbnbbbbbbnnaanbbbbbbbbbbbbbbbbbbbnbbbbbnnaMnnaanannbbbbbAZAAHGSGLLHHGH3",
"UaappbjN0HkhheqqqsghhhhhhhhhhhhhhhhhsssssqqsshhhhhhhhhhhhhhhhhhhhhhhsqsddqssssssdwgwsgqsddhulAA6",
"UcaukpjA0Fh89qesq89qghhhhhhhhhhhhhhhhhhhhhhhhhhhhhhhhhhhhhhhhhhhhhhhhhhhhhhhghgsqdrjjkxppuupxAS7",
"Ucbupahk0Fkuughhhhhhhhhhhhhhhhs87788877777ssqhhhhhhhhhhhhhhhhhw07887778777qqssssdgdgwq9qdwjkxCJ5",
"Icaupbhk5Chdsqddghhhggsssqqdddsdddddhhhqs9989dsssssssssssqssddddgdddhhgqsqq8q89s9shhhhhgpukuxmH1",
"Ippupahk0Hxkujurqq89ssdsdsdddqq88qsqq0888qgggsdsssddssdsssssdq987ssq8q887qddddgdgdqqdgeeeewrumI,",
"Kauyiprk7pkhw989q88qssdsqqq077qghhhhddddssddssdsqqq87sds8ssq77qghhhhddddddsdds88898888rereehpuF<",
"IMuuirrk7Ils77qsqssgdssdssssdhhhhhhhhhhhhq889dssssssddsdsssddhhhhhhhhhhhhq88s8sssqqq8q8jzzBhggC,",
"Kaqrprrp-JYUIGcpapppaanbnnnMnnnMnMnnMnnananZnabnbnnnMannbbMnnnMnbMnnnbMnbbbnbbbbbAGDGHDHHHDDDGK2",
"Gawjpuhr#$o+$O%********************************************************************%+o%:&;;;=;;;",
"Dpwuuuhr#+oooO%****************************************************************$OOOOOooCHHHKDSH:",
"Zrrreuhk#OoXO%$OOOOOOOOOOOOOOooOOOOOOOOOOoX..$OOOOOOOOOOOOOOOoOOOOOOOOOOOoooooooXoOoOXoAwtpppyF>",
"Mehrekhk>$oOOoooo.......o................Xooo...o........................oooooooXoo...XCweuyqyA>",
"bwheeqhp&                                                                              AwwrhqkS:",
"aehwgqhj-                                                                              cgfejgpM>",
"adh8d8wx-                                                                              Mefgjjub>",
"peg8d8da:                                                                              bgqqddjc<",
"phwqd8dx:                                                                              pedqq7ja>",
"phwqd8dx:                                                                              ahqqqqhp>",
"prwqd8dp:                                                                              adghqqhc>",
"phs8d0hp:                                                                              ahhh9qdc:",
"ahssd8ep:                                                                              behg8qhx;",
"ahssd8dp:                                                                              nhhg9qhp:",
"ahsddqdu:                                                                              nhhsqqhp:",
"nhqwf8du:                                                                              nhhhgsgp:",
"nhsdhsgu:                                                                              nhhgg0gx:",
"nhqdhsdp:                                                                              nhhgg8dp:",
"nhqsgs9u:                                                                              bhhgd8ga:",
"ng9qsdqp:                                                                              nhdds8gx:",
"nhqgfq9p:                                                                              nhsss8gp:",
"nhqdgqqp:                                                                              nhqsd8hp:",
"ngqqsq9p:                                                                              nh8sd7hp;",
"nd7qss8p:                                                                              nh8wd8hp:",
"nsss7sqp:                                                                              nrqdd8hp:",
"ndd88qqp:                                                                              nhqdg8hp:",
"nsd788qp:                                                                              nh0dhhhp:",
"n8g88qsp:                                                                              nh8dhhhp:",
"bqg888su:                                                                              nh8ghhhp:",
"b9dq88sp:                                                                              nhqsshhp:",
"bqsd87sx:                                                                              nhsddhhx:",
"aqss87gp:                                                                              nhssgghp:",
"pqseq7sp:                                                                              nhfgghhp:",
"u8qgs8gp:                                                                              nhgsghhx:",
"ng8qssqp:                                                                              nh9gs8hp:",
"nqs98s9p:                                                                              nhqgs8hp;",
"nss889qp:                                                                              nh8qg8hp:",
"nsg88qqp:                                                                              nh9dhhhp:",
"n9g8888p:                                                                              nh9ghhhp:",
"bqg888sp:                                                                              nj0dhhhp:",
"b9dq88sx:                                                                              nhqddhhp:",
"bqss88sp:                                                                              nhsddhhp:",
"aqsd87dp:                                                                              nhqddhhx;",
"pqsg97gp:                                                                              nhsddhhp:",
"i8qgq8gp:                                                                              nhhddhhp:",
"arqsg9gp:                                                                              nhhdsqhp:",
"aesds9su:                                                                              nhhsqqhx:",
"nhsse9du:                                                                              nhhhgsgp:",
"ngsshqgu:                                                                              nhhgg8gp:",
"ngqsgggu:                                                                              nhhgg8sx:",
"njsdgsqu:                                                                              nhhgg8gp:",
"ngqqss9p:                                                                              nhdgs8gp:",
"nhqggqqp:                                                                              nhdqs8ep:",
"nhqqdqqp:                                                                              nhqqd8hp:",
"nhqqdq8x:                                                                              nh8dd7hp:",
"ng8qss9p:                                                                              nh9gs8hp:",
"ndqq8q9p:                                                                              nh9qg9hp:",
"nss88qqp:                                                                              nh9qg8gp;",
"nqg789qp:                                                                              nh9ehhhp:",
"n9g889qp:                                                                              nh9ghhhp:",
"bqg888sp:                                                                              nh9shhhx:",
"b9dq87sp:                                                                              nhqddhhp:",
"bqdd87sp:                                                                              nhsddhhp:",
"aqqd87gp:                                                                              nhqdghhx:",
"pqqg97sp:                                                                              nhssghhp:",
"p8qgs8gp:                                                                              nhhfghhp:",
"u89hs9hp:                                                                              pggsqdhx:",
"uq9hq9hp:                                                                              udhsqdhp:",
"yq8jeqgp:                                                                              usssqdhp:",
"tq8e8qhp:                                                                              usss0dhp:",
"y88e79fp:                                                                              issd8dhp:",
"ngff79sp:                                                                              pgjgqfhp:",
"nl9s9qfi:                                                                              beeffshp:",
"buhhhjBC>                                                                              neugegkp;",
"PKHGAHGF>                                                                              ngugeekp:",
";=;;;;;;*                                                                              neuggrkp:",
"buubpbxpMpbbbbbbbbbnbbbbbbbbbbbbbbbbbbbbnpcppbbbbbbbbbbbbbbbbbbbbbnbbbbbnacpxpaxcppppA4nhuhgepp:",
"pgjjjlllg9qfs9ssssggggssghhsqsssgdgggeggggedggssghhsssssghhsqsssgddgdggggggssddggs9qhC6njjyehxp;",
"Slf99gw9999gsssss9sgghhhhhhhghhhhhhhhgddwgdgghghhhhhhhhhhhhhhhhhhhhhhhwdqsegghhhq888gC8njehrpbp:",
"bmmmmmmheghhg9s9q99s9ssqs88787878qqqqddgggq98ssqs8877qdqqq8787878qqqqdggdsq9888999wshN7nljyjibp;",
"bljlhhyggghhgghgggggggggghhhhhghggggggggggggggggghhhhgggghhhhhgggggggggghggghgqsfhg9wN7bmZpxxbp:",
"y9swwww999qqsgggggggsssshhggggdsdggrghhhhggggfsshhggggsqghhggedqsghgghhhhdeeggghggy9jS9bpZbMiMG2",
"bmmhwww998qqqsq9sdfqdghghhhhhhgdddwqdddgsfssfghghhhhhghhhhhghhhwsdgsdsdsdsdwwdgs9sw9gAsbiNmbpbD2",
"bl999whhssgqqehesqsqsggsqqwqwdsqeqqeqqqqqqqqqggsqsqsqhgsqwqwwwwwqqqwqqsseqqqqqsq99qweS6bCSAMpMG2",
"CACmSSGGSAApbACvCAAvlZCCNNANNNNSZDZDSHDDGDSDDMCCNNAZANNBMNACNNBSDSZDDDGSDDSDSSAZHDSDDS@tHHHHHZM:",
"*;,&=&==;::::::::::::><>>,<<<<,>:::::::::-:::,,,>,<<<,,,,,<1<<,::>::::::;;;::>,,,,::::O%;;;;;;;=",
"=;;;::;,>,,,,,>>:>:,<<<<4<<<:>>><<4<<4<>>:;;;1<<1<<<:1<11<<1::,,<<<<<<<,>:;;;-;-;;;-;:%=;;;;;;;*"
};
