/* XPM */
static char *c9ef95a760a14ee9de6966189bd784d52TyqyuU2AT5ELtPC[] = {
/* columns rows colors chars-per-pixel */
"32 32 244 2 ",
"   c None",
".  c #09041C",
"X  c #06061A",
"o  c #050626",
"O  c #050434",
"+  c #05033B",
"@  c #030B3B",
"#  c #0B0233",
"$  c #071238",
"%  c #101639",
"&  c #040444",
"*  c #09044A",
"=  c #0A0448",
"-  c #071747",
";  c #020554",
":  c #050A53",
">  c #05045C",
",  c #0A045C",
"<  c #04095C",
"1  c #0C0657",
"2  c #09175A",
"3  c #150D52",
"4  c #241E47",
"5  c #0B284C",
"6  c #072659",
"7  c #11285B",
"8  c #0A345E",
"9  c #292C5B",
"0  c #22244A",
"q  c #050564",
"w  c #0A0363",
"e  c #040A65",
"r  c #04046B",
"t  c #0B036D",
"y  c #050C6B",
"u  c #090C6D",
"i  c #080C61",
"p  c #05136C",
"a  c #071668",
"s  c #141A65",
"d  c #020473",
"f  c #030D73",
"g  c #080778",
"h  c #041374",
"j  c #0A1374",
"k  c #0A1C72",
"l  c #04157C",
"z  c #0C157B",
"x  c #071B7B",
"c  c #140D70",
"v  c #241D6B",
"b  c #201A78",
"n  c #0A256A",
"m  c #0A346B",
"M  c #163A6E",
"N  c #05227A",
"B  c #0D227B",
"V  c #092C7D",
"C  c #072874",
"Z  c #182A7A",
"A  c #0D337F",
"S  c #093375",
"D  c #173677",
"F  c #1B2068",
"G  c #282E66",
"H  c #363A69",
"J  c #272B7B",
"K  c #223878",
"L  c #293B66",
"P  c #423E56",
"I  c #403E7E",
"U  c #0B447D",
"Y  c #0A4E7B",
"T  c #144777",
"R  c #0F4F6E",
"E  c #374268",
"W  c #364F77",
"Q  c #4F5975",
"!  c #4E4E74",
"~  c #64607B",
"^  c #070F81",
"/  c #051482",
"(  c #021C83",
")  c #0A1E8A",
"_  c #091A85",
"`  c #101F82",
"'  c #062183",
"]  c #0B2584",
"[  c #09258D",
"{  c #0A2A8D",
"}  c #062A87",
"|  c #0C3285",
" . c #06338D",
".. c #0A358B",
"X. c #0A3D8A",
"o. c #073789",
"O. c #173486",
"+. c #0A2D91",
"@. c #0B3D95",
"#. c #063895",
"$. c #122292",
"%. c #253A86",
"&. c #453C8A",
"*. c #0A468A",
"=. c #0B4888",
"-. c #194586",
";. c #0C548D",
":. c #15578C",
">. c #0C4395",
",. c #064299",
"<. c #0B429A",
"1. c #06499C",
"2. c #0C4B9C",
"3. c #064194",
"4. c #184B98",
"5. c #0B5596",
"6. c #0D539C",
"7. c #085999",
"8. c #145498",
"9. c #284788",
"0. c #374889",
"q. c #334793",
"w. c #285998",
"e. c #305696",
"r. c #1D6A87",
"t. c #0C649B",
"y. c #076A9F",
"u. c #14679C",
"i. c #18738C",
"p. c #2F6995",
"a. c #0C4DA3",
"s. c #064AA4",
"d. c #0C52A4",
"f. c #0659A6",
"g. c #155BA7",
"h. c #134AA1",
"j. c #295BA6",
"k. c #325DA8",
"l. c #0A65AC",
"z. c #0C67A7",
"x. c #1569A9",
"c. c #0774AB",
"v. c #1677A9",
"b. c #0C6DB4",
"n. c #096AB8",
"m. c #166EB3",
"M. c #0D71B2",
"N. c #097AB4",
"B. c #0B7CBB",
"V. c #0575B0",
"C. c #1378B5",
"Z. c #297AB6",
"A. c #3E79A7",
"S. c #564D83",
"D. c #545886",
"F. c #495B9C",
"G. c #4E4B95",
"H. c #5A7698",
"J. c #526E95",
"K. c #687698",
"L. c #797795",
"P. c #4767A2",
"I. c #5968A1",
"U. c #5879A9",
"Y. c #5D7AB9",
"T. c #487FB8",
"R. c #6979AB",
"E. c #707AB0",
"W. c #807DA4",
"Q. c #088AA2",
"!. c #0682BC",
"~. c #0B8BBA",
"^. c #1686BD",
"/. c #1A98B8",
"(. c #0A9AAE",
"). c #388EBB",
"_. c #228AB9",
"`. c #13B9BE",
"'. c #5983B7",
"]. c #5295B4",
"[. c #6699BC",
"{. c #7084A7",
"}. c #0C85C2",
"|. c #088AC4",
" X c #0696C8",
".X c #199CC9",
"XX c #1394D0",
"oX c #248CC3",
"OX c #2699C5",
"+X c #329CC8",
"@X c #0EA4CE",
"#X c #16ADCE",
"$X c #11A7D8",
"%X c #0CBBDE",
"&X c #13B9DC",
"*X c #0FB1CD",
"=X c #28AED1",
"-X c #18BCE5",
";X c #0EB8E2",
":X c #509FCA",
">X c #689BC6",
",X c #7899C1",
"<X c #5FB7D5",
"1X c #42B2CB",
"2X c #68A5CD",
"3X c #68B8CA",
"4X c #72A8D3",
"5X c #7EBAD9",
"6X c #6FAED3",
"7X c #09C6DA",
"8X c #1AC9DC",
"9X c #27C2D7",
"0X c #0DCCEA",
"qX c #15C5EB",
"wX c #16CAEA",
"eX c #07D8EB",
"rX c #04DDF0",
"tX c #47CADA",
"yX c #64C8DE",
"uX c #7CC1DD",
"iX c #63CFE7",
"pX c #8398B5",
"aX c #9996B8",
"sX c #8E8BAC",
"dX c #8BA0BD",
"fX c #A3A8BD",
"gX c #8F91C3",
"hX c #95AAC9",
"jX c #98B3CD",
"kX c #86B3D8",
"lX c #96BAD4",
"zX c #89ADD2",
"xX c #A3A7CA",
"cX c #A6B2D8",
"vX c #A4BEE2",
"bX c #8BC5D3",
"nX c #A2C1DD",
"mX c #89C4E3",
"MX c #99C6E3",
"NX c #9CD5EC",
"BX c #AECFF1",
"VX c #9EEAF7",
"CX c #ABE2F1",
"ZX c #E7EDE9",
/* pixels */
"                        Q G %.=X/.K H [.bX                      ",
"                  ~ % + , y V &X7X#X- $ u.oX3X                  ",
"              bXi.v.r.M V 2.7.1.3.@X;Xv.v.@X$XZ.U.              ",
"            tXR m T - - < | 2.2.B.7X|.M.d.f.t.k j F.            ",
"          9X(.a z.eXeX;X X|.t.5 8XA w , M. X!.2 : { 9.          ",
"        e.B $._ qXrXeX X~.c.;.U .Xo.p e o. Xb.7.@ M d.4.        ",
"      E > h t 2 r.(.#X;.< ; O 5 N.l.<.@.] l.2...i , k 8.J.      ",
"    D.] o.( e # . 5 c.6 * & . Y }.V.f.1.2.j r t d r > < i       ",
"    O.#.a.] < . 8 B.!.v.& o o Q.XXc.n.+.m.w r t t l , = q b ZX  ",
"  H x ,.f.<.D @ 5.5.5.m.=.2 - u.u.T ;.O.>.t t t t >.a + = q H.  ",
"  s u ,.<.3.C.: ; 1 ; a 1.[ ..n n s 5.2 z g d f B 6.A ;.=.@.J   ",
"  q N <.l.&Xu., & & < z g.-.K OX.XO.Z T .X*.}.=Xn t.z.f.n.g.u   ",
"S.< l p qXeX- , > + 3 J j.).K +XOXJ G L 9 `.7X6 = k }.C.y B y ! ",
"v A z 6.eX#Xo & r e 0.&.&.P.A.).'.I E H P W 7 = ; y B.!.5.z ..G.",
"K l.^ '  XQ.X O w k.:XP.F.G.U.].I.S.! Q J.J.G * < t x.*X0XN d.Z ",
"w.b.} ) } U $ - S yXyX>X>X[.E.R.U.[.3XiXiX<X2X4.4.` b.0X0XC.7.w.",
"D  .a { #.U 2 S j.Y.E.H.L.K.K.{.2X6X6X4X4XK.I.j l l '  . .8.: w.",
"G ] O V n.7.& ; d q.gX{.L.L.pXpX,X5XuX5X5XkXe.( l l ( } ,.C.n Z.",
"G C @ =.!.M.* w t < R.sXsXpXpXhXzXhXmXmXkXY.l ( ( / ( ) X.^.f.:X",
"! 5.| @.N.!.k r 1 + 9 gXjXjXaXlXlXaXMXMXzXb d l _ ( ' k + Z l.[.",
"  c.v.> k d.j k Y /.8X<XBXlXfXnXvXjXNXVX'./ h f l  .8.- X T 8.  ",
"  W *.X.X.@.>.oX-X-XwX8XNXvXcXxXxXlXCXVX| l / / p ] :.. $ v.q.  ",
"  D.z s.l.s.>.> h l x M.^.Z v F D OX_.-.+. . .>..X6.S = e *.zX  ",
"    O.[ 7.s. ., r g j }.o.e w > A  Xx.p [ #.1.$X7X!.g.q g 0.    ",
"    MX5.#X2.+.> > q N @.) l w , y.~.2 1 a g.%X7XXX>.N.N *       ",
"      U.m :.@.<.,.a.] f l ' u , ^.S 1 k O.=.}.|.^.2.B.x.W       ",
"        1Xx.N.V.l.d.d r w w e C z.2.d.f.o.: z. X&XC.u.p.        ",
"          =XXXl.6.N r t p y q 6.qXB.5.;.a = S _.m = 4           ",
"            yX~.b.g.y a qXg.c ' ..X.n O * 2 >.a % Q             ",
"                w.U m a h.B h _ { ,.#.n f {  .9.                ",
"                  ! 0 3 V :.- X O | ) ^ z J                     ",
"                        H.'.k.7 T p.P.                          "
};
